STARTFONT 2.1
FONT -FontForge-Anton-Book-R-Normal--32-310-75-75-P-136-ISO10646-1
SIZE 31 75 75
FONTBOUNDINGBOX 55 56 -8 -11
COMMENT "Generated by fontforge, http://fontforge.sourceforge.net"
COMMENT "Copyright 2011 The Anton Project Authors"
STARTPROPERTIES 40
FOUNDRY "FontForge"
FAMILY_NAME "Anton"
WEIGHT_NAME "Book"
SLANT "R"
SETWIDTH_NAME "Normal"
ADD_STYLE_NAME ""
PIXEL_SIZE 32
POINT_SIZE 310
RESOLUTION_X 75
RESOLUTION_Y 75
SPACING "P"
AVERAGE_WIDTH 136
CHARSET_REGISTRY "ISO10646"
CHARSET_ENCODING "1"
FONTNAME_REGISTRY ""
CHARSET_COLLECTIONS "ISO8859-2 ISO8859-9 ISO8859-4 ISO10646-1"
FONT_NAME "Anton-Regular"
FACE_NAME "Anton Regular"
COPYRIGHT "Copyright 2011 The Anton Project Authors"
FONT_VERSION "2.000"
FONT_ASCENT 26
FONT_DESCENT 6
UNDERLINE_POSITION -5
UNDERLINE_THICKNESS 2
X_HEIGHT 23
CAP_HEIGHT 27
DEFAULT_CHAR 1
RAW_ASCENT 800
RAW_DESCENT 200
NORM_SPACE 7
RELATIVE_WEIGHT 40
RELATIVE_SETWIDTH 50
SUPERSCRIPT_X 0
SUPERSCRIPT_Y 11
SUPERSCRIPT_SIZE 19
SUBSCRIPT_X 0
SUBSCRIPT_Y 2
SUBSCRIPT_SIZE 19
AVG_LOWERCASE_WIDTH 150
AVG_UPPERCASE_WIDTH 151
ENDPROPERTIES
CHARS 658
STARTCHAR NULL.dup1
ENCODING 0
SWIDTH 0 0
DWIDTH 0 0
BBX 1 1 0 0
BITMAP
00
ENDCHAR
STARTCHAR uni0002
ENCODING 2
SWIDTH 293 0
DWIDTH 9 0
BBX 1 1 0 0
BITMAP
00
ENDCHAR
STARTCHAR uni0009
ENCODING 9
SWIDTH 293 0
DWIDTH 9 0
BBX 1 1 0 0
BITMAP
00
ENDCHAR
STARTCHAR uni000A
ENCODING 10
SWIDTH 293 0
DWIDTH 9 0
BBX 1 1 0 0
BITMAP
00
ENDCHAR
STARTCHAR nonmarkingreturn
ENCODING 13
SWIDTH 234 0
DWIDTH 7 0
BBX 1 1 0 0
BITMAP
00
ENDCHAR
STARTCHAR space
ENCODING 32
SWIDTH 234 0
DWIDTH 7 0
BBX 1 1 0 0
BITMAP
00
ENDCHAR
STARTCHAR exclam
ENCODING 33
SWIDTH 229 0
DWIDTH 7 0
BBX 5 28 1 0
BITMAP
F8
F8
F8
F8
F8
F8
F8
F8
F8
F8
F8
F8
78
78
78
78
78
70
70
70
00
00
00
00
F8
F8
F8
F8
ENDCHAR
STARTCHAR quotedbl
ENCODING 34
SWIDTH 429 0
DWIDTH 14 0
BBX 12 10 1 18
BITMAP
F9F0
F9F0
F9F0
F9F0
F9F0
F1E0
70E0
70E0
70E0
70E0
ENDCHAR
STARTCHAR numbersign
ENCODING 35
SWIDTH 546 0
DWIDTH 17 0
BBX 16 25 1 0
BITMAP
0F9F
0F9F
0F1E
0F1E
0F1E
1F3E
1F3E
7FFF
7FFF
7FFF
7FFF
3E7C
3C78
FFFE
FFFE
FFFE
FFFE
78F8
78F0
78F0
F9F0
F9F0
F9F0
F1E0
F1E0
ENDCHAR
STARTCHAR dollar
ENCODING 36
SWIDTH 462 0
DWIDTH 15 0
BBX 13 29 1 -2
BITMAP
0700
0700
0F80
3FE0
7FF0
FFF0
FFF8
F9F8
F8F8
F8F8
FC00
7E00
7F00
3F80
1FC0
0FE0
07F0
03F8
01F8
F9F8
F8F8
F9F8
FFF8
FFF8
7FF0
3FE0
1F80
0700
0700
ENDCHAR
STARTCHAR percent
ENCODING 37
SWIDTH 1057 0
DWIDTH 34 0
BBX 32 28 1 0
BITMAP
1F803E00
7FC07C00
7FE07C00
FFE07C00
F9F0F800
F1F0F800
F1F0F800
F1F1F800
F1F1F000
F1F1F1F8
F1F1F3FC
F1F3E7FE
F1F3EFFF
F1F3EF9F
F9F7CF9F
FFE7CF9F
7FE7CF9F
7FCFCF9F
3F8F8F9F
000F8F9F
000F8F9F
001F0F9F
001F0F9F
001F0FFF
003E0FFF
003E07FE
003E03FC
007E01F8
ENDCHAR
STARTCHAR ampersand
ENCODING 38
SWIDTH 505 0
DWIDTH 16 0
BBX 15 25 1 0
BITMAP
0FC0
1FF0
3FF0
3FF0
3EF8
3EF0
3EF0
3FF0
3FE0
1FC0
1F88
3F9C
7FFE
7FFC
FFF8
FFF8
F3F0
F3F0
F1F0
F1F0
FBF8
FFF8
FFF8
7F7C
3E7C
ENDCHAR
STARTCHAR quotesingle
ENCODING 39
SWIDTH 214 0
DWIDTH 7 0
BBX 5 10 1 18
BITMAP
F8
F8
F8
F8
F8
F0
70
70
70
70
ENDCHAR
STARTCHAR parenleft
ENCODING 40
SWIDTH 291 0
DWIDTH 9 0
BBX 8 28 1 0
BITMAP
07
1F
3F
7F
FF
FC
FC
FC
FC
FC
FC
FC
FC
FC
FC
FC
FC
FC
FC
FC
FC
FC
FC
7E
7F
3F
1F
07
ENDCHAR
STARTCHAR parenright
ENCODING 41
SWIDTH 291 0
DWIDTH 9 0
BBX 8 28 1 0
BITMAP
E0
F8
FC
FC
FE
7E
3E
3E
3F
3F
3F
3F
3F
3F
3F
3F
3F
3F
3F
3F
3E
3E
7E
FE
FC
F8
F0
C0
ENDCHAR
STARTCHAR asterisk
ENCODING 42
SWIDTH 452 0
DWIDTH 14 0
BBX 13 14 1 12
BITMAP
0F00
0700
4720
6770
FFF8
FFF0
1FC0
1FC0
FFF0
FFF8
E770
4720
0700
0F00
ENDCHAR
STARTCHAR plus
ENCODING 43
SWIDTH 355 0
DWIDTH 11 0
BBX 10 10 1 5
BITMAP
1C00
1C00
1C00
FFC0
FFC0
FFC0
FFC0
1C00
1C00
1C00
ENDCHAR
STARTCHAR comma
ENCODING 44
SWIDTH 236 0
DWIDTH 8 0
BBX 6 8 1 -4
BITMAP
FC
FC
FC
FC
38
78
78
70
ENDCHAR
STARTCHAR hyphen
ENCODING 45
SWIDTH 311 0
DWIDTH 10 0
BBX 8 4 1 8
BITMAP
FF
FF
FF
FF
ENDCHAR
STARTCHAR period
ENCODING 46
SWIDTH 229 0
DWIDTH 7 0
BBX 5 4 1 0
BITMAP
F8
F8
F8
F8
ENDCHAR
STARTCHAR slash
ENCODING 47
SWIDTH 405 0
DWIDTH 13 0
BBX 13 28 0 0
BITMAP
01F8
03F0
03F0
03F0
03F0
03E0
07E0
07E0
07E0
07C0
0FC0
0FC0
0FC0
0F80
0F80
1F80
1F80
1F80
1F00
3F00
3F00
3F00
3E00
7E00
7E00
7E00
7C00
FC00
ENDCHAR
STARTCHAR zero
ENCODING 48
SWIDTH 494 0
DWIDTH 16 0
BBX 14 28 1 0
BITMAP
0FC0
3FF0
7FF8
FFF8
FFFC
FCFC
FCFC
FCFC
FCFC
FCFC
FCFC
FCFC
FCFC
FCFC
FCFC
FCFC
FCFC
FCFC
FCFC
FCFC
FCFC
FCFC
FCFC
FFFC
FFF8
7FF8
3FF0
0FC0
ENDCHAR
STARTCHAR one
ENCODING 49
SWIDTH 331 0
DWIDTH 11 0
BBX 10 28 0 0
BITMAP
07C0
0FC0
1FC0
FFC0
FFC0
FFC0
FFC0
CFC0
0FC0
0FC0
0FC0
0FC0
0FC0
0FC0
0FC0
0FC0
0FC0
0FC0
0FC0
0FC0
0FC0
0FC0
0FC0
0FC0
0FC0
0FC0
0FC0
0FC0
ENDCHAR
STARTCHAR two
ENCODING 50
SWIDTH 494 0
DWIDTH 16 0
BBX 14 28 1 0
BITMAP
0FC0
3FF0
7FF8
7FFC
FFFC
FCFC
FC7C
FC7C
FC7C
FCFC
FCFC
00FC
01FC
01F8
03F8
07F0
07E0
0FE0
1FC0
3F80
3F00
7F00
7E00
FFFC
FFFC
FFFC
FFFC
FFFC
ENDCHAR
STARTCHAR three
ENCODING 51
SWIDTH 494 0
DWIDTH 16 0
BBX 14 28 1 0
BITMAP
0FC0
3FF0
7FF8
FFF8
FFFC
FCFC
FCFC
F8FC
F8FC
00FC
03FC
07F8
07F0
07F0
07F8
01FC
00FC
F8FC
F8FC
F8FC
F8FC
F8FC
FCFC
FFF8
FFF8
7FF0
3FF0
1FC0
ENDCHAR
STARTCHAR four
ENCODING 52
SWIDTH 494 0
DWIDTH 16 0
BBX 16 28 0 0
BITMAP
07FC
07FC
07FC
07FC
0FFC
0FFC
0FFC
1FFC
1FFC
1EFC
1EFC
3EFC
3EFC
3CFC
3CFC
7CFC
7CFC
7CFC
F8FC
FFFF
FFFF
FFFF
FFFF
00FC
00FC
00FC
00FC
00FC
ENDCHAR
STARTCHAR five
ENCODING 53
SWIDTH 494 0
DWIDTH 16 0
BBX 14 28 1 0
BITMAP
FFF8
FFF8
FFF8
FFF8
FFF8
FC00
FC00
FC00
FFF0
FFF8
FFF8
FFFC
FCFC
F8FC
00FC
00FC
00FC
F8FC
F8FC
F8FC
F8FC
FCFC
FCFC
FFFC
FFF8
7FF8
3FF0
0FC0
ENDCHAR
STARTCHAR six
ENCODING 54
SWIDTH 494 0
DWIDTH 16 0
BBX 14 28 1 0
BITMAP
0FC0
3FF0
7FF8
7FFC
FEFC
FC7C
FC7C
FC7C
FC00
FC00
FC00
FFF0
FFF8
FFFC
FFFC
FCFC
FCFC
FCFC
FCFC
FCFC
FCFC
FCFC
FCFC
FFFC
7FF8
7FF8
3FF0
0FC0
ENDCHAR
STARTCHAR seven
ENCODING 55
SWIDTH 494 0
DWIDTH 16 0
BBX 14 28 1 0
BITMAP
FFFC
FFFC
FFFC
FFFC
FFFC
00FC
01F8
01F8
01F8
03F0
03F0
07E0
07E0
07E0
0FC0
0FC0
0FC0
1F80
1F80
1F80
3F80
3F00
3F00
3F00
3F00
7F00
7F00
7F00
ENDCHAR
STARTCHAR eight
ENCODING 56
SWIDTH 494 0
DWIDTH 16 0
BBX 14 28 1 0
BITMAP
0FC0
3FF0
7FF8
FFF8
FFFC
FCFC
FCFC
F8FC
FCFC
FCFC
FFFC
7FF8
3FF0
7FF8
FFFC
FCFC
FCFC
F8FC
F8FC
F8FC
F8FC
FCFC
FCFC
FFFC
7FF8
7FF8
3FF0
0FC0
ENDCHAR
STARTCHAR nine
ENCODING 57
SWIDTH 504 0
DWIDTH 16 0
BBX 14 28 1 0
BITMAP
0FC0
3FF0
7FF8
7FFC
FFFC
FCFC
FCFC
FC7C
FC7C
FC7C
FC7C
FCFC
FEFC
FFFC
7FFC
7FFC
1F7C
007C
007C
007C
FC7C
FC7C
FCFC
FCFC
7FF8
7FF8
3FF0
0FC0
ENDCHAR
STARTCHAR colon
ENCODING 58
SWIDTH 242 0
DWIDTH 8 0
BBX 6 16 1 4
BITMAP
FC
FC
FC
FC
00
00
00
00
00
00
00
00
FC
FC
FC
FC
ENDCHAR
STARTCHAR semicolon
ENCODING 59
SWIDTH 245 0
DWIDTH 8 0
BBX 6 20 1 0
BITMAP
FC
FC
FC
FC
00
00
00
00
00
00
00
00
FC
FC
FC
FC
3C
38
78
70
ENDCHAR
STARTCHAR less
ENCODING 60
SWIDTH 321 0
DWIDTH 10 0
BBX 8 18 1 3
BITMAP
01
01
07
1F
3F
FF
FF
FC
F0
F0
FC
FE
FF
7F
1F
07
03
01
ENDCHAR
STARTCHAR equal
ENCODING 61
SWIDTH 311 0
DWIDTH 10 0
BBX 8 10 1 8
BITMAP
FF
FF
FF
FF
00
00
FF
FF
FF
FF
ENDCHAR
STARTCHAR greater
ENCODING 62
SWIDTH 321 0
DWIDTH 10 0
BBX 9 18 1 3
BITMAP
8000
C000
E000
F800
FE00
FF00
FF80
3F80
0F80
0780
1F80
7F80
FF80
FE00
F800
F000
C000
8000
ENDCHAR
STARTCHAR question
ENCODING 63
SWIDTH 492 0
DWIDTH 16 0
BBX 14 28 1 0
BITMAP
0FC0
3FF0
7FF8
FFF8
FFFC
FCFC
FCFC
F8FC
F8FC
F8FC
00FC
00FC
01FC
03F8
7FF8
7FF0
7FE0
7FC0
7C00
7C00
7C00
0000
0000
0000
7C00
7C00
7C00
7C00
ENDCHAR
STARTCHAR at
ENCODING 64
SWIDTH 864 0
DWIDTH 28 0
BBX 26 31 1 -3
BITMAP
007F8000
01FFF000
07FFF800
0FFFFC00
1FF1FE00
1F803F00
3F000F00
3E000F80
7C39E780
7C7DE780
78FFE780
F8FFE3C0
F9FBE3C0
F9F3E3C0
F9F3E3C0
F1F3E3C0
F1F3E3C0
F9F3E3C0
F9F3E3C0
F9F3E380
F9FBE780
78FFFF80
7CFDFF00
7C7CFF00
3E387C00
3F000000
1FC00000
0FFFC000
07FFC000
01FFC000
007FC000
ENDCHAR
STARTCHAR A
ENCODING 65
SWIDTH 485 0
DWIDTH 16 0
BBX 15 28 0 0
BITMAP
1FF8
1FF8
1FF8
1FF8
1FF8
1FF8
1EF8
3EF8
3EF8
3EF8
3EF8
3EFC
3E7C
3E7C
3E7C
3E7C
3E7C
7E7C
7E7C
7FFC
7FFC
7FFC
7FFE
7C7E
7C3E
7C3E
7C3E
FC3E
ENDCHAR
STARTCHAR B
ENCODING 66
SWIDTH 479 0
DWIDTH 15 0
BBX 14 28 1 0
BITMAP
FFE0
FFF0
FFF8
FFF8
FDF8
FCF8
FCF8
FCF8
FCF8
FCF8
FDF8
FFF0
FFE0
FFF0
FFF8
FCF8
FCFC
FCFC
FCFC
FCFC
FCFC
FCFC
FCF8
FDF8
FFF8
FFF8
FFF0
FFC0
ENDCHAR
STARTCHAR C
ENCODING 67
SWIDTH 474 0
DWIDTH 15 0
BBX 14 28 1 0
BITMAP
0FC0
3FE0
7FF0
7FF8
FFF8
FCF8
FCFC
F8FC
F8FC
F8FC
F8FC
F800
F800
F800
F800
F800
F8FC
F8FC
F8FC
F8FC
F8FC
F8FC
FCF8
FFF8
7FF8
7FF0
3FF0
0FC0
ENDCHAR
STARTCHAR D
ENCODING 68
SWIDTH 493 0
DWIDTH 16 0
BBX 14 28 1 0
BITMAP
FFE0
FFF0
FFF8
FFF8
FDFC
FCFC
FCFC
FCFC
FCFC
FCFC
FCFC
FCFC
FCFC
FCFC
FCFC
FCFC
FCFC
FCFC
FCFC
FCFC
FCFC
FCFC
FCFC
FDF8
FFF8
FFF8
FFF0
FFC0
ENDCHAR
STARTCHAR E
ENCODING 69
SWIDTH 412 0
DWIDTH 13 0
BBX 12 28 1 0
BITMAP
FFE0
FFE0
FFE0
FFE0
FFE0
FC00
FC00
FC00
FC00
FC00
FC00
FFE0
FFE0
FFE0
FFE0
FFE0
FC00
FC00
FC00
FC00
FC00
FC00
FC00
FFF0
FFF0
FFF0
FFF0
FFF0
ENDCHAR
STARTCHAR F
ENCODING 70
SWIDTH 399 0
DWIDTH 13 0
BBX 11 28 1 0
BITMAP
FFE0
FFE0
FFE0
FFE0
FFE0
FC00
FC00
FC00
FC00
FC00
FFE0
FFE0
FFE0
FFE0
FFE0
FC00
FC00
FC00
FC00
FC00
FC00
FC00
FC00
FC00
FC00
FC00
FC00
FC00
ENDCHAR
STARTCHAR G
ENCODING 71
SWIDTH 485 0
DWIDTH 16 0
BBX 14 28 1 0
BITMAP
0FC0
3FE0
7FF0
7FF8
FFF8
FCF8
F8F8
F8FC
F8FC
F8FC
F800
F800
F9FC
F9FC
F9FC
F9FC
F8FC
F8FC
F8FC
F8FC
F8FC
FCFC
FCFC
FFFC
7FFC
7FFC
3FDC
1F1C
ENDCHAR
STARTCHAR H
ENCODING 72
SWIDTH 499 0
DWIDTH 16 0
BBX 14 28 1 0
BITMAP
FCFC
FCFC
FCFC
FCFC
FCFC
FCFC
FCFC
FCFC
FCFC
FCFC
FFFC
FFFC
FFFC
FFFC
FFFC
FCFC
FCFC
FCFC
FCFC
FCFC
FCFC
FCFC
FCFC
FCFC
FCFC
FCFC
FCFC
FCFC
ENDCHAR
STARTCHAR I
ENCODING 73
SWIDTH 227 0
DWIDTH 7 0
BBX 5 28 1 0
BITMAP
F8
F8
F8
F8
F8
F8
F8
F8
F8
F8
F8
F8
F8
F8
F8
F8
F8
F8
F8
F8
F8
F8
F8
F8
F8
F8
F8
F8
ENDCHAR
STARTCHAR J
ENCODING 74
SWIDTH 466 0
DWIDTH 15 0
BBX 13 28 1 0
BITMAP
01F8
01F8
01F8
01F8
01F8
01F8
01F8
01F8
01F8
01F8
01F8
01F8
01F8
01F8
01F8
F9F8
F9F8
F9F8
F9F8
F9F8
F9F8
F9F8
F9F8
FFF8
FFF0
7FF0
3FE0
1F80
ENDCHAR
STARTCHAR K
ENCODING 75
SWIDTH 472 0
DWIDTH 15 0
BBX 14 28 1 0
BITMAP
FCFC
FCF8
FCF8
FDF8
FDF8
FDF0
FDF0
FDF0
FFF0
FFF0
FFE0
FFE0
FFE0
FFE0
FFE0
FFE0
FFF0
FFF0
FDF0
FDF0
FDF8
FDF8
FDF8
FCF8
FCFC
FCFC
FCFC
FC7C
ENDCHAR
STARTCHAR L
ENCODING 76
SWIDTH 397 0
DWIDTH 13 0
BBX 11 28 1 0
BITMAP
FC00
FC00
FC00
FC00
FC00
FC00
FC00
FC00
FC00
FC00
FC00
FC00
FC00
FC00
FC00
FC00
FC00
FC00
FC00
FC00
FC00
FC00
FC00
FC00
FFE0
FFE0
FFE0
FFE0
ENDCHAR
STARTCHAR M
ENCODING 77
SWIDTH 746 0
DWIDTH 24 0
BBX 22 28 1 0
BITMAP
FF87FC
FF87FC
FF87FC
FF87FC
FF87FC
FF8FFC
FF8FFC
FFCFFC
FFCFFC
FFCF7C
FBCF7C
FBCF7C
FBCF7C
FBDF7C
FBFF7C
FBFE7C
F9FE7C
F9FE7C
F9FE7C
F9FE7C
F9FE7C
F9FE7C
F8FC7C
F8FC7C
F8FC7C
F8FC7C
F8FC7C
F8FC7C
ENDCHAR
STARTCHAR N
ENCODING 78
SWIDTH 498 0
DWIDTH 16 0
BBX 14 28 1 0
BITMAP
FCFC
FCFC
FCFC
FEFC
FEFC
FEFC
FEFC
FEFC
FEFC
FFFC
FFFC
FFFC
FFFC
FFFC
FFFC
FFFC
FFFC
FFFC
FFFC
FDFC
FDFC
FDFC
FDFC
FDFC
FCFC
FCFC
FCFC
FCFC
ENDCHAR
STARTCHAR O
ENCODING 79
SWIDTH 486 0
DWIDTH 16 0
BBX 14 28 1 0
BITMAP
0FC0
3FE0
7FF0
7FF8
FFF8
FCF8
F8FC
F8FC
F8FC
F8FC
F8FC
F8FC
F8FC
F8FC
F8FC
F8FC
F8FC
F8FC
F8FC
F8FC
F8FC
F8FC
FCF8
FFF8
7FF8
7FF0
3FE0
0FC0
ENDCHAR
STARTCHAR P
ENCODING 80
SWIDTH 472 0
DWIDTH 15 0
BBX 14 28 1 0
BITMAP
FFC0
FFF0
FFF0
FFF8
FFF8
FCF8
FCF8
FCFC
FCFC
FCFC
FCFC
FDF8
FFF8
FFF8
FFF8
FFF0
FFE0
FC00
FC00
FC00
FC00
FC00
FC00
FC00
FC00
FC00
FC00
FC00
ENDCHAR
STARTCHAR Q
ENCODING 81
SWIDTH 494 0
DWIDTH 16 0
BBX 14 31 1 -3
BITMAP
0FC0
3FE0
7FF0
FFF8
FFF8
FDF8
F8F8
F8F8
F8F8
F8F8
F8F8
F8F8
F8F8
F8F8
F8F8
F8F8
F8F8
F8F8
F8F8
F8F8
F8F8
F8F8
FCF8
FFF8
7FF8
7FF0
3FF8
0FFC
007C
0018
0008
ENDCHAR
STARTCHAR R
ENCODING 82
SWIDTH 477 0
DWIDTH 15 0
BBX 14 28 1 0
BITMAP
FFE0
FFF0
FFF8
FFF8
FFF8
FCFC
FCFC
FCFC
FCFC
FCFC
FCF8
FFF8
FFF0
FFE0
FFF8
FCF8
FCF8
FCF8
FCF8
FCF8
FCF8
FCF8
FCF8
FCF8
FCF8
FCF8
FCF8
FCF8
ENDCHAR
STARTCHAR S
ENCODING 83
SWIDTH 461 0
DWIDTH 15 0
BBX 13 28 1 0
BITMAP
1F80
3FE0
7FF0
FFF0
FFF8
F9F8
F9F8
F9F8
FC00
FE00
FF00
7F80
3FC0
1FE0
0FF0
07F0
03F8
F9F8
F9F8
F8F8
F8F8
F8F8
F9F8
FFF8
FFF0
7FF0
3FE0
1FC0
ENDCHAR
STARTCHAR T
ENCODING 84
SWIDTH 396 0
DWIDTH 13 0
BBX 12 28 0 0
BITMAP
FFF0
FFF0
FFF0
FFF0
FFF0
0F80
0F80
0F80
0F80
0F80
0F80
0F80
0F80
0F80
0F80
0F80
0F80
0F80
0F80
0F80
0F80
0F80
0F80
0F80
0F80
0F80
0F80
0F80
ENDCHAR
STARTCHAR U
ENCODING 85
SWIDTH 474 0
DWIDTH 15 0
BBX 13 28 1 0
BITMAP
F8F8
F8F8
F8F8
F8F8
F8F8
F8F8
F8F8
F8F8
F8F8
F8F8
F8F8
F8F8
F8F8
F8F8
F8F8
F8F8
F8F8
F8F8
F8F8
F8F8
F8F8
F8F8
FCF8
FFF8
7FF8
7FF0
3FE0
0FC0
ENDCHAR
STARTCHAR V
ENCODING 86
SWIDTH 469 0
DWIDTH 15 0
BBX 15 28 0 0
BITMAP
FC7E
7C7C
7C7C
7C7C
7C7C
7C7C
7C7C
7C7C
7C7C
3E7C
3EF8
3EF8
3EF8
3EF8
3EF8
3EF8
3EF8
3EF8
1FF0
1FF0
1FF0
1FF0
1FF0
1FF0
1FF0
1FF0
0FE0
0FE0
ENDCHAR
STARTCHAR W
ENCODING 87
SWIDTH 712 0
DWIDTH 23 0
BBX 22 28 0 0
BITMAP
FC7C7C
7C7C7C
7C7C7C
7C7C7C
7CFC7C
7CFCFC
7CFEFC
7CFEFC
7EFEF8
7EFEF8
3EFEF8
3EFEF8
3EFEF8
3EFEF8
3EFEF8
3EFEF8
3FEEF8
3FEFF8
3FEFF0
3FEFF0
1FEFF0
1FEFF0
1FEFF0
1FEFF0
1FCFF0
1FC7F0
1FC7F0
1FC7E0
ENDCHAR
STARTCHAR X
ENCODING 88
SWIDTH 484 0
DWIDTH 15 0
BBX 15 28 0 0
BITMAP
7C7E
7E7C
7E7C
3E7C
3E7C
3EFC
3EF8
3FF8
1FF8
1FF8
1FF8
1FF0
1FF0
1FF0
1FF0
1FF8
1FF8
3FF8
3FF8
3EF8
3EFC
3EFC
7E7C
7E7C
7E7C
7C7E
7C7E
FC7E
ENDCHAR
STARTCHAR Y
ENCODING 89
SWIDTH 446 0
DWIDTH 14 0
BBX 14 28 0 0
BITMAP
FC7C
7CFC
7CFC
7CF8
7CF8
7CF8
3EF8
3FF0
3FF0
3FF0
1FF0
1FE0
1FE0
1FE0
0FE0
0FE0
0FC0
0FC0
0FC0
07C0
07C0
07C0
07C0
07C0
07C0
07C0
07C0
07C0
ENDCHAR
STARTCHAR Z
ENCODING 90
SWIDTH 410 0
DWIDTH 13 0
BBX 12 28 1 0
BITMAP
FFF0
FFF0
FFF0
FFF0
FFF0
03E0
07E0
07E0
07C0
0FC0
0FC0
0F80
1F80
1F80
3F00
3F00
3E00
7E00
7E00
7C00
FC00
FC00
F800
FFE0
FFE0
FFE0
FFE0
FFE0
ENDCHAR
STARTCHAR bracketleft
ENCODING 91
SWIDTH 318 0
DWIDTH 10 0
BBX 9 28 1 0
BITMAP
FF80
FF80
FF80
FF80
F800
F800
F800
F800
F800
F800
F800
F800
F800
F800
F800
F800
F800
F800
F800
F800
F800
F800
F800
F800
FF80
FF80
FF80
FF80
ENDCHAR
STARTCHAR backslash
ENCODING 92
SWIDTH 405 0
DWIDTH 13 0
BBX 13 28 0 0
BITMAP
FC00
7C00
7E00
7E00
7E00
3E00
3F00
3F00
3F00
1F00
1F80
1F80
1F80
0F80
0F80
0FC0
0FC0
0FC0
07C0
07E0
07E0
07E0
03E0
03E0
03F0
03F0
03F0
01F8
ENDCHAR
STARTCHAR bracketright
ENCODING 93
SWIDTH 318 0
DWIDTH 10 0
BBX 8 28 1 0
BITMAP
FF
FF
FF
FF
1F
1F
1F
1F
1F
1F
1F
1F
1F
1F
1F
1F
1F
1F
1F
1F
1F
1F
1F
1F
FF
FF
FF
FF
ENDCHAR
STARTCHAR asciicircum
ENCODING 94
SWIDTH 474 0
DWIDTH 15 0
BBX 14 15 1 7
BITMAP
1FC0
1FC0
1FC0
1FE0
3FE0
3FE0
3DE0
3DF0
7DF0
7DF0
7DF0
7DF8
FCF8
F8F8
F8FC
ENDCHAR
STARTCHAR underscore
ENCODING 95
SWIDTH 365 0
DWIDTH 12 0
BBX 10 4 1 -6
BITMAP
FFC0
FFC0
FFC0
FFC0
ENDCHAR
STARTCHAR grave
ENCODING 96
SWIDTH 317 0
DWIDTH 10 0
BBX 7 7 1 25
BITMAP
80
C0
F0
FE
FE
FE
1E
ENDCHAR
STARTCHAR a
ENCODING 97
SWIDTH 483 0
DWIDTH 15 0
BBX 13 24 1 0
BITMAP
1FC0
3FF0
7FF0
FFF8
FDF8
F8F8
F8F8
00F8
00F8
03F8
1FF8
7FF8
7CF8
FCF8
F8F8
F8F8
F8F8
F8F8
F8F8
FDF8
FFF8
FFF8
7EF8
3CF8
ENDCHAR
STARTCHAR b
ENCODING 98
SWIDTH 501 0
DWIDTH 16 0
BBX 14 28 1 0
BITMAP
FC00
FC00
FC00
FC00
FDF0
FFF8
FFF8
FFFC
FEFC
FCFC
FCFC
FCFC
FCFC
FCFC
FCFC
FCFC
FCFC
FCFC
FCFC
FCFC
FCFC
FCFC
FCFC
FEFC
FFFC
FFF8
FFF8
FDE0
ENDCHAR
STARTCHAR c
ENCODING 99
SWIDTH 491 0
DWIDTH 16 0
BBX 14 24 1 0
BITMAP
0FC0
3FF0
7FF8
7FF8
FEFC
FCFC
FCFC
FCFC
FCFC
FCFC
FC00
FC00
FC00
FC00
FCFC
FCFC
FCFC
FCFC
FCFC
FDFC
7FF8
7FF8
3FF0
0FC0
ENDCHAR
STARTCHAR d
ENCODING 100
SWIDTH 498 0
DWIDTH 16 0
BBX 14 28 1 0
BITMAP
00FC
00FC
00FC
00FC
1EFC
7FFC
7FFC
FFFC
FDFC
FCFC
FCFC
FCFC
FCFC
FCFC
FCFC
FCFC
FCFC
FCFC
FCFC
FCFC
FCFC
FCFC
FCFC
FDFC
FFFC
7FFC
7FFC
3EFC
ENDCHAR
STARTCHAR e
ENCODING 101
SWIDTH 488 0
DWIDTH 16 0
BBX 14 24 1 0
BITMAP
0FC0
3FF0
7FF8
FFF8
FDF8
FCFC
FCFC
FCFC
FCFC
FCFC
FFFC
FFFC
FFFC
FC00
FC00
FCFC
FCFC
FCFC
FCFC
FDF8
7FF8
7FF8
3FF0
0FC0
ENDCHAR
STARTCHAR f
ENCODING 102
SWIDTH 280 0
DWIDTH 9 0
BBX 7 28 1 0
BITMAP
3E
7E
7E
7E
7C
FE
FE
FE
FE
7C
7C
7C
7C
7C
7C
7C
7C
7C
7C
7C
7C
7C
7C
7C
7C
7C
7C
7C
ENDCHAR
STARTCHAR g
ENCODING 103
SWIDTH 504 0
DWIDTH 16 0
BBX 14 28 1 -4
BITMAP
3EFC
7FFC
7FFC
FFFC
FCFC
FCFC
FCFC
FCFC
FCFC
FCFC
FCFC
FCFC
FCFC
FCFC
FCFC
FCFC
FCFC
FEFC
FFFC
7FFC
7FFC
1EFC
00FC
79FC
7FF8
FFF8
FFF0
3FC0
ENDCHAR
STARTCHAR h
ENCODING 104
SWIDTH 505 0
DWIDTH 16 0
BBX 14 28 1 0
BITMAP
FC00
FC00
FC00
FC00
FDF0
FFF8
FFF8
FFFC
FFFC
FCFC
FCFC
FCFC
FCFC
FCFC
FCFC
FCFC
FCFC
FCFC
FCFC
FCFC
FCFC
FCFC
FCFC
FCFC
FCFC
FCFC
FCFC
FCFC
ENDCHAR
STARTCHAR i
ENCODING 105
SWIDTH 243 0
DWIDTH 8 0
BBX 6 29 1 0
BITMAP
FC
FC
FC
FC
00
FC
FC
FC
FC
FC
FC
FC
FC
FC
FC
FC
FC
FC
FC
FC
FC
FC
FC
FC
FC
FC
FC
FC
FC
ENDCHAR
STARTCHAR j
ENCODING 106
SWIDTH 263 0
DWIDTH 8 0
BBX 6 32 1 -2
BITMAP
7C
7C
7C
7C
00
00
7C
7C
7C
7C
7C
7C
7C
7C
7C
7C
7C
7C
7C
7C
7C
7C
7C
7C
7C
7C
7C
7C
FC
FC
FC
F8
ENDCHAR
STARTCHAR k
ENCODING 107
SWIDTH 491 0
DWIDTH 16 0
BBX 15 28 1 0
BITMAP
FC00
FC00
FC00
FC00
FCFC
FCFC
FCF8
FDF8
FDF8
FDF0
FFF0
FFF0
FFE0
FFE0
FFE0
FFE0
FFE0
FFF0
FFF0
FFF0
FDF8
FDF8
FDF8
FCFC
FCFC
FCFC
FC7E
FC7E
ENDCHAR
STARTCHAR l
ENCODING 108
SWIDTH 248 0
DWIDTH 8 0
BBX 6 28 1 0
BITMAP
FC
FC
FC
FC
FC
FC
FC
FC
FC
FC
FC
FC
FC
FC
FC
FC
FC
FC
FC
FC
FC
FC
FC
FC
FC
FC
FC
FC
ENDCHAR
STARTCHAR m
ENCODING 109
SWIDTH 758 0
DWIDTH 24 0
BBX 22 24 1 0
BITMAP
FDF1F0
FFFBF8
FFFFFC
FFFFFC
FEFEFC
FCFCFC
FCFCFC
FCFCFC
FCFCFC
FCFCFC
FCFCFC
FCFCFC
FCFCFC
FCFCFC
FCFCFC
FCFCFC
FCFCFC
FCFCFC
FCFCFC
FCFCFC
FCFCFC
FCFCFC
FCFCFC
FCFCFC
ENDCHAR
STARTCHAR n
ENCODING 110
SWIDTH 499 0
DWIDTH 16 0
BBX 14 24 1 0
BITMAP
FDF0
FFF8
FFF8
FFFC
FCFC
FCFC
FCFC
FCFC
FCFC
FCFC
FCFC
FCFC
FCFC
FCFC
FCFC
FCFC
FCFC
FCFC
FCFC
FCFC
FCFC
FCFC
FCFC
FCFC
ENDCHAR
STARTCHAR o
ENCODING 111
SWIDTH 497 0
DWIDTH 16 0
BBX 14 24 1 0
BITMAP
0FC0
3FF0
7FF8
7FF8
FDFC
FCFC
FCFC
FCFC
FCFC
FCFC
FCFC
FCFC
FCFC
FCFC
FCFC
FCFC
FCFC
FCFC
FCFC
FFFC
7FF8
7FF8
3FF0
0FC0
ENDCHAR
STARTCHAR p
ENCODING 112
SWIDTH 500 0
DWIDTH 16 0
BBX 14 28 1 -4
BITMAP
FDF0
FFF8
FFF8
FFFC
FEFC
FCFC
FCFC
FCFC
FCFC
FCFC
FCFC
FCFC
FCFC
FCFC
FCFC
FCFC
FCFC
FCFC
FCFC
FEFC
FFFC
FFF8
FFF8
FDF0
FC00
FC00
FC00
FC00
ENDCHAR
STARTCHAR q
ENCODING 113
SWIDTH 500 0
DWIDTH 16 0
BBX 14 28 1 -4
BITMAP
3EFC
7FFC
7FFC
FFFC
FDFC
FCFC
FCFC
FCFC
FCFC
FCFC
FCFC
FCFC
FCFC
FCFC
FCFC
FCFC
FCFC
FCFC
FCFC
FDFC
FFFC
7FFC
7FFC
3EFC
00FC
00FC
00FC
00FC
ENDCHAR
STARTCHAR r
ENCODING 114
SWIDTH 344 0
DWIDTH 11 0
BBX 10 24 1 0
BITMAP
FDC0
FFC0
FFC0
FFC0
FF80
FC00
FC00
FC00
FC00
FC00
FC00
FC00
FC00
FC00
FC00
FC00
FC00
FC00
FC00
FC00
FC00
FC00
FC00
FC00
ENDCHAR
STARTCHAR s
ENCODING 115
SWIDTH 475 0
DWIDTH 15 0
BBX 14 24 1 0
BITMAP
0FC0
3FF0
7FF0
FFF8
FDF8
F8F8
F8F8
FC00
FF00
7F80
7FC0
3FE0
0FF0
07F8
03F8
F9F8
F8FC
F8FC
F8FC
FDF8
FFF8
7FF0
3FE0
1FC0
ENDCHAR
STARTCHAR t
ENCODING 116
SWIDTH 305 0
DWIDTH 10 0
BBX 8 28 1 0
BITMAP
7E
7E
7E
7E
7E
FF
FF
FF
FF
7E
7E
7E
7E
7E
7E
7E
7E
7E
7E
7E
7E
7E
7E
7E
7F
7F
3F
3F
ENDCHAR
STARTCHAR u
ENCODING 117
SWIDTH 499 0
DWIDTH 16 0
BBX 14 24 1 0
BITMAP
FCFC
FCFC
FCFC
FCFC
FCFC
FCFC
FCFC
FCFC
FCFC
FCFC
FCFC
FCFC
FCFC
FCFC
FCFC
FCFC
FCFC
FCFC
FCFC
FCFC
FFFC
7FFC
7FFC
3EFC
ENDCHAR
STARTCHAR v
ENCODING 118
SWIDTH 461 0
DWIDTH 15 0
BBX 14 24 0 0
BITMAP
FC7C
7C7C
7C7C
7CFC
7CFC
7CFC
7EF8
3EF8
3EF8
3EF8
3EF8
3EF8
3FF0
3FF0
1FF0
1FF0
1FF0
1FF0
1FE0
1FE0
0FE0
0FE0
0FE0
0FE0
ENDCHAR
STARTCHAR w
ENCODING 119
SWIDTH 696 0
DWIDTH 22 0
BBX 21 24 1 0
BITMAP
F9F1F8
F9F9F0
F9F9F0
F9F9F0
F9F9F0
F9F9F0
79F9F0
79FBF0
7DFBE0
7FFFE0
7FFFE0
7FFFE0
7FDFE0
7FDFE0
7FDFE0
3FDFE0
3FDFC0
3FDFC0
3F9FC0
3F9FC0
3F9FC0
3F8FC0
3F8FC0
1F8FC0
ENDCHAR
STARTCHAR x
ENCODING 120
SWIDTH 459 0
DWIDTH 15 0
BBX 15 24 0 0
BITMAP
7C3C
7E3C
7E7C
3E78
3F78
3FF8
1FF0
1FF0
1FF0
0FE0
0FE0
0FE0
0FE0
0FE0
1FE0
1FF0
1FF0
3FF0
3DF8
3DF8
7CF8
78FC
78FC
F87E
ENDCHAR
STARTCHAR y
ENCODING 121
SWIDTH 461 0
DWIDTH 15 0
BBX 14 28 0 -4
BITMAP
FC7C
FC7C
7C7C
7C7C
7C7C
7CF8
7CF8
7CF8
3CF8
3CF8
3EF8
3EF0
3EF0
3EF0
1FF0
1FF0
1FF0
1FE0
1FE0
1FE0
1FE0
0FE0
0FE0
0FC0
7FC0
7FC0
7FC0
7F80
ENDCHAR
STARTCHAR z
ENCODING 122
SWIDTH 386 0
DWIDTH 12 0
BBX 12 24 0 0
BITMAP
7FF0
7FF0
7FF0
7FF0
03F0
03E0
07E0
07E0
07C0
0FC0
0FC0
0F80
1F80
1F80
1F00
3F00
3F00
3E00
7E00
7E00
FFF0
FFF0
FFF0
FFF0
ENDCHAR
STARTCHAR braceleft
ENCODING 123
SWIDTH 340 0
DWIDTH 11 0
BBX 10 32 0 -3
BITMAP
03C0
0FC0
1FC0
1FC0
1F80
1F00
1F00
1F00
1F00
1F00
1F00
1F00
1F00
3F00
FE00
FC00
FC00
FE00
3F00
1F00
1F00
1F00
1F00
1F00
1F00
1F00
1F00
1F80
1FC0
1FC0
0FC0
03C0
ENDCHAR
STARTCHAR bar
ENCODING 124
SWIDTH 216 0
DWIDTH 7 0
BBX 5 32 1 -1
BITMAP
F8
F8
F8
F8
F8
F8
F8
F8
F8
F8
F8
F8
F8
F8
F8
F8
F8
F8
F8
F8
F8
F8
F8
F8
F8
F8
F8
F8
F8
F8
F8
F8
ENDCHAR
STARTCHAR braceright
ENCODING 125
SWIDTH 340 0
DWIDTH 11 0
BBX 9 32 1 -3
BITMAP
F000
FC00
FE00
FE00
7E00
3E00
3E00
3E00
3E00
3E00
3E00
3E00
3E00
3F00
1F80
0F80
0F80
1F80
3F00
3E00
3E00
3E00
3E00
3E00
3E00
3E00
3E00
7E00
FE00
FE00
FC00
F000
ENDCHAR
STARTCHAR asciitilde
ENCODING 126
SWIDTH 493 0
DWIDTH 16 0
BBX 15 6 1 13
BITMAP
3E08
7FDE
FFFC
FFFC
E7F8
20F0
ENDCHAR
STARTCHAR uni00A0
ENCODING 160
SWIDTH 234 0
DWIDTH 7 0
BBX 1 1 0 0
BITMAP
00
ENDCHAR
STARTCHAR exclamdown
ENCODING 161
SWIDTH 227 0
DWIDTH 7 0
BBX 5 27 1 -2
BITMAP
F8
F8
F8
F8
00
00
00
70
70
70
78
78
78
78
78
F8
F8
F8
F8
F8
F8
F8
F8
F8
F8
F8
F8
ENDCHAR
STARTCHAR cent
ENCODING 162
SWIDTH 481 0
DWIDTH 15 0
BBX 14 29 1 -3
BITMAP
0300
0300
0300
1FE0
7FF0
7FF8
FFF8
FCFC
F8FC
F8FC
F8FC
F8FC
F8FC
F800
F800
F800
F800
F8FC
F8FC
F8FC
F8FC
FCFC
FFF8
7FF8
7FF0
3FE0
0780
0300
0300
ENDCHAR
STARTCHAR sterling
ENCODING 163
SWIDTH 474 0
DWIDTH 15 0
BBX 14 25 1 0
BITMAP
0FE0
3FF0
3FF8
7FF8
7EF8
7E7C
7E7C
7E00
7E00
7E00
3E00
FFF0
FFF0
FFF0
FFF0
3F00
3F00
3F00
3F00
3E00
FC00
FFF8
FFF8
FFF8
FFF8
ENDCHAR
STARTCHAR currency
ENCODING 164
SWIDTH 488 0
DWIDTH 16 0
BBX 14 15 1 8
BITMAP
2010
6FD8
FFFC
FFF8
7878
7038
F038
F038
F038
7038
7878
FFF8
FFFC
6FF8
2010
ENDCHAR
STARTCHAR yen
ENCODING 165
SWIDTH 463 0
DWIDTH 15 0
BBX 14 28 0 0
BITMAP
FC7C
7CFC
7CFC
7CF8
7CF8
7CF8
3EF8
3FF0
3FF0
3FF0
1FF0
1FF0
1FE0
1FE0
1FE0
0FE0
0FC0
7FF8
7FF8
7FF8
07C0
7FF8
7FF8
7FF8
07C0
07C0
07C0
07C0
ENDCHAR
STARTCHAR brokenbar
ENCODING 166
SWIDTH 222 0
DWIDTH 7 0
BBX 5 32 1 -1
BITMAP
F8
F8
F8
F8
F8
F8
F8
F8
F8
F8
F8
F8
F8
F8
00
00
00
00
F8
F8
F8
F8
F8
F8
F8
F8
F8
F8
F8
F8
F8
F8
ENDCHAR
STARTCHAR section
ENCODING 167
SWIDTH 449 0
DWIDTH 14 0
BBX 13 26 1 0
BITMAP
0F80
3FE0
7FF0
FFF0
FDF0
F8F8
F800
FE00
7F00
3FC0
7FE0
FBF0
F0F8
F8F8
FEF0
7FF0
1FE0
0FE0
03F0
01F0
F8F8
FDF8
FFF0
7FF0
7FE0
1F80
ENDCHAR
STARTCHAR dieresis
ENCODING 168
SWIDTH 477 0
DWIDTH 15 0
BBX 13 4 1 25
BITMAP
FCF8
FCF8
FCF8
FCF8
ENDCHAR
STARTCHAR copyright
ENCODING 169
SWIDTH 675 0
DWIDTH 22 0
BBX 20 21 1 3
BITMAP
01F800
0FFE00
1E0F80
38F3C0
71F9C0
63F8E0
E3B860
C3B870
C3B870
C38030
C38030
C3BC30
C3BC70
E3BC70
E3F860
61F8E0
70F1C0
3803C0
1E0F80
0FFE00
03F800
ENDCHAR
STARTCHAR ordfeminine
ENCODING 170
SWIDTH 392 0
DWIDTH 13 0
BBX 11 19 1 13
BITMAP
3F00
7F80
FFC0
FFE0
F3E0
F3E0
03E0
07E0
1FE0
7FE0
FBE0
F3E0
F3E0
F3E0
F3E0
F3E0
FFE0
FFE0
7BE0
ENDCHAR
STARTCHAR guillemotleft
ENCODING 171
SWIDTH 578 0
DWIDTH 19 0
BBX 17 16 1 4
BITMAP
010080
030180
0F0780
3F1F80
FF7F80
FF7F80
FE7F00
F07800
F07800
FC7E00
FF7F80
FF7F80
3F1F80
1F0F80
070380
010080
ENDCHAR
STARTCHAR logicalnot
ENCODING 172
SWIDTH 404 0
DWIDTH 13 0
BBX 11 8 1 8
BITMAP
FFE0
FFE0
FFE0
03E0
03E0
03E0
03E0
03E0
ENDCHAR
STARTCHAR uni00AD
ENCODING 173
SWIDTH 293 0
DWIDTH 9 0
BBX 8 4 1 8
BITMAP
FF
FF
FF
FF
ENDCHAR
STARTCHAR registered
ENCODING 174
SWIDTH 675 0
DWIDTH 22 0
BBX 20 21 1 3
BITMAP
01F800
0FFE00
1E0F80
3803C0
73F9C0
63F8E0
E3F860
C39C70
C39870
C3F830
C3F030
C3B830
C3B870
E3B870
E3B860
63B8E0
73B9C0
3803C0
1E0F80
0FFE00
03F800
ENDCHAR
STARTCHAR macron
ENCODING 175
SWIDTH 833 0
DWIDTH 27 0
BBX 10 2 8 26
BITMAP
FFC0
FFC0
ENDCHAR
STARTCHAR degree
ENCODING 176
SWIDTH 389 0
DWIDTH 12 0
BBX 11 11 1 15
BITMAP
1F00
7F80
FFC0
F1C0
E1E0
E1E0
E1E0
F1C0
FFC0
7F80
1F00
ENDCHAR
STARTCHAR plusminus
ENCODING 177
SWIDTH 358 0
DWIDTH 11 0
BBX 10 17 1 0
BITMAP
1E00
1E00
1E00
FFC0
FFC0
FFC0
FFC0
1E00
1E00
1E00
0000
0000
0000
FF00
FF00
FF00
FF00
ENDCHAR
STARTCHAR uni00B2
ENCODING 178
SWIDTH 302 0
DWIDTH 10 0
BBX 8 16 1 12
BITMAP
7C
FE
FF
E7
E7
EF
0F
1E
1E
3C
78
78
F0
FF
FF
FF
ENDCHAR
STARTCHAR uni00B3
ENCODING 179
SWIDTH 298 0
DWIDTH 10 0
BBX 8 16 1 12
BITMAP
7C
FE
FE
EF
EF
0F
1E
1C
1E
0F
EF
EF
EF
FE
FE
38
ENDCHAR
STARTCHAR acute
ENCODING 180
SWIDTH 317 0
DWIDTH 10 0
BBX 8 7 1 25
BITMAP
01
07
1F
7F
FF
FF
F8
ENDCHAR
STARTCHAR uni00B5
ENCODING 181
SWIDTH 490 0
DWIDTH 16 0
BBX 14 27 1 -3
BITMAP
FCFC
FCFC
FCFC
FCFC
FCFC
FCFC
FCFC
FCFC
FCFC
FCFC
FCFC
FCFC
FCFC
FCFC
FCFC
FCFC
FCFC
FCFC
FCFC
FCFC
FFFC
FFFC
FFFC
FEFC
FC00
FC00
FC00
ENDCHAR
STARTCHAR paragraph
ENCODING 182
SWIDTH 498 0
DWIDTH 16 0
BBX 15 25 0 0
BITMAP
07FE
3FFE
7FFE
7FFE
7FDE
FFDE
FFDE
7FDE
7FDE
7FDE
3FDE
1FDE
03DE
03DE
03DE
03DE
03DE
03DE
03DE
03DE
03DE
03DE
03DE
03DE
03DE
ENDCHAR
STARTCHAR periodcentered
ENCODING 183
SWIDTH 234 0
DWIDTH 7 0
BBX 5 4 1 11
BITMAP
F8
F8
F8
F8
ENDCHAR
STARTCHAR cedilla
ENCODING 184
SWIDTH 496 0
DWIDTH 16 0
BBX 8 10 4 -10
BITMAP
38
1C
0E
0E
0F
BF
FF
FF
FE
FC
ENDCHAR
STARTCHAR uni00B9
ENCODING 185
SWIDTH 206 0
DWIDTH 7 0
BBX 6 15 0 13
BITMAP
1C
3C
FC
FC
3C
3C
3C
3C
3C
3C
3C
3C
3C
3C
3C
ENDCHAR
STARTCHAR ordmasculine
ENCODING 186
SWIDTH 397 0
DWIDTH 13 0
BBX 11 20 1 12
BITMAP
1F00
7F80
7FC0
FFE0
FBE0
F3E0
F3E0
F3E0
F3E0
F3E0
F3E0
F3E0
F3E0
F3E0
F3E0
FBE0
FFE0
FFC0
7F80
1F00
ENDCHAR
STARTCHAR guillemotright
ENCODING 187
SWIDTH 578 0
DWIDTH 19 0
BBX 17 16 1 4
BITMAP
808000
C06000
F07800
F87C00
FE7F00
FF7F80
7F3F80
1F0F80
0F0780
3F1F80
FF7F80
FF7F80
FC7E00
F07800
C06000
804000
ENDCHAR
STARTCHAR onequarter
ENCODING 188
SWIDTH 814 0
DWIDTH 26 0
BBX 22 28 2 0
BITMAP
1C07C0
3C0780
FC0780
FC0F80
3C0F00
3C0F00
3C1F00
3C1E00
3C1E00
3C3C00
3C3C00
3C3C00
3C3800
3C78F8
3C78F8
0071F8
00F1F8
00E1B8
00E3B8
01E3B8
01C3B8
01C3B8
03C738
0387FC
0387FC
0707FC
070038
070038
ENDCHAR
STARTCHAR onehalf
ENCODING 189
SWIDTH 861 0
DWIDTH 28 0
BBX 23 29 2 -1
BITMAP
1C03C0
3C07C0
FC0780
FC0780
3C0F80
3C0F00
3C0F00
3C1E00
3C1E00
3C1E00
3C3C00
3C3C00
3C3800
3C7878
3C78FC
0071FE
00F1CE
00F1CE
00E1CE
01E01E
01C01E
01C03C
03C078
0380F8
0380F0
0781E0
0701FE
0701FE
0001FE
ENDCHAR
STARTCHAR threequarters
ENCODING 190
SWIDTH 854 0
DWIDTH 27 0
BBX 23 28 2 0
BITMAP
3E01F0
7F01E0
7F03E0
F703C0
F703C0
0707C0
0F0780
0E0780
0F0F00
070F00
F70F00
F71E00
F71E00
7F1C7C
7F3C7C
3C3C7C
0038FC
0078FC
0078FC
0070DC
00F1DC
00E1DC
00E1DC
01E3FE
01C3FE
01C3FE
01C01C
03801C
ENDCHAR
STARTCHAR questiondown
ENCODING 191
SWIDTH 493 0
DWIDTH 16 0
BBX 14 28 1 -2
BITMAP
01F8
01F8
01F8
01F8
0000
0000
0000
00F8
00F8
00F8
0FF8
1FF8
3FF8
7FF8
FF00
FE00
FC00
FC00
FCFC
FCFC
FCFC
FCFC
FCFC
FFFC
FFFC
7FF8
3FF0
0FC0
ENDCHAR
STARTCHAR Agrave
ENCODING 192
SWIDTH 485 0
DWIDTH 16 0
BBX 15 36 0 0
BITMAP
0800
0C00
0F80
0FE0
0FE0
0FE0
01E0
0000
1FF8
1FF8
1FF8
1FF8
1FF8
1FF8
1EF8
3EF8
3EF8
3EF8
3EF8
3EFC
3E7C
3E7C
3E7C
3E7C
3E7C
7E7C
7E7C
7FFC
7FFC
7FFC
7FFE
7C7E
7C3E
7C3E
7C3E
FC3E
ENDCHAR
STARTCHAR Aacute
ENCODING 193
SWIDTH 485 0
DWIDTH 16 0
BBX 15 36 0 0
BITMAP
0010
0060
01E0
07E0
0FE0
0FE0
0F80
0000
1FF8
1FF8
1FF8
1FF8
1FF8
1FF8
1EF8
3EF8
3EF8
3EF8
3EF8
3EFC
3E7C
3E7C
3E7C
3E7C
3E7C
7E7C
7E7C
7FFC
7FFC
7FFC
7FFE
7C7E
7C3E
7C3E
7C3E
FC3E
ENDCHAR
STARTCHAR Acircumflex
ENCODING 194
SWIDTH 485 0
DWIDTH 16 0
BBX 15 35 0 0
BITMAP
0FE0
0FF0
1FF0
3EF8
3E7C
7E7E
0000
1FF8
1FF8
1FF8
1FF8
1FF8
1FF8
1EF8
3EF8
3EF8
3EF8
3EF8
3EFC
3E7C
3E7C
3E7C
3E7C
3E7C
7E7C
7E7C
7FFC
7FFC
7FFC
7FFE
7C7E
7C3E
7C3E
7C3E
FC3E
ENDCHAR
STARTCHAR Atilde
ENCODING 195
SWIDTH 485 0
DWIDTH 16 0
BBX 15 35 0 0
BITMAP
1F9C
3FFC
3FF8
7FF8
11F0
0000
0000
1FF8
1FF8
1FF8
1FF8
1FF8
1FF8
1EF8
3EF8
3EF8
3EF8
3EF8
3EFC
3E7C
3E7C
3E7C
3E7C
3E7C
7E7C
7E7C
7FFC
7FFC
7FFC
7FFE
7C7E
7C3E
7C3E
7C3E
FC3E
ENDCHAR
STARTCHAR Adieresis
ENCODING 196
SWIDTH 485 0
DWIDTH 16 0
BBX 15 33 0 0
BITMAP
7E7C
7E7C
7E7C
7E7C
0000
1FF8
1FF8
1FF8
1FF8
1FF8
1FF8
1EF8
3EF8
3EF8
3EF8
3EF8
3EFC
3E7C
3E7C
3E7C
3E7C
3E7C
7E7C
7E7C
7FFC
7FFC
7FFC
7FFE
7C7E
7C3E
7C3E
7C3E
FC3E
ENDCHAR
STARTCHAR Aring
ENCODING 197
SWIDTH 485 0
DWIDTH 16 0
BBX 15 40 0 0
BITMAP
07C0
0FF0
1FF8
3C78
3C38
3C38
3C38
3C78
1FF8
0FF0
07C0
0000
1FF8
1FF8
1FF8
1FF8
1FF8
1FF8
1EF8
3EF8
3EF8
3EF8
3EF8
3EFC
3E7C
3E7C
3E7C
3E7C
3E7C
7E7C
7E7C
7FFC
7FFC
7FFC
7FFE
7C7E
7C3E
7C3E
7C3E
FC3E
ENDCHAR
STARTCHAR AE
ENCODING 198
SWIDTH 640 0
DWIDTH 20 0
BBX 21 28 -1 0
BITMAP
07FFF8
07FFF8
07FFF8
07FFF8
07DF00
0FDF00
0FDF00
0F9F00
0F9F00
0F9F00
1F9F00
1F9F00
1F9FF0
1F9FF0
1F1FF0
1F1FF0
3FFF00
3FFF00
3FFF00
3FFF00
3E1F00
7E1F00
7E1F00
7E1F00
7E1FF8
7E1FF8
7E1FF8
FC1FF8
ENDCHAR
STARTCHAR Ccedilla
ENCODING 199
SWIDTH 474 0
DWIDTH 15 0
BBX 14 38 1 -10
BITMAP
0FC0
3FE0
7FF0
7FF8
FFF8
FCF8
FCFC
F8FC
F8FC
F8FC
F8FC
F800
F800
F800
F800
F800
F8FC
F8FC
F8FC
F8FC
F8FC
F8FC
FCF8
FFF8
7FF8
7FF8
3FF0
0FC0
0300
0380
03C0
01C0
01E0
03E0
1FE0
1FE0
1FC0
1F80
ENDCHAR
STARTCHAR Egrave
ENCODING 200
SWIDTH 412 0
DWIDTH 13 0
BBX 12 36 1 0
BITMAP
2000
3800
3E00
3F80
3FC0
3FC0
07C0
0000
FFE0
FFE0
FFE0
FFE0
FFE0
FC00
FC00
FC00
FC00
FC00
FC00
FFE0
FFE0
FFE0
FFE0
FFE0
FC00
FC00
FC00
FC00
FC00
FC00
FC00
FFF0
FFF0
FFF0
FFF0
FFF0
ENDCHAR
STARTCHAR Eacute
ENCODING 201
SWIDTH 412 0
DWIDTH 13 0
BBX 12 36 1 0
BITMAP
0040
01C0
07C0
1FC0
3FC0
3FC0
3E00
0000
FFE0
FFE0
FFE0
FFE0
FFE0
FC00
FC00
FC00
FC00
FC00
FC00
FFE0
FFE0
FFE0
FFE0
FFE0
FC00
FC00
FC00
FC00
FC00
FC00
FC00
FFF0
FFF0
FFF0
FFF0
FFF0
ENDCHAR
STARTCHAR Ecircumflex
ENCODING 202
SWIDTH 412 0
DWIDTH 13 0
BBX 14 35 0 0
BITMAP
1FC0
1FE0
3FF0
3DF0
7CF8
FCFC
0000
7FF0
7FF0
7FF0
7FF0
7FF0
7E00
7E00
7E00
7E00
7E00
7E00
7FF0
7FF0
7FF0
7FF0
7FF0
7E00
7E00
7E00
7E00
7E00
7E00
7E00
7FF8
7FF8
7FF8
7FF8
7FF8
ENDCHAR
STARTCHAR Edieresis
ENCODING 203
SWIDTH 412 0
DWIDTH 13 0
BBX 13 33 0 0
BITMAP
FCF8
FCF8
FCF8
FCF8
0000
7FF0
7FF0
7FF0
7FF0
7FF0
7E00
7E00
7E00
7E00
7E00
7E00
7FF0
7FF0
7FF0
7FF0
7FF0
7E00
7E00
7E00
7E00
7E00
7E00
7E00
7FF8
7FF8
7FF8
7FF8
7FF8
ENDCHAR
STARTCHAR Igrave
ENCODING 204
SWIDTH 227 0
DWIDTH 7 0
BBX 7 36 0 0
BITMAP
80
C0
F0
FE
FE
FE
1E
00
7C
7C
7C
7C
7C
7C
7C
7C
7C
7C
7C
7C
7C
7C
7C
7C
7C
7C
7C
7C
7C
7C
7C
7C
7C
7C
7C
7C
ENDCHAR
STARTCHAR Iacute
ENCODING 205
SWIDTH 227 0
DWIDTH 7 0
BBX 7 36 0 0
BITMAP
02
06
1E
7E
FE
FE
F0
00
7C
7C
7C
7C
7C
7C
7C
7C
7C
7C
7C
7C
7C
7C
7C
7C
7C
7C
7C
7C
7C
7C
7C
7C
7C
7C
7C
7C
ENDCHAR
STARTCHAR Icircumflex
ENCODING 206
SWIDTH 227 0
DWIDTH 7 0
BBX 14 35 -3 0
BITMAP
1FC0
3FE0
3DE0
7DF0
7DF8
F8FC
0000
0F80
0F80
0F80
0F80
0F80
0F80
0F80
0F80
0F80
0F80
0F80
0F80
0F80
0F80
0F80
0F80
0F80
0F80
0F80
0F80
0F80
0F80
0F80
0F80
0F80
0F80
0F80
0F80
ENDCHAR
STARTCHAR Idieresis
ENCODING 207
SWIDTH 227 0
DWIDTH 7 0
BBX 13 33 -3 0
BITMAP
FCF8
FCF8
FCF8
FCF8
0000
0F80
0F80
0F80
0F80
0F80
0F80
0F80
0F80
0F80
0F80
0F80
0F80
0F80
0F80
0F80
0F80
0F80
0F80
0F80
0F80
0F80
0F80
0F80
0F80
0F80
0F80
0F80
0F80
ENDCHAR
STARTCHAR Eth
ENCODING 208
SWIDTH 493 0
DWIDTH 16 0
BBX 15 28 0 0
BITMAP
7FF0
7FF8
7FFC
7FFC
7EFE
7E7E
7E7E
7E7E
7E7E
7E7E
7E7E
FF7E
FF7E
FF7E
FF7E
7E7E
7E7E
7E7E
7E7E
7E7E
7E7E
7E7E
7E7E
7EFC
7FFC
7FFC
7FF8
7FE0
ENDCHAR
STARTCHAR Ntilde
ENCODING 209
SWIDTH 498 0
DWIDTH 16 0
BBX 14 35 1 0
BITMAP
1F9C
3FF8
7FF8
7FF0
21F0
0000
0000
FCFC
FCFC
FCFC
FEFC
FEFC
FEFC
FEFC
FEFC
FEFC
FFFC
FFFC
FFFC
FFFC
FFFC
FFFC
FFFC
FFFC
FFFC
FFFC
FDFC
FDFC
FDFC
FDFC
FDFC
FCFC
FCFC
FCFC
FCFC
ENDCHAR
STARTCHAR Ograve
ENCODING 210
SWIDTH 486 0
DWIDTH 16 0
BBX 14 36 1 0
BITMAP
1000
1800
1F00
1FC0
1FE0
1FE0
03E0
0000
0FC0
3FE0
7FF0
7FF8
FFF8
FCF8
F8FC
F8FC
F8FC
F8FC
F8FC
F8FC
F8FC
F8FC
F8FC
F8FC
F8FC
F8FC
F8FC
F8FC
F8FC
F8FC
FCF8
FFF8
7FF8
7FF0
3FE0
0FC0
ENDCHAR
STARTCHAR Oacute
ENCODING 211
SWIDTH 486 0
DWIDTH 16 0
BBX 14 36 1 0
BITMAP
0020
00C0
03C0
0FC0
1FC0
1FC0
1F00
0000
0FC0
3FE0
7FF0
7FF8
FFF8
FCF8
F8FC
F8FC
F8FC
F8FC
F8FC
F8FC
F8FC
F8FC
F8FC
F8FC
F8FC
F8FC
F8FC
F8FC
F8FC
F8FC
FCF8
FFF8
7FF8
7FF0
3FE0
0FC0
ENDCHAR
STARTCHAR Ocircumflex
ENCODING 212
SWIDTH 486 0
DWIDTH 16 0
BBX 14 35 1 0
BITMAP
1FC0
1FE0
3FF0
7DF0
7CF8
FCFC
0000
0FC0
3FE0
7FF0
7FF8
FFF8
FCF8
F8FC
F8FC
F8FC
F8FC
F8FC
F8FC
F8FC
F8FC
F8FC
F8FC
F8FC
F8FC
F8FC
F8FC
F8FC
F8FC
FCF8
FFF8
7FF8
7FF0
3FE0
0FC0
ENDCHAR
STARTCHAR Otilde
ENCODING 213
SWIDTH 486 0
DWIDTH 16 0
BBX 14 35 1 0
BITMAP
3F38
7FF8
7FF8
FFF0
23E0
0000
0000
0FC0
3FE0
7FF0
7FF8
FFF8
FCF8
F8FC
F8FC
F8FC
F8FC
F8FC
F8FC
F8FC
F8FC
F8FC
F8FC
F8FC
F8FC
F8FC
F8FC
F8FC
F8FC
FCF8
FFF8
7FF8
7FF0
3FE0
0FC0
ENDCHAR
STARTCHAR Odieresis
ENCODING 214
SWIDTH 486 0
DWIDTH 16 0
BBX 14 33 1 0
BITMAP
FCF8
FCF8
FCF8
FCF8
0000
0FC0
3FE0
7FF0
7FF8
FFF8
FCF8
F8FC
F8FC
F8FC
F8FC
F8FC
F8FC
F8FC
F8FC
F8FC
F8FC
F8FC
F8FC
F8FC
F8FC
F8FC
F8FC
FCF8
FFF8
7FF8
7FF0
3FE0
0FC0
ENDCHAR
STARTCHAR multiply
ENCODING 215
SWIDTH 347 0
DWIDTH 11 0
BBX 9 10 1 5
BITMAP
2200
7300
FF80
FF80
7F00
3E00
7F00
FF80
7700
2200
ENDCHAR
STARTCHAR Oslash
ENCODING 216
SWIDTH 482 0
DWIDTH 15 0
BBX 14 34 1 -2
BITMAP
0020
0030
0030
0030
0FE0
3FE0
7FF0
7FF8
FFF8
FCF8
F8F8
F8FC
F8FC
F8FC
F8FC
F8FC
F8FC
F8FC
F8FC
F8FC
F8FC
F8FC
F8FC
F8FC
F8FC
F8F8
FCF8
FFF8
7FF8
7FF0
3FE0
3FC0
6000
6000
ENDCHAR
STARTCHAR Ugrave
ENCODING 217
SWIDTH 474 0
DWIDTH 15 0
BBX 13 36 1 0
BITMAP
2000
1800
1E00
1FC0
1FC0
1FC0
03C0
0000
F8F8
F8F8
F8F8
F8F8
F8F8
F8F8
F8F8
F8F8
F8F8
F8F8
F8F8
F8F8
F8F8
F8F8
F8F8
F8F8
F8F8
F8F8
F8F8
F8F8
F8F8
F8F8
FCF8
FFF8
7FF8
7FF0
3FE0
0FC0
ENDCHAR
STARTCHAR Uacute
ENCODING 218
SWIDTH 474 0
DWIDTH 15 0
BBX 13 36 1 0
BITMAP
0020
00C0
03C0
0FC0
1FC0
1FC0
1E00
0000
F8F8
F8F8
F8F8
F8F8
F8F8
F8F8
F8F8
F8F8
F8F8
F8F8
F8F8
F8F8
F8F8
F8F8
F8F8
F8F8
F8F8
F8F8
F8F8
F8F8
F8F8
F8F8
FCF8
FFF8
7FF8
7FF0
3FE0
0FC0
ENDCHAR
STARTCHAR Ucircumflex
ENCODING 219
SWIDTH 474 0
DWIDTH 15 0
BBX 14 35 1 0
BITMAP
1FC0
3FE0
3DE0
7DF0
7DF8
F8FC
0000
F8F8
F8F8
F8F8
F8F8
F8F8
F8F8
F8F8
F8F8
F8F8
F8F8
F8F8
F8F8
F8F8
F8F8
F8F8
F8F8
F8F8
F8F8
F8F8
F8F8
F8F8
F8F8
FCF8
FFF8
7FF8
7FF0
3FE0
0FC0
ENDCHAR
STARTCHAR Udieresis
ENCODING 220
SWIDTH 474 0
DWIDTH 15 0
BBX 13 33 1 0
BITMAP
FDF8
FDF8
FDF8
FDF8
0000
F8F8
F8F8
F8F8
F8F8
F8F8
F8F8
F8F8
F8F8
F8F8
F8F8
F8F8
F8F8
F8F8
F8F8
F8F8
F8F8
F8F8
F8F8
F8F8
F8F8
F8F8
F8F8
FCF8
FFF8
7FF8
7FF0
3FE0
0FC0
ENDCHAR
STARTCHAR Yacute
ENCODING 221
SWIDTH 446 0
DWIDTH 14 0
BBX 14 36 0 0
BITMAP
0020
00E0
03E0
0FE0
1FE0
1FE0
1F00
0000
FC7C
7CFC
7CFC
7CF8
7CF8
7CF8
3EF8
3FF0
3FF0
3FF0
1FF0
1FE0
1FE0
1FE0
0FE0
0FE0
0FC0
0FC0
0FC0
07C0
07C0
07C0
07C0
07C0
07C0
07C0
07C0
07C0
ENDCHAR
STARTCHAR Thorn
ENCODING 222
SWIDTH 462 0
DWIDTH 15 0
BBX 13 28 1 0
BITMAP
F800
F800
F800
F800
FFC0
FFE0
FFF0
FFF8
F9F8
F8F8
F8F8
F8F8
F8F8
F8F8
F8F8
F8F8
F9F8
FFF8
FFF0
FFF0
FFC0
F800
F800
F800
F800
F800
F800
F800
ENDCHAR
STARTCHAR germandbls
ENCODING 223
SWIDTH 492 0
DWIDTH 16 0
BBX 14 28 1 0
BITMAP
1FC0
7FF0
7FF0
FFF8
FDF8
F8F8
F8F8
F8F8
F8F8
F9F8
FBF8
FBF0
FBF0
FBF8
F9FC
F87C
F87C
F87C
F87C
F87C
F87C
F87C
F87C
F9FC
FBF8
FBF8
FBF0
FBE0
ENDCHAR
STARTCHAR agrave
ENCODING 224
SWIDTH 483 0
DWIDTH 15 0
BBX 13 32 1 0
BITMAP
1000
1C00
1F00
1FC0
1FE0
1FE0
03E0
0000
1FC0
3FF0
7FF0
FFF8
FDF8
F8F8
F8F8
00F8
00F8
03F8
1FF8
7FF8
7CF8
FCF8
F8F8
F8F8
F8F8
F8F8
F8F8
FDF8
FFF8
FFF8
7EF8
3CF8
ENDCHAR
STARTCHAR aacute
ENCODING 225
SWIDTH 483 0
DWIDTH 15 0
BBX 13 32 1 0
BITMAP
0020
00E0
03E0
0FE0
1FE0
1FE0
1F00
0000
1FC0
3FF0
7FF0
FFF8
FDF8
F8F8
F8F8
00F8
00F8
03F8
1FF8
7FF8
7CF8
FCF8
F8F8
F8F8
F8F8
F8F8
F8F8
FDF8
FFF8
FFF8
7EF8
3CF8
ENDCHAR
STARTCHAR acircumflex
ENCODING 226
SWIDTH 483 0
DWIDTH 15 0
BBX 14 31 1 0
BITMAP
1FC0
1FE0
3FF0
7DF0
7CF8
FCFC
0000
1FC0
3FF0
7FF0
FFF8
FDF8
F8F8
F8F8
00F8
00F8
03F8
1FF8
7FF8
7CF8
FCF8
F8F8
F8F8
F8F8
F8F8
F8F8
FDF8
FFF8
FFF8
7EF8
3CF8
ENDCHAR
STARTCHAR atilde
ENCODING 227
SWIDTH 483 0
DWIDTH 15 0
BBX 13 31 1 0
BITMAP
3F38
3FF8
7FF8
FFF0
23E0
0000
0000
1FC0
3FF0
7FF0
FFF8
FDF8
F8F8
F8F8
00F8
00F8
03F8
1FF8
7FF8
7CF8
FCF8
F8F8
F8F8
F8F8
F8F8
F8F8
FDF8
FFF8
FFF8
7EF8
3CF8
ENDCHAR
STARTCHAR adieresis
ENCODING 228
SWIDTH 483 0
DWIDTH 15 0
BBX 13 29 1 0
BITMAP
FCF8
FCF8
FCF8
FCF8
0000
1FC0
3FF0
7FF0
FFF8
FDF8
F8F8
F8F8
00F8
00F8
03F8
1FF8
7FF8
7CF8
FCF8
F8F8
F8F8
F8F8
F8F8
F8F8
FDF8
FFF8
FFF8
7EF8
3CF8
ENDCHAR
STARTCHAR aring
ENCODING 229
SWIDTH 483 0
DWIDTH 15 0
BBX 13 36 1 0
BITMAP
0780
1FE0
3FF0
3CF0
7870
7870
7870
38F0
3FF0
1FE0
0FC0
0000
1FC0
3FF0
7FF0
FFF8
FDF8
F8F8
F8F8
00F8
00F8
03F8
1FF8
7FF8
7CF8
FCF8
F8F8
F8F8
F8F8
F8F8
F8F8
FDF8
FFF8
FFF8
7EF8
3CF8
ENDCHAR
STARTCHAR ae
ENCODING 230
SWIDTH 731 0
DWIDTH 23 0
BBX 22 24 1 0
BITMAP
1F8FC0
3FDFF0
7FFFF8
FFFFF8
FDFDF8
F8FCFC
F8F8FC
00F8FC
01F8FC
0FFFFC
3FFFFC
7FFFFC
FCFFFC
FCF800
F8F800
F8F8FC
F8F8FC
F8F8FC
F8FCF8
FDFDF8
FFFFF8
7FFFF8
3FDFF0
1F87C0
ENDCHAR
STARTCHAR ccedilla
ENCODING 231
SWIDTH 491 0
DWIDTH 16 0
BBX 14 34 1 -10
BITMAP
0FC0
3FF0
7FF8
7FF8
FEFC
FCFC
FCFC
FCFC
FCFC
FCFC
FC00
FC00
FC00
FC00
FCFC
FCFC
FCFC
FCFC
FCFC
FCFC
7FF8
7FF8
3FF0
0FC0
0380
0380
01C0
01E0
01E0
01E0
0FE0
0FE0
0FE0
0FC0
ENDCHAR
STARTCHAR egrave
ENCODING 232
SWIDTH 488 0
DWIDTH 16 0
BBX 14 32 1 0
BITMAP
1000
1C00
1F00
1FC0
1FE0
1FE0
03E0
0000
0FC0
3FF0
7FF8
FFF8
FDF8
FCFC
FCFC
FCFC
FCFC
FCFC
FFFC
FFFC
FFFC
FC00
FC00
FCFC
FCFC
FCFC
FCFC
FDF8
7FF8
7FF8
3FF0
0FC0
ENDCHAR
STARTCHAR eacute
ENCODING 233
SWIDTH 488 0
DWIDTH 16 0
BBX 14 32 1 0
BITMAP
0020
00E0
03E0
0FE0
1FE0
1FE0
1F00
0000
0FC0
3FF0
7FF8
FFF8
FDF8
FCFC
FCFC
FCFC
FCFC
FCFC
FFFC
FFFC
FFFC
FC00
FC00
FCFC
FCFC
FCFC
FCFC
FDF8
7FF8
7FF8
3FF0
0FC0
ENDCHAR
STARTCHAR ecircumflex
ENCODING 234
SWIDTH 488 0
DWIDTH 16 0
BBX 14 31 1 0
BITMAP
1FC0
1FE0
3FF0
3CF0
7CF8
FCFC
0000
0FC0
3FF0
7FF8
FFF8
FDF8
FCFC
FCFC
FCFC
FCFC
FCFC
FFFC
FFFC
FFFC
FC00
FC00
FCFC
FCFC
FCFC
FCFC
FDF8
7FF8
7FF8
3FF0
0FC0
ENDCHAR
STARTCHAR edieresis
ENCODING 235
SWIDTH 488 0
DWIDTH 16 0
BBX 14 29 1 0
BITMAP
FCF8
FCF8
FCF8
FCF8
0000
0FC0
3FF0
7FF8
FFF8
FDF8
FCFC
FCFC
FCFC
FCFC
FCFC
FFFC
FFFC
FFFC
FC00
FC00
FCFC
FCFC
FCFC
FCFC
FDF8
7FF8
7FF8
3FF0
0FC0
ENDCHAR
STARTCHAR igrave
ENCODING 236
SWIDTH 235 0
DWIDTH 8 0
BBX 8 32 0 0
BITMAP
80
C0
F8
FE
FF
FF
1F
00
7E
7E
7E
7E
7E
7E
7E
7E
7E
7E
7E
7E
7E
7E
7E
7E
7E
7E
7E
7E
7E
7E
7E
7E
ENDCHAR
STARTCHAR iacute
ENCODING 237
SWIDTH 235 0
DWIDTH 8 0
BBX 7 32 0 0
BITMAP
02
06
1E
7E
FE
FE
F8
00
7E
7E
7E
7E
7E
7E
7E
7E
7E
7E
7E
7E
7E
7E
7E
7E
7E
7E
7E
7E
7E
7E
7E
7E
ENDCHAR
STARTCHAR icircumflex
ENCODING 238
SWIDTH 235 0
DWIDTH 8 0
BBX 14 31 -3 0
BITMAP
1FC0
1FE0
3FF0
7DF0
7CF8
FCFC
0000
0FC0
0FC0
0FC0
0FC0
0FC0
0FC0
0FC0
0FC0
0FC0
0FC0
0FC0
0FC0
0FC0
0FC0
0FC0
0FC0
0FC0
0FC0
0FC0
0FC0
0FC0
0FC0
0FC0
0FC0
ENDCHAR
STARTCHAR idieresis
ENCODING 239
SWIDTH 235 0
DWIDTH 8 0
BBX 13 29 -3 0
BITMAP
FCF8
FCF8
FCF8
FCF8
0000
0FC0
0FC0
0FC0
0FC0
0FC0
0FC0
0FC0
0FC0
0FC0
0FC0
0FC0
0FC0
0FC0
0FC0
0FC0
0FC0
0FC0
0FC0
0FC0
0FC0
0FC0
0FC0
0FC0
0FC0
ENDCHAR
STARTCHAR eth
ENCODING 240
SWIDTH 503 0
DWIDTH 16 0
BBX 15 28 1 0
BITMAP
7800
7E0C
7F1C
FFFE
1FF8
07F0
07F0
1FF8
1FF8
0CF8
00FC
007C
1FFC
3FFC
7FFC
FFFC
FEFC
FC7C
FC7C
FC7C
FC7C
FC7C
FC7C
FEFC
FFFC
7FF8
3FF0
0FC0
ENDCHAR
STARTCHAR ntilde
ENCODING 241
SWIDTH 499 0
DWIDTH 16 0
BBX 14 31 1 0
BITMAP
1F38
3FF8
7FF8
7FF0
21E0
0000
0000
FDF0
FFF8
FFF8
FFFC
FCFC
FCFC
FCFC
FCFC
FCFC
FCFC
FCFC
FCFC
FCFC
FCFC
FCFC
FCFC
FCFC
FCFC
FCFC
FCFC
FCFC
FCFC
FCFC
FCFC
ENDCHAR
STARTCHAR ograve
ENCODING 242
SWIDTH 497 0
DWIDTH 16 0
BBX 14 32 1 0
BITMAP
1000
1C00
1F00
1FC0
1FE0
1FE0
03E0
0000
0FC0
3FF0
7FF8
7FF8
FDFC
FCFC
FCFC
FCFC
FCFC
FCFC
FCFC
FCFC
FCFC
FCFC
FCFC
FCFC
FCFC
FCFC
FCFC
FFFC
7FF8
7FF8
3FF0
0FC0
ENDCHAR
STARTCHAR oacute
ENCODING 243
SWIDTH 497 0
DWIDTH 16 0
BBX 14 32 1 0
BITMAP
0020
00E0
03E0
0FE0
1FE0
1FE0
1F00
0000
0FC0
3FF0
7FF8
7FF8
FDFC
FCFC
FCFC
FCFC
FCFC
FCFC
FCFC
FCFC
FCFC
FCFC
FCFC
FCFC
FCFC
FCFC
FCFC
FFFC
7FF8
7FF8
3FF0
0FC0
ENDCHAR
STARTCHAR ocircumflex
ENCODING 244
SWIDTH 497 0
DWIDTH 16 0
BBX 14 31 1 0
BITMAP
1FC0
1FE0
3FF0
3DF0
7CF8
FCFC
0000
0FC0
3FF0
7FF8
7FF8
FDFC
FCFC
FCFC
FCFC
FCFC
FCFC
FCFC
FCFC
FCFC
FCFC
FCFC
FCFC
FCFC
FCFC
FCFC
FFFC
7FF8
7FF8
3FF0
0FC0
ENDCHAR
STARTCHAR otilde
ENCODING 245
SWIDTH 497 0
DWIDTH 16 0
BBX 14 31 1 0
BITMAP
1F38
3FF8
7FF8
FFF0
23E0
0000
0000
0FC0
3FF0
7FF8
7FF8
FDFC
FCFC
FCFC
FCFC
FCFC
FCFC
FCFC
FCFC
FCFC
FCFC
FCFC
FCFC
FCFC
FCFC
FCFC
FFFC
7FF8
7FF8
3FF0
0FC0
ENDCHAR
STARTCHAR odieresis
ENCODING 246
SWIDTH 497 0
DWIDTH 16 0
BBX 14 29 1 0
BITMAP
FCF8
FCF8
FCF8
FCF8
0000
0FC0
3FF0
7FF8
7FF8
FDFC
FCFC
FCFC
FCFC
FCFC
FCFC
FCFC
FCFC
FCFC
FCFC
FCFC
FCFC
FCFC
FCFC
FCFC
FFFC
7FF8
7FF8
3FF0
0FC0
ENDCHAR
STARTCHAR divide
ENCODING 247
SWIDTH 334 0
DWIDTH 11 0
BBX 9 16 1 4
BITMAP
3E00
3E00
3E00
3E00
0000
0000
FF80
FF80
FF80
FF80
0000
0000
3E00
3E00
3E00
3E00
ENDCHAR
STARTCHAR oslash
ENCODING 248
SWIDTH 483 0
DWIDTH 15 0
BBX 14 29 1 -3
BITMAP
000C
001C
0FD8
3FF8
7FF8
7FF8
FDFC
FCFC
FCFC
FCFC
FCFC
FCFC
FCFC
FCFC
FCFC
FCFC
FCFC
FCFC
FCFC
FCFC
FCFC
FFFC
7FF8
7FF8
3FF0
7FC0
6000
E000
2000
ENDCHAR
STARTCHAR ugrave
ENCODING 249
SWIDTH 499 0
DWIDTH 16 0
BBX 14 32 1 0
BITMAP
1000
1C00
1F00
1FC0
1FE0
1FE0
03E0
0000
FCFC
FCFC
FCFC
FCFC
FCFC
FCFC
FCFC
FCFC
FCFC
FCFC
FCFC
FCFC
FCFC
FCFC
FCFC
FCFC
FCFC
FCFC
FCFC
FCFC
FFFC
7FFC
7FFC
3EFC
ENDCHAR
STARTCHAR uacute
ENCODING 250
SWIDTH 499 0
DWIDTH 16 0
BBX 14 32 1 0
BITMAP
0020
00E0
03E0
0FE0
1FE0
1FE0
1F00
0000
FCFC
FCFC
FCFC
FCFC
FCFC
FCFC
FCFC
FCFC
FCFC
FCFC
FCFC
FCFC
FCFC
FCFC
FCFC
FCFC
FCFC
FCFC
FCFC
FCFC
FFFC
7FFC
7FFC
3EFC
ENDCHAR
STARTCHAR ucircumflex
ENCODING 251
SWIDTH 499 0
DWIDTH 16 0
BBX 14 31 1 0
BITMAP
1FC0
1FE0
3FF0
3CF0
7CF8
FCFC
0000
FCFC
FCFC
FCFC
FCFC
FCFC
FCFC
FCFC
FCFC
FCFC
FCFC
FCFC
FCFC
FCFC
FCFC
FCFC
FCFC
FCFC
FCFC
FCFC
FCFC
FFFC
7FFC
7FFC
3EFC
ENDCHAR
STARTCHAR udieresis
ENCODING 252
SWIDTH 499 0
DWIDTH 16 0
BBX 14 29 1 0
BITMAP
FCF8
FCF8
FCF8
FCF8
0000
FCFC
FCFC
FCFC
FCFC
FCFC
FCFC
FCFC
FCFC
FCFC
FCFC
FCFC
FCFC
FCFC
FCFC
FCFC
FCFC
FCFC
FCFC
FCFC
FCFC
FFFC
7FFC
7FFC
3EFC
ENDCHAR
STARTCHAR yacute
ENCODING 253
SWIDTH 461 0
DWIDTH 15 0
BBX 14 36 0 -4
BITMAP
0020
0060
01E0
0FE0
0FE0
0FE0
0F00
0000
FC7C
FC7C
7C7C
7C7C
7C7C
7CF8
7CF8
7CF8
3CF8
3CF8
3EF8
3EF0
3EF0
3EF0
1FF0
1FF0
1FF0
1FE0
1FE0
1FE0
1FE0
0FE0
0FE0
0FC0
7FC0
7FC0
7FC0
7F80
ENDCHAR
STARTCHAR thorn
ENCODING 254
SWIDTH 492 0
DWIDTH 16 0
BBX 14 31 1 -3
BITMAP
FC00
FC00
FC00
FC00
FDE0
FFF8
FFF8
FFFC
FCFC
FCFC
FCFC
FCFC
FCFC
FCFC
FCFC
FCFC
FCFC
FCFC
FCFC
FCFC
FCFC
FCFC
FCFC
FFFC
FFFC
FFF8
FFF8
FDE0
FC00
FC00
FC00
ENDCHAR
STARTCHAR ydieresis
ENCODING 255
SWIDTH 461 0
DWIDTH 15 0
BBX 14 33 0 -4
BITMAP
7CFC
7CFC
7CFC
7CFC
0000
FC7C
FC7C
7C7C
7C7C
7C7C
7CF8
7CF8
7CF8
3CF8
3CF8
3EF8
3EF0
3EF0
3EF0
1FF0
1FF0
1FF0
1FE0
1FE0
1FE0
1FE0
0FE0
0FE0
0FC0
7FC0
7FC0
7FC0
7F80
ENDCHAR
STARTCHAR Amacron
ENCODING 256
SWIDTH 485 0
DWIDTH 16 0
BBX 15 32 0 0
BITMAP
1FF8
1FF8
0000
0000
1FF8
1FF8
1FF8
1FF8
1FF8
1FF8
1EF8
3EF8
3EF8
3EF8
3EF8
3EFC
3E7C
3E7C
3E7C
3E7C
3E7C
7E7C
7E7C
7FFC
7FFC
7FFC
7FFE
7C7E
7C3E
7C3E
7C3E
FC3E
ENDCHAR
STARTCHAR amacron
ENCODING 257
SWIDTH 483 0
DWIDTH 15 0
BBX 13 28 1 0
BITMAP
3FF0
3FF0
0000
0000
1FC0
3FF0
7FF0
FFF8
FDF8
F8F8
F8F8
00F8
00F8
03F8
1FF8
7FF8
7CF8
FCF8
F8F8
F8F8
F8F8
F8F8
F8F8
FDF8
FFF8
FFF8
7EF8
3CF8
ENDCHAR
STARTCHAR Abreve
ENCODING 258
SWIDTH 485 0
DWIDTH 16 0
BBX 15 35 0 0
BITMAP
3C3C
3E7C
3FFC
3FF8
1FF8
07E0
0000
1FF8
1FF8
1FF8
1FF8
1FF8
1FF8
1EF8
3EF8
3EF8
3EF8
3EF8
3EFC
3E7C
3E7C
3E7C
3E7C
3E7C
7E7C
7E7C
7FFC
7FFC
7FFC
7FFE
7C7E
7C3E
7C3E
7C3E
FC3E
ENDCHAR
STARTCHAR abreve
ENCODING 259
SWIDTH 483 0
DWIDTH 15 0
BBX 13 31 1 0
BITMAP
7878
7CF8
7FF8
7FF8
3FF0
0FC0
0000
1FC0
3FF0
7FF0
FFF8
FDF8
F8F8
F8F8
00F8
00F8
03F8
1FF8
7FF8
7CF8
FCF8
F8F8
F8F8
F8F8
F8F8
F8F8
FDF8
FFF8
FFF8
7EF8
3CF8
ENDCHAR
STARTCHAR Aogonek
ENCODING 260
SWIDTH 485 0
DWIDTH 16 0
BBX 15 38 0 -10
BITMAP
1FF8
1FF8
1FF8
1FF8
1FF8
1FF8
1EF8
3EF8
3EF8
3EF8
3EF8
3EFC
3E7C
3E7C
3E7C
3E7C
3E7C
7E7C
7E7C
7FFC
7FFC
7FFC
7FFE
7C7E
7C3E
7C3E
7C3E
FC3E
003C
0078
00F0
01F0
01F0
01FA
01FE
01FE
00FE
003E
ENDCHAR
STARTCHAR aogonek
ENCODING 261
SWIDTH 483 0
DWIDTH 15 0
BBX 14 34 1 -10
BITMAP
1FC0
3FF0
7FF0
FFF8
FDF8
F8F8
F8F8
00F8
00F8
03F8
1FF8
7FF8
7CF8
FCF8
F8F8
F8F8
F8F8
F8F8
F8F8
FDF8
FFF8
FFF8
7EF8
3CF8
00F0
01E0
03C0
07C0
07C0
07E4
07FC
03FC
03FC
00F8
ENDCHAR
STARTCHAR Cacute
ENCODING 262
SWIDTH 474 0
DWIDTH 15 0
BBX 14 36 1 0
BITMAP
0020
00C0
03C0
0FC0
1FC0
1FC0
1F00
0000
0FC0
3FE0
7FF0
7FF8
FFF8
FCF8
FCFC
F8FC
F8FC
F8FC
F8FC
F800
F800
F800
F800
F800
F8FC
F8FC
F8FC
F8FC
F8FC
F8FC
FCF8
FFF8
7FF8
7FF0
3FF0
0FC0
ENDCHAR
STARTCHAR cacute
ENCODING 263
SWIDTH 491 0
DWIDTH 16 0
BBX 14 32 1 0
BITMAP
0020
00E0
03E0
0FE0
1FE0
1FE0
1F00
0000
0FC0
3FF0
7FF8
7FF8
FEFC
FCFC
FCFC
FCFC
FCFC
FCFC
FC00
FC00
FC00
FC00
FCFC
FCFC
FCFC
FCFC
FCFC
FDFC
7FF8
7FF8
3FF0
0FC0
ENDCHAR
STARTCHAR Ccircumflex
ENCODING 264
SWIDTH 474 0
DWIDTH 15 0
BBX 14 35 1 0
BITMAP
1FC0
1FE0
3FE0
7DF0
7CF8
FCFC
0000
0FC0
3FE0
7FF0
7FF8
FFF8
FCF8
FCFC
F8FC
F8FC
F8FC
F8FC
F800
F800
F800
F800
F800
F8FC
F8FC
F8FC
F8FC
F8FC
F8FC
FCF8
FFF8
7FF8
7FF0
3FF0
0FC0
ENDCHAR
STARTCHAR ccircumflex
ENCODING 265
SWIDTH 491 0
DWIDTH 16 0
BBX 14 31 1 0
BITMAP
0FE0
1FE0
3FF0
3CF0
7CF8
FCFC
0000
0FC0
3FF0
7FF8
7FF8
FEFC
FCFC
FCFC
FCFC
FCFC
FCFC
FC00
FC00
FC00
FC00
FCFC
FCFC
FCFC
FCFC
FCFC
FDFC
7FF8
7FF8
3FF0
0FC0
ENDCHAR
STARTCHAR Cdotaccent
ENCODING 266
SWIDTH 474 0
DWIDTH 15 0
BBX 14 33 1 0
BITMAP
0FC0
0FC0
0FC0
0FC0
0000
0FC0
3FE0
7FF0
7FF8
FFF8
FCF8
FCFC
F8FC
F8FC
F8FC
F8FC
F800
F800
F800
F800
F800
F8FC
F8FC
F8FC
F8FC
F8FC
F8FC
FCF8
FFF8
7FF8
7FF0
3FF0
0FC0
ENDCHAR
STARTCHAR cdotaccent
ENCODING 267
SWIDTH 491 0
DWIDTH 16 0
BBX 14 29 1 0
BITMAP
0FC0
0FC0
0FC0
0FC0
0000
0FC0
3FF0
7FF8
7FF8
FEFC
FCFC
FCFC
FCFC
FCFC
FCFC
FC00
FC00
FC00
FC00
FCFC
FCFC
FCFC
FCFC
FCFC
FDFC
7FF8
7FF8
3FF0
0FC0
ENDCHAR
STARTCHAR Ccaron
ENCODING 268
SWIDTH 474 0
DWIDTH 15 0
BBX 14 35 1 0
BITMAP
FCFC
7CF8
7DF0
3DE0
1FE0
1FC0
0000
0FC0
3FE0
7FF0
7FF8
FFF8
FCF8
FCFC
F8FC
F8FC
F8FC
F8FC
F800
F800
F800
F800
F800
F8FC
F8FC
F8FC
F8FC
F8FC
F8FC
FCF8
FFF8
7FF8
7FF0
3FF0
0FC0
ENDCHAR
STARTCHAR ccaron
ENCODING 269
SWIDTH 491 0
DWIDTH 16 0
BBX 14 31 1 0
BITMAP
FCFC
7CF8
3CF0
3FF0
1FE0
0FE0
0000
0FC0
3FF0
7FF8
7FF8
FEFC
FCFC
FCFC
FCFC
FCFC
FCFC
FC00
FC00
FC00
FC00
FCFC
FCFC
FCFC
FCFC
FCFC
FDFC
7FF8
7FF8
3FF0
0FC0
ENDCHAR
STARTCHAR Dcaron
ENCODING 270
SWIDTH 493 0
DWIDTH 16 0
BBX 14 35 1 0
BITMAP
FCFC
7CF8
7DF0
3FF0
1FE0
1FC0
0000
FFE0
FFF0
FFF8
FFF8
FDFC
FCFC
FCFC
FCFC
FCFC
FCFC
FCFC
FCFC
FCFC
FCFC
FCFC
FCFC
FCFC
FCFC
FCFC
FCFC
FCFC
FCFC
FCFC
FDF8
FFF8
FFF8
FFF0
FFC0
ENDCHAR
STARTCHAR dcaron
ENCODING 271
SWIDTH 498 0
DWIDTH 16 0
BBX 22 28 1 0
BITMAP
00FCFC
00FCFC
00FCFC
00FCFC
1EFC3C
7FFC38
7FFC78
FFFC78
FDFC00
FCFC00
FCFC00
FCFC00
FCFC00
FCFC00
FCFC00
FCFC00
FCFC00
FCFC00
FCFC00
FCFC00
FCFC00
FCFC00
FCFC00
FDFC00
FFFC00
7FFC00
7FFC00
3EFC00
ENDCHAR
STARTCHAR Dcroat
ENCODING 272
SWIDTH 493 0
DWIDTH 16 0
BBX 15 28 0 0
BITMAP
7FF0
7FF8
7FFC
7FFC
7EFE
7E7E
7E7E
7E7E
7E7E
7E7E
7E7E
FF7E
FF7E
FF7E
FF7E
7E7E
7E7E
7E7E
7E7E
7E7E
7E7E
7E7E
7E7E
7EFC
7FFC
7FFC
7FF8
7FE0
ENDCHAR
STARTCHAR dcroat
ENCODING 273
SWIDTH 498 0
DWIDTH 16 0
BBX 16 28 1 0
BITMAP
00FC
03FF
03FF
00FC
1EFC
7FFC
7FFC
FFFC
FDFC
FCFC
FCFC
FCFC
FCFC
FCFC
FCFC
FCFC
FCFC
FCFC
FCFC
FCFC
FCFC
FCFC
FCFC
FDFC
FFFC
7FFC
7FFC
3EFC
ENDCHAR
STARTCHAR Emacron
ENCODING 274
SWIDTH 412 0
DWIDTH 13 0
BBX 12 32 1 0
BITMAP
7FE0
7FE0
0000
0000
FFE0
FFE0
FFE0
FFE0
FFE0
FC00
FC00
FC00
FC00
FC00
FC00
FFE0
FFE0
FFE0
FFE0
FFE0
FC00
FC00
FC00
FC00
FC00
FC00
FC00
FFF0
FFF0
FFF0
FFF0
FFF0
ENDCHAR
STARTCHAR emacron
ENCODING 275
SWIDTH 488 0
DWIDTH 16 0
BBX 14 28 1 0
BITMAP
3FF0
3FF0
0000
0000
0FC0
3FF0
7FF8
FFF8
FDF8
FCFC
FCFC
FCFC
FCFC
FCFC
FFFC
FFFC
FFFC
FC00
FC00
FCFC
FCFC
FCFC
FCFC
FDF8
7FF8
7FF8
3FF0
0FC0
ENDCHAR
STARTCHAR Ebreve
ENCODING 276
SWIDTH 412 0
DWIDTH 13 0
BBX 12 35 1 0
BITMAP
F0F0
F9F0
FFF0
FFF0
7FE0
1F80
0000
FFE0
FFE0
FFE0
FFE0
FFE0
FC00
FC00
FC00
FC00
FC00
FC00
FFE0
FFE0
FFE0
FFE0
FFE0
FC00
FC00
FC00
FC00
FC00
FC00
FC00
FFF0
FFF0
FFF0
FFF0
FFF0
ENDCHAR
STARTCHAR ebreve
ENCODING 277
SWIDTH 488 0
DWIDTH 16 0
BBX 14 31 1 0
BITMAP
7878
7CF8
7FF8
7FF8
3FF0
0FC0
0000
0FC0
3FF0
7FF8
FFF8
FDF8
FCFC
FCFC
FCFC
FCFC
FCFC
FFFC
FFFC
FFFC
FC00
FC00
FCFC
FCFC
FCFC
FCFC
FDF8
7FF8
7FF8
3FF0
0FC0
ENDCHAR
STARTCHAR Edotaccent
ENCODING 278
SWIDTH 412 0
DWIDTH 13 0
BBX 12 33 1 0
BITMAP
1F80
1F80
1F80
1F80
0000
FFE0
FFE0
FFE0
FFE0
FFE0
FC00
FC00
FC00
FC00
FC00
FC00
FFE0
FFE0
FFE0
FFE0
FFE0
FC00
FC00
FC00
FC00
FC00
FC00
FC00
FFF0
FFF0
FFF0
FFF0
FFF0
ENDCHAR
STARTCHAR edotaccent
ENCODING 279
SWIDTH 488 0
DWIDTH 16 0
BBX 14 29 1 0
BITMAP
0FC0
0FC0
0FC0
0FC0
0000
0FC0
3FF0
7FF8
FFF8
FDF8
FCFC
FCFC
FCFC
FCFC
FCFC
FFFC
FFFC
FFFC
FC00
FC00
FCFC
FCFC
FCFC
FCFC
FDF8
7FF8
7FF8
3FF0
0FC0
ENDCHAR
STARTCHAR Eogonek
ENCODING 280
SWIDTH 412 0
DWIDTH 13 0
BBX 12 38 1 -10
BITMAP
FFE0
FFE0
FFE0
FFE0
FFE0
FC00
FC00
FC00
FC00
FC00
FC00
FFE0
FFE0
FFE0
FFE0
FFE0
FC00
FC00
FC00
FC00
FC00
FC00
FC00
FFF0
FFF0
FFF0
FFF0
FFF0
0F00
1E00
3C00
7C00
7C00
7E80
7F80
7F80
3F80
0F80
ENDCHAR
STARTCHAR eogonek
ENCODING 281
SWIDTH 488 0
DWIDTH 16 0
BBX 14 34 1 -10
BITMAP
0FC0
3FF0
7FF8
FFF8
FDF8
FCFC
FCFC
FCFC
FCFC
FCFC
FFFC
FFFC
FFFC
FC00
FC00
FCFC
FCFC
FCFC
FCFC
FCF8
7FF8
7FF8
3FF0
1FC0
0700
1F00
3E00
3C00
7C00
7E00
7FC0
3FC0
3FC0
0FC0
ENDCHAR
STARTCHAR Ecaron
ENCODING 282
SWIDTH 412 0
DWIDTH 13 0
BBX 14 35 0 0
BITMAP
FCFC
7CF8
3DF0
3FF0
1FE0
1FC0
0000
7FF0
7FF0
7FF0
7FF0
7FF0
7E00
7E00
7E00
7E00
7E00
7E00
7FF0
7FF0
7FF0
7FF0
7FF0
7E00
7E00
7E00
7E00
7E00
7E00
7E00
7FF8
7FF8
7FF8
7FF8
7FF8
ENDCHAR
STARTCHAR ecaron
ENCODING 283
SWIDTH 488 0
DWIDTH 16 0
BBX 14 31 1 0
BITMAP
FCFC
7CF8
3CF0
3FF0
1FE0
1FC0
0000
0FC0
3FF0
7FF8
FFF8
FDF8
FCFC
FCFC
FCFC
FCFC
FCFC
FFFC
FFFC
FFFC
FC00
FC00
FCFC
FCFC
FCFC
FCFC
FDF8
7FF8
7FF8
3FF0
0FC0
ENDCHAR
STARTCHAR Gcircumflex
ENCODING 284
SWIDTH 485 0
DWIDTH 16 0
BBX 14 35 1 0
BITMAP
1FC0
1FE0
3FE0
7DF0
7CF8
FCFC
0000
0FC0
3FE0
7FF0
7FF8
FFF8
FCF8
F8F8
F8FC
F8FC
F8FC
F800
F800
F9FC
F9FC
F9FC
F9FC
F8FC
F8FC
F8FC
F8FC
F8FC
FCFC
FCFC
FFFC
7FFC
7FFC
3FDC
1F1C
ENDCHAR
STARTCHAR gcircumflex
ENCODING 285
SWIDTH 504 0
DWIDTH 16 0
BBX 14 35 1 -4
BITMAP
1FC0
1FE0
3FF0
3CF0
7CF8
FCFC
0000
3EFC
7FFC
7FFC
FFFC
FCFC
FCFC
FCFC
FCFC
FCFC
FCFC
FCFC
FCFC
FCFC
FCFC
FCFC
FCFC
FCFC
FEFC
FFFC
7FFC
7FFC
1EFC
00FC
79FC
7FF8
FFF8
FFF0
3FC0
ENDCHAR
STARTCHAR Gbreve
ENCODING 286
SWIDTH 485 0
DWIDTH 16 0
BBX 14 35 1 0
BITMAP
7878
7CF8
7FF8
7FF0
3FF0
0FC0
0000
0FC0
3FE0
7FF0
7FF8
FFF8
FCF8
F8F8
F8FC
F8FC
F8FC
F800
F800
F9FC
F9FC
F9FC
F9FC
F8FC
F8FC
F8FC
F8FC
F8FC
FCFC
FCFC
FFFC
7FFC
7FFC
3FDC
1F1C
ENDCHAR
STARTCHAR gbreve
ENCODING 287
SWIDTH 504 0
DWIDTH 16 0
BBX 14 35 1 -4
BITMAP
7878
7CF8
7FF8
7FF8
3FF0
0FC0
0000
3EFC
7FFC
7FFC
FFFC
FCFC
FCFC
FCFC
FCFC
FCFC
FCFC
FCFC
FCFC
FCFC
FCFC
FCFC
FCFC
FCFC
FEFC
FFFC
7FFC
7FFC
1EFC
00FC
79FC
7FF8
FFF8
FFF0
3FC0
ENDCHAR
STARTCHAR Gdotaccent
ENCODING 288
SWIDTH 485 0
DWIDTH 16 0
BBX 14 33 1 0
BITMAP
0FC0
0FC0
0FC0
0FC0
0000
0FC0
3FE0
7FF0
7FF8
FFF8
FCF8
F8F8
F8FC
F8FC
F8FC
F800
F800
F9FC
F9FC
F9FC
F9FC
F8FC
F8FC
F8FC
F8FC
F8FC
FCFC
FCFC
FFFC
7FFC
7FFC
3FDC
1F1C
ENDCHAR
STARTCHAR gdotaccent
ENCODING 289
SWIDTH 504 0
DWIDTH 16 0
BBX 14 33 1 -4
BITMAP
0FC0
0FC0
0FC0
0FC0
0000
3EFC
7FFC
7FFC
FFFC
FCFC
FCFC
FCFC
FCFC
FCFC
FCFC
FCFC
FCFC
FCFC
FCFC
FCFC
FCFC
FCFC
FEFC
FFFC
7FFC
7FFC
1EFC
00FC
79FC
7FF8
FFF8
FFF0
3FC0
ENDCHAR
STARTCHAR Gcommaaccent
ENCODING 290
SWIDTH 485 0
DWIDTH 16 0
BBX 14 37 1 -9
BITMAP
0FC0
3FE0
7FF0
7FF8
FFF8
FCF8
F8F8
F8FC
F8FC
F8FC
F800
F800
F9FC
F9FC
F9FC
F9FC
F8FC
F8FC
F8FC
F8FC
F8FC
FCFC
FCFC
FFFC
7FFC
7FFC
3FDC
1F1C
0000
0000
0FC0
0FC0
0FC0
0FC0
0380
0780
0700
ENDCHAR
STARTCHAR gcommaaccent
ENCODING 291
SWIDTH 504 0
DWIDTH 16 0
BBX 14 40 1 -4
BITMAP
0380
0780
0780
0700
0F00
0FC0
0FC0
0FC0
0FC0
0000
0000
0000
3EFC
7FFC
7FFC
FFFC
FCFC
FCFC
FCFC
FCFC
FCFC
FCFC
FCFC
FCFC
FCFC
FCFC
FCFC
FCFC
FCFC
FEFC
FFFC
7FFC
7FFC
1EFC
00FC
79FC
7FF8
FFF8
FFF0
3FC0
ENDCHAR
STARTCHAR Hcircumflex
ENCODING 292
SWIDTH 499 0
DWIDTH 16 0
BBX 14 35 1 0
BITMAP
1FC0
1FE0
3FF0
3CF0
7CF8
FCFC
0000
FCFC
FCFC
FCFC
FCFC
FCFC
FCFC
FCFC
FCFC
FCFC
FCFC
FFFC
FFFC
FFFC
FFFC
FFFC
FCFC
FCFC
FCFC
FCFC
FCFC
FCFC
FCFC
FCFC
FCFC
FCFC
FCFC
FCFC
FCFC
ENDCHAR
STARTCHAR hcircumflex
ENCODING 293
SWIDTH 505 0
DWIDTH 16 0
BBX 18 35 -3 0
BITMAP
1FC000
1FE000
3FF000
3CF000
7CF800
FCFC00
000000
0FC000
0FC000
0FC000
0FC000
0FDF00
0FFF80
0FFF80
0FFFC0
0FFFC0
0FCFC0
0FCFC0
0FCFC0
0FCFC0
0FCFC0
0FCFC0
0FCFC0
0FCFC0
0FCFC0
0FCFC0
0FCFC0
0FCFC0
0FCFC0
0FCFC0
0FCFC0
0FCFC0
0FCFC0
0FCFC0
0FCFC0
ENDCHAR
STARTCHAR Hbar
ENCODING 294
SWIDTH 483 0
DWIDTH 15 0
BBX 16 28 0 0
BITMAP
7E7E
7E7E
7E7E
7E7E
FFFF
FFFF
FFFF
7E7E
7E7E
7E7E
7FFE
7FFE
7FFE
7FFE
7FFE
7E7E
7E7E
7E7E
7E7E
7E7E
7E7E
7E7E
7E7E
7E7E
7E7E
7E7E
7E7E
7E7E
ENDCHAR
STARTCHAR hbar
ENCODING 295
SWIDTH 505 0
DWIDTH 16 0
BBX 16 28 -1 0
BITMAP
3F00
3F00
FFC0
FFC0
3F7C
3FFE
3FFE
3FFF
3FBF
3F3F
3F3F
3F3F
3F3F
3F3F
3F3F
3F3F
3F3F
3F3F
3F3F
3F3F
3F3F
3F3F
3F3F
3F3F
3F3F
3F3F
3F3F
3F3F
ENDCHAR
STARTCHAR Itilde
ENCODING 296
SWIDTH 227 0
DWIDTH 7 0
BBX 13 35 -3 0
BITMAP
3F38
7FF8
7FF0
FFF0
23E0
0000
0000
0F80
0F80
0F80
0F80
0F80
0F80
0F80
0F80
0F80
0F80
0F80
0F80
0F80
0F80
0F80
0F80
0F80
0F80
0F80
0F80
0F80
0F80
0F80
0F80
0F80
0F80
0F80
0F80
ENDCHAR
STARTCHAR itilde
ENCODING 297
SWIDTH 235 0
DWIDTH 8 0
BBX 13 31 -3 0
BITMAP
3F38
7FF8
7FF8
FFF0
23E0
0000
0000
0FC0
0FC0
0FC0
0FC0
0FC0
0FC0
0FC0
0FC0
0FC0
0FC0
0FC0
0FC0
0FC0
0FC0
0FC0
0FC0
0FC0
0FC0
0FC0
0FC0
0FC0
0FC0
0FC0
0FC0
ENDCHAR
STARTCHAR Imacron
ENCODING 298
SWIDTH 227 0
DWIDTH 7 0
BBX 11 32 -2 0
BITMAP
FFE0
FFE0
0000
0000
1F00
1F00
1F00
1F00
1F00
1F00
1F00
1F00
1F00
1F00
1F00
1F00
1F00
1F00
1F00
1F00
1F00
1F00
1F00
1F00
1F00
1F00
1F00
1F00
1F00
1F00
1F00
1F00
ENDCHAR
STARTCHAR imacron
ENCODING 299
SWIDTH 235 0
DWIDTH 8 0
BBX 10 28 -1 0
BITMAP
FFC0
FFC0
0000
0000
3F00
3F00
3F00
3F00
3F00
3F00
3F00
3F00
3F00
3F00
3F00
3F00
3F00
3F00
3F00
3F00
3F00
3F00
3F00
3F00
3F00
3F00
3F00
3F00
ENDCHAR
STARTCHAR Ibreve
ENCODING 300
SWIDTH 227 0
DWIDTH 7 0
BBX 12 35 -2 0
BITMAP
F0F0
F9F0
FFF0
FFE0
7FE0
1F80
0000
1F00
1F00
1F00
1F00
1F00
1F00
1F00
1F00
1F00
1F00
1F00
1F00
1F00
1F00
1F00
1F00
1F00
1F00
1F00
1F00
1F00
1F00
1F00
1F00
1F00
1F00
1F00
1F00
ENDCHAR
STARTCHAR ibreve
ENCODING 301
SWIDTH 235 0
DWIDTH 8 0
BBX 12 31 -2 0
BITMAP
F0F0
F9F0
FFF0
FFE0
7FE0
1F80
0000
1F80
1F80
1F80
1F80
1F80
1F80
1F80
1F80
1F80
1F80
1F80
1F80
1F80
1F80
1F80
1F80
1F80
1F80
1F80
1F80
1F80
1F80
1F80
1F80
ENDCHAR
STARTCHAR Iogonek
ENCODING 302
SWIDTH 227 0
DWIDTH 7 0
BBX 8 38 -1 -10
BITMAP
3E
3E
3E
3E
3E
3E
3E
3E
3E
3E
3E
3E
3E
3E
3E
3E
3E
3E
3E
3E
3E
3E
3E
3E
3E
3E
3E
3E
1E
3C
78
F8
F8
FD
FF
FF
7F
1F
ENDCHAR
STARTCHAR iogonek
ENCODING 303
SWIDTH 244 0
DWIDTH 8 0
BBX 9 39 -1 -10
BITMAP
3F00
3F00
3F00
3F00
0000
3F00
3F00
3F00
3F00
3F00
3F00
3F00
3F00
3F00
3F00
3F00
3F00
3F00
3F00
3F00
3F00
3F00
3F00
3F00
3F00
3F00
3F00
3F00
3F00
0E00
3C00
7C00
7800
F800
FE80
FF80
7F80
3F80
1F00
ENDCHAR
STARTCHAR Idotaccent
ENCODING 304
SWIDTH 227 0
DWIDTH 7 0
BBX 5 33 1 0
BITMAP
F8
F8
F8
F8
00
F8
F8
F8
F8
F8
F8
F8
F8
F8
F8
F8
F8
F8
F8
F8
F8
F8
F8
F8
F8
F8
F8
F8
F8
F8
F8
F8
F8
ENDCHAR
STARTCHAR dotlessi
ENCODING 305
SWIDTH 235 0
DWIDTH 8 0
BBX 6 24 1 0
BITMAP
FC
FC
FC
FC
FC
FC
FC
FC
FC
FC
FC
FC
FC
FC
FC
FC
FC
FC
FC
FC
FC
FC
FC
FC
ENDCHAR
STARTCHAR IJ
ENCODING 306
SWIDTH 693 0
DWIDTH 22 0
BBX 20 28 1 0
BITMAP
F801F0
F801F0
F801F0
F801F0
F801F0
F801F0
F801F0
F801F0
F801F0
F801F0
F801F0
F801F0
F801F0
F801F0
F801F0
F9F1F0
F9F1F0
F9F1F0
F9F1F0
F9F1F0
F9F1F0
F9F1F0
F9FBF0
F9FFF0
F9FFE0
F8FFE0
F87FC0
F81F00
ENDCHAR
STARTCHAR ij
ENCODING 307
SWIDTH 506 0
DWIDTH 16 0
BBX 14 32 1 -2
BITMAP
007C
FC7C
FC7C
FC7C
FC00
0000
FC7C
FC7C
FC7C
FC7C
FC7C
FC7C
FC7C
FC7C
FC7C
FC7C
FC7C
FC7C
FC7C
FC7C
FC7C
FC7C
FC7C
FC7C
FC7C
FC7C
FC7C
FCFC
FDFC
FDFC
01F8
01F8
ENDCHAR
STARTCHAR Jcircumflex
ENCODING 308
SWIDTH 466 0
DWIDTH 15 0
BBX 17 35 1 0
BITMAP
01FC00
03FC00
03FE00
07DF00
0F9F00
1F9F80
000000
01F800
01F800
01F800
01F800
01F800
01F800
01F800
01F800
01F800
01F800
01F800
01F800
01F800
01F800
01F800
F9F800
F9F800
F9F800
F9F800
F9F800
F9F800
F9F800
F9F800
FFF800
FFF000
7FF000
3FE000
1F8000
ENDCHAR
STARTCHAR jcircumflex
ENCODING 309
SWIDTH 263 0
DWIDTH 8 0
BBX 14 33 -2 -2
BITMAP
1FC0
1FE0
3DE0
7DF0
7CF8
F8FC
0000
0F80
0F80
0F80
0F80
0F80
0F80
0F80
0F80
0F80
0F80
0F80
0F80
0F80
0F80
0F80
0F80
0F80
0F80
0F80
0F80
0F80
0F80
1F80
1F80
1F80
1F00
ENDCHAR
STARTCHAR Kcommaaccent
ENCODING 310
SWIDTH 472 0
DWIDTH 15 0
BBX 14 37 1 -9
BITMAP
FCFC
FCF8
FCF8
FDF8
FDF8
FDF0
FDF0
FDF0
FFF0
FFF0
FFE0
FFE0
FFE0
FFE0
FFE0
FFE0
FFF0
FFF0
FDF0
FDF0
FDF8
FDF8
FDF8
FCF8
FCFC
FCFC
FCFC
FC7C
0000
0000
0FC0
0FC0
0FC0
0FC0
03C0
0380
0780
ENDCHAR
STARTCHAR kcommaaccent
ENCODING 311
SWIDTH 497 0
DWIDTH 16 0
BBX 15 38 1 -10
BITMAP
FC00
FC00
FC00
FC00
FCFC
FCFC
FCF8
FDF8
FDF8
FDF0
FFF0
FFF0
FFE0
FFE0
FFE0
FFE0
FFE0
FFF0
FFF0
FFF0
FDF8
FDF8
FDF8
FCFC
FCFC
FCFC
FC7E
FC7E
0000
0000
07E0
07E0
07E0
07E0
01C0
03C0
03C0
0380
ENDCHAR
STARTCHAR kgreenlandic
ENCODING 312
SWIDTH 488 0
DWIDTH 16 0
BBX 15 24 1 0
BITMAP
FCFC
FCFC
FDF8
FDF8
FDF8
FDF0
FFF0
FFF0
FFE0
FFE0
FFE0
FFE0
FFE0
FFE0
FFF0
FFF0
FDF0
FDF8
FDF8
FCF8
FCFC
FCFC
FC7C
FC7E
ENDCHAR
STARTCHAR Lacute
ENCODING 313
SWIDTH 397 0
DWIDTH 13 0
BBX 12 36 0 0
BITMAP
0100
0700
1F00
7F00
FF00
FF00
F800
0000
7E00
7E00
7E00
7E00
7E00
7E00
7E00
7E00
7E00
7E00
7E00
7E00
7E00
7E00
7E00
7E00
7E00
7E00
7E00
7E00
7E00
7E00
7E00
7E00
7FF0
7FF0
7FF0
7FF0
ENDCHAR
STARTCHAR lacute
ENCODING 314
SWIDTH 248 0
DWIDTH 8 0
BBX 8 36 0 0
BITMAP
01
07
1F
7F
FF
FF
F8
00
7E
7E
7E
7E
7E
7E
7E
7E
7E
7E
7E
7E
7E
7E
7E
7E
7E
7E
7E
7E
7E
7E
7E
7E
7E
7E
7E
7E
ENDCHAR
STARTCHAR Lcommaaccent
ENCODING 315
SWIDTH 397 0
DWIDTH 13 0
BBX 11 37 1 -9
BITMAP
FC00
FC00
FC00
FC00
FC00
FC00
FC00
FC00
FC00
FC00
FC00
FC00
FC00
FC00
FC00
FC00
FC00
FC00
FC00
FC00
FC00
FC00
FC00
FC00
FFE0
FFE0
FFE0
FFE0
0000
0000
1F00
1F00
1F00
1F00
0F00
0F00
0E00
ENDCHAR
STARTCHAR lcommaaccent
ENCODING 316
SWIDTH 248 0
DWIDTH 8 0
BBX 6 37 1 -9
BITMAP
FC
FC
FC
FC
FC
FC
FC
FC
FC
FC
FC
FC
FC
FC
FC
FC
FC
FC
FC
FC
FC
FC
FC
FC
FC
FC
FC
FC
00
00
FC
FC
FC
FC
3C
3C
78
ENDCHAR
STARTCHAR Lcaron
ENCODING 317
SWIDTH 397 0
DWIDTH 13 0
BBX 13 28 1 0
BITMAP
FDF8
FDF8
FDF8
FDF8
FC78
FC70
FCF0
FCF0
FC00
FC00
FC00
FC00
FC00
FC00
FC00
FC00
FC00
FC00
FC00
FC00
FC00
FC00
FC00
FC00
FFE0
FFE0
FFE0
FFE0
ENDCHAR
STARTCHAR lcaron
ENCODING 318
SWIDTH 248 0
DWIDTH 8 0
BBX 14 28 1 0
BITMAP
FCFC
FCFC
FCFC
FCFC
FC3C
FC38
FC78
FC78
FC00
FC00
FC00
FC00
FC00
FC00
FC00
FC00
FC00
FC00
FC00
FC00
FC00
FC00
FC00
FC00
FC00
FC00
FC00
FC00
ENDCHAR
STARTCHAR Ldot
ENCODING 319
SWIDTH 451 0
DWIDTH 14 0
BBX 13 28 1 0
BITMAP
FC00
FC00
FC00
FC00
FC00
FC00
FC00
FC00
FC00
FC00
FC00
FCF8
FCF8
FCF8
FCF8
FCF8
FC00
FC00
FC00
FC00
FC00
FC00
FC00
FC00
FFE0
FFE0
FFE0
FFE0
ENDCHAR
STARTCHAR ldot
ENCODING 320
SWIDTH 438 0
DWIDTH 14 0
BBX 12 28 1 0
BITMAP
FC00
FC00
FC00
FC00
FC00
FC00
FC00
FC00
FC00
FC00
FDF0
FDF0
FDF0
FDF0
FDF0
FC00
FC00
FC00
FC00
FC00
FC00
FC00
FC00
FC00
FC00
FC00
FC00
FC00
ENDCHAR
STARTCHAR Lslash
ENCODING 321
SWIDTH 417 0
DWIDTH 13 0
BBX 12 28 0 0
BITMAP
7E00
7E00
7E00
7E00
7E00
7E00
7E00
7E00
7EC0
7FC0
7FC0
7FC0
FFC0
FF80
FE00
FE00
FE00
FE00
7E00
7E00
7E00
7E00
7E00
7E00
7FF0
7FF0
7FF0
7FF0
ENDCHAR
STARTCHAR lslash
ENCODING 322
SWIDTH 288 0
DWIDTH 9 0
BBX 9 28 0 0
BITMAP
3E00
3E00
3E00
3E00
3E00
3E00
3E00
3E00
3E00
3E00
3E80
3F80
3F80
FF80
FF80
FE00
FE00
FE00
3E00
3E00
3E00
3E00
3E00
3E00
3E00
3E00
3E00
3E00
ENDCHAR
STARTCHAR Nacute
ENCODING 323
SWIDTH 498 0
DWIDTH 16 0
BBX 14 36 1 0
BITMAP
0020
0060
03E0
0FE0
0FE0
0FE0
0F00
0000
FCFC
FCFC
FCFC
FEFC
FEFC
FEFC
FEFC
FEFC
FEFC
FFFC
FFFC
FFFC
FFFC
FFFC
FFFC
FFFC
FFFC
FFFC
FFFC
FDFC
FDFC
FDFC
FDFC
FDFC
FCFC
FCFC
FCFC
FCFC
ENDCHAR
STARTCHAR nacute
ENCODING 324
SWIDTH 499 0
DWIDTH 16 0
BBX 14 32 1 0
BITMAP
0020
00E0
03E0
0FE0
1FE0
1FE0
1F00
0000
FDF0
FFF8
FFF8
FFFC
FCFC
FCFC
FCFC
FCFC
FCFC
FCFC
FCFC
FCFC
FCFC
FCFC
FCFC
FCFC
FCFC
FCFC
FCFC
FCFC
FCFC
FCFC
FCFC
FCFC
ENDCHAR
STARTCHAR Ncommaaccent
ENCODING 325
SWIDTH 498 0
DWIDTH 16 0
BBX 14 37 1 -9
BITMAP
FCFC
FCFC
FCFC
FEFC
FEFC
FEFC
FEFC
FEFC
FEFC
FFFC
FFFC
FFFC
FFFC
FFFC
FFFC
FFFC
FFFC
FFFC
FFFC
FDFC
FDFC
FDFC
FDFC
FDFC
FCFC
FCFC
FCFC
FCFC
0000
0000
0FC0
0FC0
0FC0
0FC0
0380
0780
0700
ENDCHAR
STARTCHAR ncommaaccent
ENCODING 326
SWIDTH 499 0
DWIDTH 16 0
BBX 14 33 1 -9
BITMAP
FDF0
FFF8
FFF8
FFFC
FCFC
FCFC
FCFC
FCFC
FCFC
FCFC
FCFC
FCFC
FCFC
FCFC
FCFC
FCFC
FCFC
FCFC
FCFC
FCFC
FCFC
FCFC
FCFC
FCFC
0000
0000
0FC0
0FC0
0FC0
0FC0
03C0
0780
0780
ENDCHAR
STARTCHAR Ncaron
ENCODING 327
SWIDTH 498 0
DWIDTH 16 0
BBX 14 35 1 0
BITMAP
FCFC
7CF8
3EF8
1EF0
1FE0
0FE0
0000
FCFC
FCFC
FCFC
FEFC
FEFC
FEFC
FEFC
FEFC
FEFC
FFFC
FFFC
FFFC
FFFC
FFFC
FFFC
FFFC
FFFC
FFFC
FFFC
FDFC
FDFC
FDFC
FDFC
FDFC
FCFC
FCFC
FCFC
FCFC
ENDCHAR
STARTCHAR ncaron
ENCODING 328
SWIDTH 499 0
DWIDTH 16 0
BBX 14 31 1 0
BITMAP
FCFC
7CF8
3CF0
3FF0
1FE0
1FE0
0000
FDF0
FFF8
FFF8
FFFC
FCFC
FCFC
FCFC
FCFC
FCFC
FCFC
FCFC
FCFC
FCFC
FCFC
FCFC
FCFC
FCFC
FCFC
FCFC
FCFC
FCFC
FCFC
FCFC
FCFC
ENDCHAR
STARTCHAR napostrophe
ENCODING 329
SWIDTH 535 0
DWIDTH 17 0
BBX 17 33 -1 0
BITMAP
FC0000
FC0000
FC0000
FC0000
380000
780000
780000
000000
000000
1F9E00
1FBF00
1FFF00
1FFF80
1F9F80
1F9F80
1F8F80
1F8F80
1F8F80
1F8F80
1F8F80
1F8F80
1F8F80
1F8F80
1F8F80
1F8F80
1F8F80
1F8F80
1F8F80
1F8F80
1F8F80
1F8F80
1F8F80
1F8F80
ENDCHAR
STARTCHAR Eng
ENCODING 330
SWIDTH 491 0
DWIDTH 16 0
BBX 14 36 1 -8
BITMAP
FCFC
FCFC
FCFC
FEFC
FEFC
FEFC
FEFC
FEFC
FEFC
FFFC
FFFC
FFFC
FFFC
FFFC
FFFC
FFFC
FFFC
FFFC
FFFC
FDFC
FDFC
FDFC
FDFC
FDFC
FCFC
FCFC
FCFC
FCFC
00FC
00FC
00FC
7BF8
7FF8
FFF0
7FE0
1FC0
ENDCHAR
STARTCHAR eng
ENCODING 331
SWIDTH 489 0
DWIDTH 16 0
BBX 14 32 1 -8
BITMAP
FDF0
FFF8
FFF8
FFFC
FCFC
FCFC
FCFC
FCFC
FCFC
FCFC
FCFC
FCFC
FCFC
FCFC
FCFC
FCFC
FCFC
FCFC
FCFC
FCFC
FCFC
FCFC
FCFC
FCFC
00FC
00FC
00FC
79F8
7FF8
FFF8
7FF0
0FC0
ENDCHAR
STARTCHAR Omacron
ENCODING 332
SWIDTH 486 0
DWIDTH 16 0
BBX 14 32 1 0
BITMAP
3FF0
3FF0
0000
0000
0FC0
3FE0
7FF0
7FF8
FFF8
FCF8
F8FC
F8FC
F8FC
F8FC
F8FC
F8FC
F8FC
F8FC
F8FC
F8FC
F8FC
F8FC
F8FC
F8FC
F8FC
F8FC
FCF8
FFF8
7FF8
7FF0
3FE0
0FC0
ENDCHAR
STARTCHAR omacron
ENCODING 333
SWIDTH 497 0
DWIDTH 16 0
BBX 14 28 1 0
BITMAP
3FF0
3FF0
0000
0000
0FC0
3FF0
7FF8
7FF8
FDFC
FCFC
FCFC
FCFC
FCFC
FCFC
FCFC
FCFC
FCFC
FCFC
FCFC
FCFC
FCFC
FCFC
FCFC
FFFC
7FF8
7FF8
3FF0
0FC0
ENDCHAR
STARTCHAR Obreve
ENCODING 334
SWIDTH 486 0
DWIDTH 16 0
BBX 14 35 1 0
BITMAP
7878
7CF8
7FF8
7FF0
3FF0
0FC0
0000
0FC0
3FE0
7FF0
7FF8
FFF8
FCF8
F8FC
F8FC
F8FC
F8FC
F8FC
F8FC
F8FC
F8FC
F8FC
F8FC
F8FC
F8FC
F8FC
F8FC
F8FC
F8FC
FCF8
FFF8
7FF8
7FF0
3FE0
0FC0
ENDCHAR
STARTCHAR obreve
ENCODING 335
SWIDTH 497 0
DWIDTH 16 0
BBX 14 31 1 0
BITMAP
7878
7CF8
7FF8
7FF8
3FF0
0FC0
0000
0FC0
3FF0
7FF8
7FF8
FDFC
FCFC
FCFC
FCFC
FCFC
FCFC
FCFC
FCFC
FCFC
FCFC
FCFC
FCFC
FCFC
FCFC
FCFC
FFFC
7FF8
7FF8
3FF0
0FC0
ENDCHAR
STARTCHAR Ohungarumlaut
ENCODING 336
SWIDTH 486 0
DWIDTH 16 0
BBX 15 38 1 0
BITMAP
0210
07DE
07BC
07BC
0F78
0E70
1EF0
1CE0
0420
0000
0FC0
3FE0
7FF0
7FF8
FFF8
FCF8
F8FC
F8FC
F8FC
F8FC
F8FC
F8FC
F8FC
F8FC
F8FC
F8FC
F8FC
F8FC
F8FC
F8FC
F8FC
F8FC
FCF8
FFF8
7FF8
7FF0
3FE0
0FC0
ENDCHAR
STARTCHAR ohungarumlaut
ENCODING 337
SWIDTH 497 0
DWIDTH 16 0
BBX 15 34 1 0
BITMAP
0210
03DC
07BE
07BC
0F78
0F78
0EF0
1CE0
0420
0000
0FC0
3FF0
7FF8
7FF8
FDFC
FCFC
FCFC
FCFC
FCFC
FCFC
FCFC
FCFC
FCFC
FCFC
FCFC
FCFC
FCFC
FCFC
FCFC
FFFC
7FF8
7FF8
3FF0
0FC0
ENDCHAR
STARTCHAR OE
ENCODING 338
SWIDTH 649 0
DWIDTH 21 0
BBX 19 28 1 0
BITMAP
0FFFE0
3FFFE0
7FFFE0
FFFFE0
FCFC00
F8FC00
F8FC00
F8FC00
F8FC00
F8FC00
F8FC00
F8FFE0
F8FFE0
F8FFE0
F8FFE0
F8FC00
F8FC00
F8FC00
F8FC00
F8FC00
F8FC00
F8FC00
F8FC00
FCFC00
FFFFE0
7FFFE0
3FFFE0
0FFFE0
ENDCHAR
STARTCHAR oe
ENCODING 339
SWIDTH 739 0
DWIDTH 24 0
BBX 22 24 1 0
BITMAP
0F8FC0
3FFFF0
7FFFF8
7FFFF8
FDFCFC
FCFCFC
F8FCFC
F8FCFC
F8FCFC
F8FFFC
F8FFFC
F8FFFC
F8FFFC
F8FC00
F8FC00
F8FCFC
F8FCFC
F8FCFC
F8FCFC
FDFDF8
FFFFF8
7FFFF8
3FFFF0
0F8FC0
ENDCHAR
STARTCHAR Racute
ENCODING 340
SWIDTH 477 0
DWIDTH 15 0
BBX 14 36 1 0
BITMAP
0020
00C0
03C0
0FC0
1FC0
1FC0
1E00
0000
FFE0
FFF0
FFF8
FFF8
FFF8
FCFC
FCFC
FCFC
FCFC
FCFC
FCF8
FFF8
FFF0
FFE0
FFF8
FCF8
FCF8
FCF8
FCF8
FCF8
FCF8
FCF8
FCF8
FCF8
FCF8
FCF8
FCF8
FCF8
ENDCHAR
STARTCHAR racute
ENCODING 341
SWIDTH 344 0
DWIDTH 11 0
BBX 10 32 1 0
BITMAP
0080
0380
0F80
3F80
7F80
7F80
7C00
0000
FDC0
FFC0
FFC0
FFC0
FF80
FC00
FC00
FC00
FC00
FC00
FC00
FC00
FC00
FC00
FC00
FC00
FC00
FC00
FC00
FC00
FC00
FC00
FC00
FC00
ENDCHAR
STARTCHAR Rcommaaccent
ENCODING 342
SWIDTH 477 0
DWIDTH 15 0
BBX 14 37 1 -9
BITMAP
FFE0
FFF0
FFF8
FFF8
FFF8
FCFC
FCFC
FCFC
FCFC
FCFC
FCF8
FFF8
FFF0
FFE0
FFF8
FCF8
FCF8
FCF8
FCF8
FCF8
FCF8
FCF8
FCF8
FCF8
FCF8
FCF8
FCF8
FCF8
0000
0000
0FC0
0FC0
0FC0
0FC0
0380
0780
0780
ENDCHAR
STARTCHAR rcommaaccent
ENCODING 343
SWIDTH 344 0
DWIDTH 11 0
BBX 10 33 1 -9
BITMAP
FDC0
FFC0
FFC0
FFC0
FF80
FC00
FC00
FC00
FC00
FC00
FC00
FC00
FC00
FC00
FC00
FC00
FC00
FC00
FC00
FC00
FC00
FC00
FC00
FC00
0000
0000
FC00
FC00
FC00
FC00
3C00
3800
7800
ENDCHAR
STARTCHAR Rcaron
ENCODING 344
SWIDTH 477 0
DWIDTH 15 0
BBX 14 35 1 0
BITMAP
F8F8
FDF8
7DF0
3DE0
3FE0
1FC0
0000
FFE0
FFF0
FFF8
FFF8
FFF8
FCFC
FCFC
FCFC
FCFC
FCFC
FCF8
FFF8
FFF0
FFE0
FFF8
FCF8
FCF8
FCF8
FCF8
FCF8
FCF8
FCF8
FCF8
FCF8
FCF8
FCF8
FCF8
FCF8
ENDCHAR
STARTCHAR rcaron
ENCODING 345
SWIDTH 342 0
DWIDTH 11 0
BBX 14 31 -1 0
BITMAP
FCFC
7CF8
3EF8
3FF0
1FE0
0FE0
0000
3F70
3FF0
3FF0
3FF0
3FE0
3F00
3F00
3F00
3F00
3F00
3F00
3F00
3F00
3F00
3F00
3F00
3F00
3F00
3F00
3F00
3F00
3F00
3F00
3F00
ENDCHAR
STARTCHAR Sacute
ENCODING 346
SWIDTH 461 0
DWIDTH 15 0
BBX 13 36 1 0
BITMAP
0040
00C0
07C0
1FC0
1FC0
1FC0
1E00
0000
1F80
3FE0
7FF0
FFF0
FFF8
F9F8
F9F8
F9F8
FC00
FE00
FF00
7F80
3FC0
1FE0
0FF0
07F0
03F8
F9F8
F9F8
F8F8
F8F8
F8F8
F9F8
FFF8
FFF0
7FF0
3FE0
1FC0
ENDCHAR
STARTCHAR sacute
ENCODING 347
SWIDTH 475 0
DWIDTH 15 0
BBX 14 32 1 0
BITMAP
0020
00C0
03C0
0FC0
1FC0
1FC0
1E00
0000
0FC0
3FF0
7FF0
FFF8
FDF8
F8F8
F8F8
FC00
FF00
7F80
7FC0
3FE0
0FF0
07F8
03F8
F9F8
F8FC
F8FC
F8FC
FDF8
FFF8
7FF0
3FE0
1FC0
ENDCHAR
STARTCHAR Scircumflex
ENCODING 348
SWIDTH 461 0
DWIDTH 15 0
BBX 14 35 0 0
BITMAP
0FE0
1FE0
1EF0
3EF8
7CF8
FC7C
0000
0FC0
1FF0
3FF8
7FF8
7FFC
7CFC
7CFC
7CFC
7E00
7F00
7F80
3FC0
1FE0
0FF0
07F8
03F8
01FC
7CFC
7CFC
7C7C
7C7C
7C7C
7CFC
7FFC
7FF8
3FF8
1FF0
0FE0
ENDCHAR
STARTCHAR scircumflex
ENCODING 349
SWIDTH 475 0
DWIDTH 15 0
BBX 14 31 1 0
BITMAP
1FC0
1FE0
3DE0
7DF0
7CF8
F8FC
0000
0FC0
3FF0
7FF0
FFF8
FDF8
F8F8
F8F8
FC00
FF00
7F80
7FC0
3FE0
0FF0
07F8
03F8
F9F8
F8FC
F8FC
F8FC
FDF8
FFF8
7FF0
3FE0
1FC0
ENDCHAR
STARTCHAR Scedilla
ENCODING 350
SWIDTH 461 0
DWIDTH 15 0
BBX 13 38 1 -10
BITMAP
1F80
3FE0
7FF0
FFF0
FFF8
F9F8
F9F8
F9F8
FC00
FE00
FF00
7F80
3FC0
1FE0
0FF0
07F0
03F8
01F8
F9F8
F8F8
F8F8
F8F8
F9F8
FFF8
FFF0
7FF0
3FE0
1FC0
0700
0380
03C0
01C0
01C0
03E0
1FE0
1FE0
1FC0
1F80
ENDCHAR
STARTCHAR scedilla
ENCODING 351
SWIDTH 475 0
DWIDTH 15 0
BBX 14 34 1 -10
BITMAP
0FC0
3FF0
7FF0
FFF8
FDF8
F8F8
F8F8
FC00
FE00
7F80
7FC0
3FE0
0FF0
07F8
03F8
F9F8
F8FC
F8FC
F8FC
FDF8
FFF8
7FF8
7FF0
1FC0
0700
0380
03C0
01C0
01C0
03E0
1FE0
1FE0
1FC0
1F80
ENDCHAR
STARTCHAR Scaron
ENCODING 352
SWIDTH 461 0
DWIDTH 15 0
BBX 14 35 0 0
BITMAP
FCFC
7CF8
3EF8
1EF0
1FE0
0FE0
0000
0FC0
1FF0
3FF8
7FF8
7FFC
7CFC
7CFC
7CFC
7E00
7F00
7F80
3FC0
1FE0
0FF0
07F8
03F8
01FC
7CFC
7CFC
7C7C
7C7C
7C7C
7CFC
7FFC
7FF8
3FF8
1FF0
0FE0
ENDCHAR
STARTCHAR scaron
ENCODING 353
SWIDTH 476 0
DWIDTH 15 0
BBX 14 31 1 0
BITMAP
F8FC
7DF8
7DF0
3DE0
1FE0
1FC0
0000
0FC0
3FF0
7FF0
FFF8
FDF8
F8F8
F8F8
FC00
FF00
7F80
7FC0
3FE0
0FF0
07F8
03F8
F9F8
F8FC
F8FC
F8FC
FDF8
FFF8
7FF0
3FE0
1FC0
ENDCHAR
STARTCHAR uni0162
ENCODING 354
SWIDTH 396 0
DWIDTH 13 0
BBX 12 38 0 -10
BITMAP
FFF0
FFF0
FFF0
FFF0
FFF0
0F80
0F80
0F80
0F80
0F80
0F80
0F80
0F80
0F80
0F80
0F80
0F80
0F80
0F80
0F80
0F80
0F80
0F80
0F80
0F80
0F80
0F80
0F80
0700
0380
0380
03C0
03C0
17E0
1FE0
1FC0
1FC0
1F80
ENDCHAR
STARTCHAR uni0163
ENCODING 355
SWIDTH 305 0
DWIDTH 10 0
BBX 9 38 1 -10
BITMAP
7E00
7E00
7E00
7E00
7E00
FF00
FF00
FF00
FF00
7E00
7E00
7E00
7E00
7E00
7E00
7E00
7E00
7E00
7E00
7E00
7E00
7E00
7E00
7E00
7F00
7F00
3F00
1F00
0E00
0700
0700
0780
0780
6F80
7F80
7F80
7F00
3E00
ENDCHAR
STARTCHAR Tcaron
ENCODING 356
SWIDTH 396 0
DWIDTH 13 0
BBX 14 35 -1 0
BITMAP
FCFC
7CF8
3EF8
1EF0
1FE0
0FE0
0000
7FF8
7FF8
7FF8
7FF8
7FF8
07C0
07C0
07C0
07C0
07C0
07C0
07C0
07C0
07C0
07C0
07C0
07C0
07C0
07C0
07C0
07C0
07C0
07C0
07C0
07C0
07C0
07C0
07C0
ENDCHAR
STARTCHAR tcaron
ENCODING 357
SWIDTH 305 0
DWIDTH 10 0
BBX 15 28 1 0
BITMAP
7E7E
7E7E
7E7E
7E7E
7E1E
FF1C
FF3C
FF3C
FF00
7E00
7E00
7E00
7E00
7E00
7E00
7E00
7E00
7E00
7E00
7E00
7E00
7E00
7E00
7E00
7F00
7F00
3F00
3F00
ENDCHAR
STARTCHAR Tbar
ENCODING 358
SWIDTH 396 0
DWIDTH 13 0
BBX 12 28 0 0
BITMAP
FFF0
FFF0
FFF0
FFF0
FFF0
0F80
0F80
0F80
0F80
0F80
0F80
0F80
0F80
7FE0
7FE0
0F80
0F80
0F80
0F80
0F80
0F80
0F80
0F80
0F80
0F80
0F80
0F80
0F80
ENDCHAR
STARTCHAR tbar
ENCODING 359
SWIDTH 305 0
DWIDTH 10 0
BBX 10 28 0 0
BITMAP
3F00
3F00
3F00
3F00
3F00
7F80
7F80
7F80
7F80
3F00
3F00
3F00
3F00
3F00
3F00
FFC0
FFC0
3F00
3F00
3F00
3F00
3F00
3F00
3F00
3F80
3F80
1F80
1F80
ENDCHAR
STARTCHAR Utilde
ENCODING 360
SWIDTH 474 0
DWIDTH 15 0
BBX 13 35 1 0
BITMAP
3F38
7FF8
7FF0
FFF0
23E0
0000
0000
F8F8
F8F8
F8F8
F8F8
F8F8
F8F8
F8F8
F8F8
F8F8
F8F8
F8F8
F8F8
F8F8
F8F8
F8F8
F8F8
F8F8
F8F8
F8F8
F8F8
F8F8
F8F8
FCF8
FFF8
7FF8
7FF0
3FE0
0FC0
ENDCHAR
STARTCHAR utilde
ENCODING 361
SWIDTH 499 0
DWIDTH 16 0
BBX 14 31 1 0
BITMAP
1F38
3FF8
7FF8
7FF0
21E0
0000
0000
FCFC
FCFC
FCFC
FCFC
FCFC
FCFC
FCFC
FCFC
FCFC
FCFC
FCFC
FCFC
FCFC
FCFC
FCFC
FCFC
FCFC
FCFC
FCFC
FCFC
FFFC
7FFC
7FFC
3EFC
ENDCHAR
STARTCHAR Umacron
ENCODING 362
SWIDTH 474 0
DWIDTH 15 0
BBX 13 32 1 0
BITMAP
7FF0
7FF0
0000
0000
F8F8
F8F8
F8F8
F8F8
F8F8
F8F8
F8F8
F8F8
F8F8
F8F8
F8F8
F8F8
F8F8
F8F8
F8F8
F8F8
F8F8
F8F8
F8F8
F8F8
F8F8
F8F8
FCF8
FFF8
7FF8
7FF0
3FE0
0FC0
ENDCHAR
STARTCHAR umacron
ENCODING 363
SWIDTH 499 0
DWIDTH 16 0
BBX 14 28 1 0
BITMAP
3FF0
3FF0
0000
0000
FCFC
FCFC
FCFC
FCFC
FCFC
FCFC
FCFC
FCFC
FCFC
FCFC
FCFC
FCFC
FCFC
FCFC
FCFC
FCFC
FCFC
FCFC
FCFC
FCFC
FFFC
7FFC
7FFC
3EFC
ENDCHAR
STARTCHAR Ubreve
ENCODING 364
SWIDTH 474 0
DWIDTH 15 0
BBX 13 35 1 0
BITMAP
7878
7DF8
7FF8
7FF0
3FF0
1FC0
0000
F8F8
F8F8
F8F8
F8F8
F8F8
F8F8
F8F8
F8F8
F8F8
F8F8
F8F8
F8F8
F8F8
F8F8
F8F8
F8F8
F8F8
F8F8
F8F8
F8F8
F8F8
F8F8
FCF8
FFF8
7FF8
7FF0
3FE0
0FC0
ENDCHAR
STARTCHAR ubreve
ENCODING 365
SWIDTH 499 0
DWIDTH 16 0
BBX 14 31 1 0
BITMAP
7878
7CF8
7FF8
7FF8
3FF0
0FC0
0000
FCFC
FCFC
FCFC
FCFC
FCFC
FCFC
FCFC
FCFC
FCFC
FCFC
FCFC
FCFC
FCFC
FCFC
FCFC
FCFC
FCFC
FCFC
FCFC
FCFC
FFFC
7FFC
7FFC
3EFC
ENDCHAR
STARTCHAR Uring
ENCODING 366
SWIDTH 474 0
DWIDTH 15 0
BBX 13 40 1 0
BITMAP
0F80
1FE0
3FE0
78F0
7870
7070
7870
78F0
3FE0
3FE0
0F80
0000
F8F8
F8F8
F8F8
F8F8
F8F8
F8F8
F8F8
F8F8
F8F8
F8F8
F8F8
F8F8
F8F8
F8F8
F8F8
F8F8
F8F8
F8F8
F8F8
F8F8
F8F8
F8F8
FCF8
FFF8
7FF8
7FF0
3FE0
0FC0
ENDCHAR
STARTCHAR uring
ENCODING 367
SWIDTH 499 0
DWIDTH 16 0
BBX 14 36 1 0
BITMAP
0780
1FE0
3FF0
3CF0
3870
7878
3870
3CF0
3FF0
1FE0
0FC0
0000
FCFC
FCFC
FCFC
FCFC
FCFC
FCFC
FCFC
FCFC
FCFC
FCFC
FCFC
FCFC
FCFC
FCFC
FCFC
FCFC
FCFC
FCFC
FCFC
FCFC
FFFC
7FFC
7FFC
3EFC
ENDCHAR
STARTCHAR Uhungarumlaut
ENCODING 368
SWIDTH 474 0
DWIDTH 15 0
BBX 15 38 1 0
BITMAP
0210
07BE
07BC
0F7C
0F78
0E70
1EF0
1CE0
0420
0000
F8F8
F8F8
F8F8
F8F8
F8F8
F8F8
F8F8
F8F8
F8F8
F8F8
F8F8
F8F8
F8F8
F8F8
F8F8
F8F8
F8F8
F8F8
F8F8
F8F8
F8F8
F8F8
FCF8
FFF8
7FF8
7FF0
3FE0
0FC0
ENDCHAR
STARTCHAR uhungarumlaut
ENCODING 369
SWIDTH 499 0
DWIDTH 16 0
BBX 15 34 1 0
BITMAP
0210
03DE
07BE
07BC
0F78
0F78
0EF0
1CE0
0420
0000
FCFC
FCFC
FCFC
FCFC
FCFC
FCFC
FCFC
FCFC
FCFC
FCFC
FCFC
FCFC
FCFC
FCFC
FCFC
FCFC
FCFC
FCFC
FCFC
FCFC
FFFC
7FFC
7FFC
3EFC
ENDCHAR
STARTCHAR Uogonek
ENCODING 370
SWIDTH 474 0
DWIDTH 15 0
BBX 13 38 1 -10
BITMAP
F8F8
F8F8
F8F8
F8F8
F8F8
F8F8
F8F8
F8F8
F8F8
F8F8
F8F8
F8F8
F8F8
F8F8
F8F8
F8F8
F8F8
F8F8
F8F8
F8F8
F8F8
F8F8
FDF8
FFF8
7FF8
7FF0
3FE0
0F80
0F00
1E00
3C00
7C00
7C00
7F40
7FC0
3FC0
1FC0
0F80
ENDCHAR
STARTCHAR uogonek
ENCODING 371
SWIDTH 499 0
DWIDTH 16 0
BBX 14 34 1 -10
BITMAP
FCFC
FCFC
FCFC
FCFC
FCFC
FCFC
FCFC
FCFC
FCFC
FCFC
FCFC
FCFC
FCFC
FCFC
FCFC
FCFC
FCFC
FCFC
FCFC
FCFC
FFFC
7FFC
7FFC
3EFC
00F0
01E0
03C0
07C0
07C0
07E4
07FC
03FC
03FC
00F8
ENDCHAR
STARTCHAR Wcircumflex
ENCODING 372
SWIDTH 712 0
DWIDTH 23 0
BBX 22 35 0 0
BITMAP
00FE00
01FF00
01EF00
03EF80
03EFC0
07C7E0
000000
FC7C7C
7C7C7C
7C7C7C
7C7C7C
7CFC7C
7CFCFC
7CFEFC
7CFEFC
7EFEF8
7EFEF8
3EFEF8
3EFEF8
3EFEF8
3EFEF8
3EFEF8
3EFEF8
3FEEF8
3FEFF8
3FEFF0
3FEFF0
1FEFF0
1FEFF0
1FEFF0
1FEFF0
1FCFF0
1FC7F0
1FC7F0
1FC7E0
ENDCHAR
STARTCHAR wcircumflex
ENCODING 373
SWIDTH 696 0
DWIDTH 22 0
BBX 21 31 1 0
BITMAP
01FC00
03FC00
03DE00
07DF00
0F9F00
1F9F80
000000
F9F1F8
F9F9F0
F9F9F0
F9F9F0
F9F9F0
F9F9F0
79F9F0
79FBF0
7DFBE0
7FFFE0
7FFFE0
7FFFE0
7FDFE0
7FDFE0
7FDFE0
3FDFE0
3FDFC0
3FDFC0
3F9FC0
3F9FC0
3F9FC0
3F8FC0
3F8FC0
1F8FC0
ENDCHAR
STARTCHAR Ycircumflex
ENCODING 374
SWIDTH 446 0
DWIDTH 14 0
BBX 14 35 0 0
BITMAP
0FE0
1FE0
3FF0
3EF8
7CF8
FCFC
0000
FC7C
7CFC
7CFC
7CF8
7CF8
7CF8
3EF8
3FF0
3FF0
3FF0
1FF0
1FE0
1FE0
1FE0
0FE0
0FE0
0FC0
0FC0
0FC0
07C0
07C0
07C0
07C0
07C0
07C0
07C0
07C0
07C0
ENDCHAR
STARTCHAR ycircumflex
ENCODING 375
SWIDTH 461 0
DWIDTH 15 0
BBX 14 35 0 -4
BITMAP
0FE0
1FE0
1EF0
3EF8
7EF8
FC7C
0000
FC7C
FC7C
7C7C
7C7C
7C7C
7CF8
7CF8
7CF8
3CF8
3CF8
3EF8
3EF0
3EF0
3EF0
1FF0
1FF0
1FF0
1FE0
1FE0
1FE0
1FE0
0FE0
0FE0
0FC0
7FC0
7FC0
7FC0
7F80
ENDCHAR
STARTCHAR Ydieresis
ENCODING 376
SWIDTH 446 0
DWIDTH 14 0
BBX 14 33 0 0
BITMAP
FCFC
FCFC
FCFC
FCFC
0000
FC7C
7CFC
7CFC
7CF8
7CF8
7CF8
3EF8
3FF0
3FF0
3FF0
1FF0
1FE0
1FE0
1FE0
0FE0
0FE0
0FC0
0FC0
0FC0
07C0
07C0
07C0
07C0
07C0
07C0
07C0
07C0
07C0
ENDCHAR
STARTCHAR Zacute
ENCODING 377
SWIDTH 410 0
DWIDTH 13 0
BBX 12 36 1 0
BITMAP
0040
01C0
07C0
1FC0
3FC0
3FC0
3E00
0000
FFF0
FFF0
FFF0
FFF0
FFF0
03E0
07E0
07E0
07C0
0FC0
0FC0
0F80
1F80
1F80
3F00
3F00
3E00
7E00
7E00
7C00
FC00
FC00
F800
FFE0
FFE0
FFE0
FFE0
FFE0
ENDCHAR
STARTCHAR zacute
ENCODING 378
SWIDTH 386 0
DWIDTH 12 0
BBX 12 32 0 0
BITMAP
0020
00C0
03C0
0FC0
1FC0
1FC0
1F00
0000
7FF0
7FF0
7FF0
7FF0
03F0
03E0
07E0
07E0
07C0
0FC0
0FC0
0F80
1F80
1F80
1F00
3F00
3F00
3E00
7E00
7E00
FFF0
FFF0
FFF0
FFF0
ENDCHAR
STARTCHAR Zdotaccent
ENCODING 379
SWIDTH 410 0
DWIDTH 13 0
BBX 12 33 1 0
BITMAP
1F80
1F80
1F80
1F80
0000
FFF0
FFF0
FFF0
FFF0
FFF0
03E0
07E0
07E0
07C0
0FC0
0FC0
0F80
1F80
1F80
3F00
3F00
3E00
7E00
7E00
7C00
FC00
FC00
F800
FFE0
FFE0
FFE0
FFE0
FFE0
ENDCHAR
STARTCHAR zdotaccent
ENCODING 380
SWIDTH 386 0
DWIDTH 12 0
BBX 12 29 0 0
BITMAP
0FC0
0FC0
0FC0
0FC0
0000
7FF0
7FF0
7FF0
7FF0
03F0
03E0
07E0
07E0
07C0
0FC0
0FC0
0F80
1F80
1F80
1F00
3F00
3F00
3E00
7E00
7E00
FFF0
FFF0
FFF0
FFF0
ENDCHAR
STARTCHAR Zcaron
ENCODING 381
SWIDTH 410 0
DWIDTH 13 0
BBX 14 35 0 0
BITMAP
FCFC
7CF8
7DF0
3FF0
1FE0
1FC0
0000
7FF8
7FF8
7FF8
7FF8
7FF8
01F0
03F0
03F0
03E0
07E0
07E0
07C0
0FC0
0FC0
1F80
1F80
1F00
3F00
3F00
3E00
7E00
7E00
7C00
7FF0
7FF0
7FF0
7FF0
7FF0
ENDCHAR
STARTCHAR zcaron
ENCODING 382
SWIDTH 386 0
DWIDTH 12 0
BBX 14 31 0 0
BITMAP
FCFC
7CF8
7DF0
3FF0
1FE0
1FC0
0000
7FF0
7FF0
7FF0
7FF0
03F0
03E0
07E0
07E0
07C0
0FC0
0FC0
0F80
1F80
1F80
1F00
3F00
3F00
3E00
7E00
7E00
FFF0
FFF0
FFF0
FFF0
ENDCHAR
STARTCHAR uni018F
ENCODING 399
SWIDTH 488 0
DWIDTH 16 0
BBX 14 28 1 0
BITMAP
0FC0
3FE0
7FF0
7FF8
FFF8
FCF8
FCFC
FCFC
FCFC
FCFC
FCFC
00FC
00FC
00FC
FFFC
FFFC
FFFC
FFFC
FCFC
FCFC
FCFC
FCF8
FCF8
FFF8
7FF8
7FF0
3FE0
0FC0
ENDCHAR
STARTCHAR florin
ENCODING 402
SWIDTH 303 0
DWIDTH 10 0
BBX 8 27 1 0
BITMAP
0E
3F
7F
7F
7F
7C
FF
FF
FF
FF
7E
7E
7E
7E
7E
7E
7E
7E
7E
7E
7E
7E
7E
FE
FC
FC
F8
ENDCHAR
STARTCHAR Ohorn
ENCODING 416
SWIDTH 490 0
DWIDTH 16 0
BBX 14 31 1 0
BITMAP
003C
003C
007C
0FFC
3FF8
7FF0
7FF8
FFF8
FCF8
F8FC
F8FC
F8FC
F8FC
F8FC
F8FC
F8FC
F8FC
F8FC
F8FC
F8FC
F8FC
F8FC
F8FC
F8FC
F8FC
FCF8
FFF8
7FF8
7FF0
3FE0
0FC0
ENDCHAR
STARTCHAR ohorn
ENCODING 417
SWIDTH 497 0
DWIDTH 16 0
BBX 14 27 1 0
BITMAP
003C
003C
007C
0FFC
3FF8
7FF8
7FF8
FDFC
FCFC
FCFC
FCFC
FCFC
FCFC
FCFC
FCFC
FCFC
FCFC
FCFC
FCFC
FCFC
FCFC
FCFC
FFFC
7FF8
7FF8
3FF0
0FC0
ENDCHAR
STARTCHAR Uhorn
ENCODING 431
SWIDTH 569 0
DWIDTH 18 0
BBX 17 31 1 0
BITMAP
000F80
000F80
000F80
F8FF00
F8FF00
F8FE00
F8F800
F8F800
F8F800
F8F800
F8F800
F8F800
F8F800
F8F800
F8F800
F8F800
F8F800
F8F800
F8F800
F8F800
F8F800
F8F800
F8F800
F8F800
F8F800
FCF800
FFF800
7FF800
7FF000
3FE000
0FC000
ENDCHAR
STARTCHAR uhorn
ENCODING 432
SWIDTH 570 0
DWIDTH 18 0
BBX 17 27 1 0
BITMAP
000780
000780
000F80
FCFF80
FCFF00
FCFE00
FCFC00
FCFC00
FCFC00
FCFC00
FCFC00
FCFC00
FCFC00
FCFC00
FCFC00
FCFC00
FCFC00
FCFC00
FCFC00
FCFC00
FCFC00
FCFC00
FCFC00
FFFC00
7FFC00
7FFC00
3EFC00
ENDCHAR
STARTCHAR uni01C4
ENCODING 452
SWIDTH 903 0
DWIDTH 29 0
BBX 29 35 1 0
BITMAP
0001F1F8
0000FBF0
0000FBE0
00007BC0
00007FC0
00003F80
00000000
FFE0FFE0
FFF0FFE0
FFF8FFE0
FFF8FFE0
FDFCFFE0
FCFC07E0
FCFC07E0
FCFC07C0
FCFC0FC0
FCFC0FC0
FCFC0F80
FCFC1F80
FCFC1F80
FCFC1F00
FCFC3F00
FCFC3F00
FCFC3E00
FCFC7E00
FCFC7E00
FCFC7C00
FCFCFC00
FCFCF800
FCFDF800
FDF9FFE0
FFF9FFE0
FFF9FFE0
FFF1FFE0
FFC1FFE0
ENDCHAR
STARTCHAR uni01C5
ENCODING 453
SWIDTH 879 0
DWIDTH 28 0
BBX 29 31 1 0
BITMAP
0001F1F8
0000FBF0
0000FBE0
FFE07BC0
FFF07FC0
FFF83F80
FFF80000
FDFDFFE0
FCFDFFE0
FCFDFFE0
FCFDFFE0
FCFC07E0
FCFC07C0
FCFC0FC0
FCFC0FC0
FCFC0F80
FCFC1F80
FCFC1F80
FCFC3F00
FCFC3F00
FCFC3E00
FCFC7E00
FCFC7E00
FCFC7C00
FCFCFC00
FCFCFC00
FDF8F800
FFF9FFE0
FFF9FFE0
FFF1FFE0
FFC1FFE0
ENDCHAR
STARTCHAR uni01C6
ENCODING 454
SWIDTH 884 0
DWIDTH 28 0
BBX 29 31 1 0
BITMAP
0001F9F8
0000F9F0
0000FBE0
00FC7FE0
00FC3FC0
00FC3F80
00FC0000
1EFCFFE0
7FFCFFE0
7FFCFFE0
FFFCFFE0
FDFC07E0
FCFC07C0
FCFC0FC0
FCFC0FC0
FCFC0F80
FCFC1F80
FCFC1F80
FCFC1F00
FCFC3F00
FCFC3F00
FCFC3E00
FCFC7E00
FCFC7E00
FCFCFC00
FCFCFC00
FDFCFC00
FFFDFFE0
7FFDFFE0
7FFDFFE0
3EFDFFE0
ENDCHAR
STARTCHAR uni01C7
ENCODING 455
SWIDTH 863 0
DWIDTH 28 0
BBX 26 28 1 0
BITMAP
FC000FC0
FC000FC0
FC000FC0
FC000FC0
FC000FC0
FC000FC0
FC000FC0
FC000FC0
FC000FC0
FC000FC0
FC000FC0
FC000FC0
FC000FC0
FC000FC0
FC000FC0
FC0FCFC0
FC0FCFC0
FC0FCFC0
FC0FCFC0
FC0FCFC0
FC0FCFC0
FC0FCFC0
FC0FCFC0
FC07FF80
FFE7FF80
FFE7FF00
FFE3FE00
FFE0FC00
ENDCHAR
STARTCHAR uni01C8
ENCODING 456
SWIDTH 660 0
DWIDTH 21 0
BBX 19 32 1 -2
BITMAP
0007E0
0007E0
FC07E0
FC07E0
FC0000
FC0000
FC07E0
FC07E0
FC07E0
FC07E0
FC07E0
FC07E0
FC07E0
FC07E0
FC07E0
FC07E0
FC07E0
FC07E0
FC07E0
FC07E0
FC07E0
FC07E0
FC07E0
FC07E0
FC07E0
FC07E0
FFE7E0
FFE7E0
FFEFE0
FFEFE0
000FC0
000F80
ENDCHAR
STARTCHAR uni01C9
ENCODING 457
SWIDTH 511 0
DWIDTH 16 0
BBX 14 32 1 -2
BITMAP
007C
007C
FC7C
FC7C
FC00
FC00
FC7C
FC7C
FC7C
FC7C
FC7C
FC7C
FC7C
FC7C
FC7C
FC7C
FC7C
FC7C
FC7C
FC7C
FC7C
FC7C
FC7C
FC7C
FC7C
FC7C
FC7C
FC7C
FDFC
FDFC
01FC
01F8
ENDCHAR
STARTCHAR uni01CA
ENCODING 458
SWIDTH 964 0
DWIDTH 31 0
BBX 29 28 1 0
BITMAP
FCFC01F8
FCFC01F8
FCFC01F8
FEFC01F8
FEFC01F8
FEFC01F8
FEFC01F8
FEFC01F8
FEFC01F8
FFFC01F8
FFFC01F8
FFFC01F8
FFFC01F8
FFFC01F8
FFFC01F8
FFFCF9F8
FFFCF9F8
FFFCF9F8
FFFCF9F8
FDFCF9F8
FDFCF9F8
FDFCF9F8
FDFCF9F8
FDFCFFF8
FCFCFFF0
FCFC7FF0
FCFC3FE0
FCFC1F80
ENDCHAR
STARTCHAR uni01CB
ENCODING 459
SWIDTH 761 0
DWIDTH 24 0
BBX 22 32 1 -2
BITMAP
00007C
00007C
FCFC7C
FCFC7C
FCFC00
FEFC00
FEFC7C
FEFC7C
FEFC7C
FEFC7C
FEFC7C
FFFC7C
FFFC7C
FFFC7C
FFFC7C
FFFC7C
FFFC7C
FFFC7C
FFFC7C
FFFC7C
FFFC7C
FDFC7C
FDFC7C
FDFC7C
FDFC7C
FDFC7C
FCFC7C
FCFC7C
FCFDFC
FCFDFC
0001FC
0001F8
ENDCHAR
STARTCHAR uni01CC
ENCODING 460
SWIDTH 762 0
DWIDTH 24 0
BBX 22 32 1 -2
BITMAP
00007C
00007C
00007C
00007C
000000
000000
FDF07C
FFF87C
FFF87C
FFFC7C
FCFC7C
FCFC7C
FCFC7C
FCFC7C
FCFC7C
FCFC7C
FCFC7C
FCFC7C
FCFC7C
FCFC7C
FCFC7C
FCFC7C
FCFC7C
FCFC7C
FCFC7C
FCFC7C
FCFC7C
FCFC7C
FCFCFC
FCFCFC
0000FC
0000F8
ENDCHAR
STARTCHAR uni01CD
ENCODING 461
SWIDTH 485 0
DWIDTH 16 0
BBX 15 35 0 0
BITMAP
7E7E
3E7C
3EF8
1EF0
0FF0
0FE0
0000
1FF8
1FF8
1FF8
1FF8
1FF8
1FF8
1EF8
3EF8
3EF8
3EF8
3EF8
3EFC
3E7C
3E7C
3E7C
3E7C
3E7C
7E7C
7E7C
7FFC
7FFC
7FFC
7FFE
7C7E
7C3E
7C3E
7C3E
FC3E
ENDCHAR
STARTCHAR uni01CE
ENCODING 462
SWIDTH 483 0
DWIDTH 15 0
BBX 14 31 1 0
BITMAP
FCFC
7CF8
7DF0
3FF0
1FE0
1FC0
0000
1FC0
3FF0
7FF0
FFF8
FDF8
F8F8
F8F8
00F8
00F8
03F8
1FF8
7FF8
7CF8
FCF8
F8F8
F8F8
F8F8
F8F8
F8F8
FDF8
FFF8
FFF8
7EF8
3CF8
ENDCHAR
STARTCHAR uni01CF
ENCODING 463
SWIDTH 227 0
DWIDTH 7 0
BBX 14 35 -3 0
BITMAP
F8FC
7DF8
7DF0
3DE0
3FE0
1FC0
0000
0F80
0F80
0F80
0F80
0F80
0F80
0F80
0F80
0F80
0F80
0F80
0F80
0F80
0F80
0F80
0F80
0F80
0F80
0F80
0F80
0F80
0F80
0F80
0F80
0F80
0F80
0F80
0F80
ENDCHAR
STARTCHAR uni01D0
ENCODING 464
SWIDTH 235 0
DWIDTH 8 0
BBX 14 31 -3 0
BITMAP
FCFC
7CF8
7DF0
3FF0
1FE0
1FC0
0000
0FC0
0FC0
0FC0
0FC0
0FC0
0FC0
0FC0
0FC0
0FC0
0FC0
0FC0
0FC0
0FC0
0FC0
0FC0
0FC0
0FC0
0FC0
0FC0
0FC0
0FC0
0FC0
0FC0
0FC0
ENDCHAR
STARTCHAR uni01D1
ENCODING 465
SWIDTH 486 0
DWIDTH 16 0
BBX 14 35 1 0
BITMAP
FCFC
7CF8
7DF0
3FF0
1FE0
1FC0
0000
0FC0
3FE0
7FF0
7FF8
FFF8
FCF8
F8FC
F8FC
F8FC
F8FC
F8FC
F8FC
F8FC
F8FC
F8FC
F8FC
F8FC
F8FC
F8FC
F8FC
F8FC
F8FC
FCF8
FFF8
7FF8
7FF0
3FE0
0FC0
ENDCHAR
STARTCHAR uni01D2
ENCODING 466
SWIDTH 497 0
DWIDTH 16 0
BBX 14 31 1 0
BITMAP
FCFC
7CF8
3DF0
3FF0
1FE0
1FC0
0000
0FC0
3FF0
7FF8
7FF8
FDFC
FCFC
FCFC
FCFC
FCFC
FCFC
FCFC
FCFC
FCFC
FCFC
FCFC
FCFC
FCFC
FCFC
FCFC
FFFC
7FF8
7FF8
3FF0
0FC0
ENDCHAR
STARTCHAR uni01D3
ENCODING 467
SWIDTH 474 0
DWIDTH 15 0
BBX 14 35 1 0
BITMAP
F8FC
7DF8
7DF0
3DE0
3FE0
1FC0
0000
F8F8
F8F8
F8F8
F8F8
F8F8
F8F8
F8F8
F8F8
F8F8
F8F8
F8F8
F8F8
F8F8
F8F8
F8F8
F8F8
F8F8
F8F8
F8F8
F8F8
F8F8
F8F8
FCF8
FFF8
7FF8
7FF0
3FE0
0FC0
ENDCHAR
STARTCHAR uni01D4
ENCODING 468
SWIDTH 499 0
DWIDTH 16 0
BBX 14 31 1 0
BITMAP
FCFC
7CF8
3CF0
3FF0
1FE0
1FE0
0000
FCFC
FCFC
FCFC
FCFC
FCFC
FCFC
FCFC
FCFC
FCFC
FCFC
FCFC
FCFC
FCFC
FCFC
FCFC
FCFC
FCFC
FCFC
FCFC
FCFC
FFFC
7FFC
7FFC
3EFC
ENDCHAR
STARTCHAR Gcaron
ENCODING 486
SWIDTH 485 0
DWIDTH 16 0
BBX 14 35 1 0
BITMAP
FCFC
7CF8
7DF0
3DE0
1FE0
1FC0
0000
0FC0
3FE0
7FF0
7FF8
FFF8
FCF8
F8F8
F8FC
F8FC
F8FC
F800
F800
F9FC
F9FC
F9FC
F9FC
F8FC
F8FC
F8FC
F8FC
F8FC
FCFC
FCFC
FFFC
7FFC
7FFC
3FDC
1F1C
ENDCHAR
STARTCHAR gcaron
ENCODING 487
SWIDTH 504 0
DWIDTH 16 0
BBX 14 35 1 -4
BITMAP
FCFC
7CF8
3CF0
3FF0
1FE0
1FC0
0000
3EFC
7FFC
7FFC
FFFC
FCFC
FCFC
FCFC
FCFC
FCFC
FCFC
FCFC
FCFC
FCFC
FCFC
FCFC
FCFC
FCFC
FEFC
FFFC
7FFC
7FFC
1EFC
00FC
79FC
7FF8
FFF8
FFF0
3FC0
ENDCHAR
STARTCHAR uni01E8
ENCODING 488
SWIDTH 472 0
DWIDTH 15 0
BBX 14 35 1 0
BITMAP
FCFC
7CF8
3CF0
3FF0
1FE0
1FE0
0000
FCFC
FCF8
FCF8
FDF8
FDF8
FDF0
FDF0
FDF0
FFF0
FFF0
FFE0
FFE0
FFE0
FFE0
FFE0
FFE0
FFF0
FFF0
FDF0
FDF0
FDF8
FDF8
FDF8
FCF8
FCFC
FCFC
FCFC
FC7C
ENDCHAR
STARTCHAR uni01E9
ENCODING 489
SWIDTH 491 0
DWIDTH 16 0
BBX 19 35 -3 0
BITMAP
FCFC00
7CF800
3DF000
3FF000
1FE000
1FC000
000000
0FC000
0FC000
0FC000
0FC000
0FCFC0
0FCFC0
0FCF80
0FDF80
0FDF80
0FDF00
0FFF00
0FFF00
0FFE00
0FFE00
0FFE00
0FFE00
0FFE00
0FFF00
0FFF00
0FFF00
0FDF80
0FDF80
0FDF80
0FCFC0
0FCFC0
0FCFC0
0FC7E0
0FC7E0
ENDCHAR
STARTCHAR uni01EA
ENCODING 490
SWIDTH 486 0
DWIDTH 16 0
BBX 14 37 1 -9
BITMAP
0FC0
3FE0
7FF0
7FF8
FFF8
FCF8
F8FC
F8FC
F8FC
F8FC
F8FC
F8FC
F8FC
F8FC
F8FC
F8FC
F8FC
F8FC
F8FC
F8FC
F8FC
F8FC
FCF8
FFF8
7FF8
7FF0
3FE0
0FE0
07C0
0780
0F80
0F80
0FD0
0FF0
07F0
07F0
01F0
ENDCHAR
STARTCHAR uni01EB
ENCODING 491
SWIDTH 497 0
DWIDTH 16 0
BBX 14 32 1 -8
BITMAP
0FC0
3FF0
7FF8
7FF8
FDFC
FCFC
FCFC
FCFC
FCFC
FCFC
FCFC
FCFC
FCFC
FCFC
FCFC
FCFC
FCFC
FCFC
FCFC
FCF8
FFF8
7FF0
3FE0
1FE0
03C0
07C0
07C0
07E8
07F8
07F8
03F8
00F8
ENDCHAR
STARTCHAR uni01F0
ENCODING 496
SWIDTH 263 0
DWIDTH 8 0
BBX 14 33 -2 -2
BITMAP
F8FC
7DF8
7DF0
3DE0
1FE0
1FC0
0000
0F80
0F80
0F80
0F80
0F80
0F80
0F80
0F80
0F80
0F80
0F80
0F80
0F80
0F80
0F80
0F80
0F80
0F80
0F80
0F80
0F80
0F80
1F80
1F80
1F80
1F00
ENDCHAR
STARTCHAR uni01F1
ENCODING 497
SWIDTH 903 0
DWIDTH 29 0
BBX 27 28 1 0
BITMAP
FFE0FFE0
FFF0FFE0
FFF8FFE0
FFF8FFE0
FDFCFFE0
FCFC07E0
FCFC07E0
FCFC07C0
FCFC0FC0
FCFC0FC0
FCFC0F80
FCFC1F80
FCFC1F80
FCFC1F00
FCFC3F00
FCFC3F00
FCFC3E00
FCFC7E00
FCFC7E00
FCFC7C00
FCFCFC00
FCFCF800
FCFDF800
FDF9FFE0
FFF9FFE0
FFF9FFE0
FFF1FFE0
FFC1FFE0
ENDCHAR
STARTCHAR uni01F2
ENCODING 498
SWIDTH 879 0
DWIDTH 28 0
BBX 27 28 1 0
BITMAP
FFE00000
FFF00000
FFF80000
FFF80000
FDFDFFE0
FCFDFFE0
FCFDFFE0
FCFDFFE0
FCFC07E0
FCFC07C0
FCFC0FC0
FCFC0FC0
FCFC0F80
FCFC1F80
FCFC1F80
FCFC3F00
FCFC3F00
FCFC3E00
FCFC7E00
FCFC7E00
FCFC7C00
FCFCFC00
FCFCFC00
FDF8F800
FFF9FFE0
FFF9FFE0
FFF1FFE0
FFC1FFE0
ENDCHAR
STARTCHAR uni01F3
ENCODING 499
SWIDTH 884 0
DWIDTH 28 0
BBX 27 28 1 0
BITMAP
00FC0000
00FC0000
00FC0000
00FC0000
1EFCFFE0
7FFCFFE0
7FFCFFE0
FFFCFFE0
FDFC07E0
FCFC07C0
FCFC0FC0
FCFC0FC0
FCFC0F80
FCFC1F80
FCFC1F80
FCFC1F00
FCFC3F00
FCFC3F00
FCFC3E00
FCFC7E00
FCFC7E00
FCFCFC00
FCFCFC00
FDFCFC00
FFFDFFE0
7FFDFFE0
7FFDFFE0
3EFDFFE0
ENDCHAR
STARTCHAR uni01F4
ENCODING 500
SWIDTH 485 0
DWIDTH 16 0
BBX 14 36 1 0
BITMAP
0020
00C0
03C0
0FC0
1FC0
1FC0
1F00
0000
0FC0
3FE0
7FF0
7FF8
FFF8
FCF8
F8F8
F8FC
F8FC
F8FC
F800
F800
F9FC
F9FC
F9FC
F9FC
F8FC
F8FC
F8FC
F8FC
F8FC
FCFC
FCFC
FFFC
7FFC
7FFC
3FDC
1F1C
ENDCHAR
STARTCHAR uni01F5
ENCODING 501
SWIDTH 504 0
DWIDTH 16 0
BBX 14 36 1 -4
BITMAP
0020
00E0
03E0
0FE0
1FE0
1FE0
1F00
0000
3EFC
7FFC
7FFC
FFFC
FCFC
FCFC
FCFC
FCFC
FCFC
FCFC
FCFC
FCFC
FCFC
FCFC
FCFC
FCFC
FCFC
FEFC
FFFC
7FFC
7FFC
1EFC
00FC
79FC
7FF8
FFF8
FFF0
3FC0
ENDCHAR
STARTCHAR uni01F8
ENCODING 504
SWIDTH 498 0
DWIDTH 16 0
BBX 14 36 1 0
BITMAP
1000
0C00
0F00
0FC0
0FE0
0FE0
03E0
0000
FCFC
FCFC
FCFC
FEFC
FEFC
FEFC
FEFC
FEFC
FEFC
FFFC
FFFC
FFFC
FFFC
FFFC
FFFC
FFFC
FFFC
FFFC
FFFC
FDFC
FDFC
FDFC
FDFC
FDFC
FCFC
FCFC
FCFC
FCFC
ENDCHAR
STARTCHAR uni01F9
ENCODING 505
SWIDTH 499 0
DWIDTH 16 0
BBX 14 32 1 0
BITMAP
1000
1C00
1F00
1FC0
1FE0
1FE0
03E0
0000
FDF0
FFF8
FFF8
FFFC
FCFC
FCFC
FCFC
FCFC
FCFC
FCFC
FCFC
FCFC
FCFC
FCFC
FCFC
FCFC
FCFC
FCFC
FCFC
FCFC
FCFC
FCFC
FCFC
FCFC
ENDCHAR
STARTCHAR Aringacute
ENCODING 506
SWIDTH 485 0
DWIDTH 16 0
BBX 15 45 0 0
BITMAP
0020
01E0
0FE0
0FE0
0FE0
0800
07C0
0FF0
1FF8
3C78
3C38
3C38
3C78
1FF8
0FF0
07C0
0000
1FF8
1FF8
1FF8
1FF8
1FF8
1FF8
1EF8
3EF8
3EF8
3EF8
3EF8
3EFC
3E7C
3E7C
3E7C
3E7C
3E7C
7E7C
7E7C
7FFC
7FFC
7FFC
7FFE
7C7E
7C3E
7C3E
7C3E
FC3E
ENDCHAR
STARTCHAR aringacute
ENCODING 507
SWIDTH 483 0
DWIDTH 15 0
BBX 13 41 1 0
BITMAP
0060
03E0
1FE0
1FE0
1FC0
1000
0FC0
1FE0
3FF0
3870
7870
7870
38F0
3FF0
1FE0
0F80
0000
1FC0
3FF0
7FF0
FFF8
FDF8
F8F8
F8F8
00F8
00F8
03F8
1FF8
7FF8
7CF8
FCF8
F8F8
F8F8
F8F8
F8F8
F8F8
FDF8
FFF8
FFF8
7EF8
3CF8
ENDCHAR
STARTCHAR AEacute
ENCODING 508
SWIDTH 640 0
DWIDTH 20 0
BBX 21 36 -1 0
BITMAP
000040
000180
000780
003F80
003F80
003F80
003C00
000000
07FFF8
07FFF8
07FFF8
07FFF8
07DF00
0FDF00
0FDF00
0F9F00
0F9F00
0F9F00
1F9F00
1F9F00
1F9FF0
1F9FF0
1F1FF0
1F1FF0
3FFF00
3FFF00
3FFF00
3FFF00
3E1F00
7E1F00
7E1F00
7E1F00
7E1FF8
7E1FF8
7E1FF8
FC1FF8
ENDCHAR
STARTCHAR aeacute
ENCODING 509
SWIDTH 731 0
DWIDTH 23 0
BBX 22 32 1 0
BITMAP
000200
000E00
003E00
00FE00
01FE00
01FE00
01F000
000000
1F8FC0
3FDFF0
7FFFF8
FFFFF8
FDFDF8
F8FCFC
F8F8FC
00F8FC
01F8FC
0FFFFC
3FFFFC
7FFFFC
FCFFFC
FCF800
F8F800
F8F8FC
F8F8FC
F8F8FC
F8FCF8
FDFDF8
FFFFF8
7FFFF8
3FDFF0
1F87C0
ENDCHAR
STARTCHAR Oslashacute
ENCODING 510
SWIDTH 482 0
DWIDTH 15 0
BBX 14 40 1 -2
BITMAP
0020
00C0
03C0
0FC0
1FC0
1FC0
1F20
0030
0030
0030
0FE0
3FE0
7FF0
7FF8
FFF8
FCF8
F8F8
F8FC
F8FC
F8FC
F8FC
F8FC
F8FC
F8FC
F8FC
F8FC
F8FC
F8FC
F8FC
F8FC
F8FC
F8F8
FCF8
FFF8
7FF8
7FF0
3FE0
3FC0
6000
6000
ENDCHAR
STARTCHAR oslashacute
ENCODING 511
SWIDTH 483 0
DWIDTH 15 0
BBX 14 35 1 -3
BITMAP
0020
00E0
03E0
0FE0
1FE0
1FE0
1F0C
001C
0FD8
3FF8
7FF8
7FF8
FDFC
FCFC
FCFC
FCFC
FCFC
FCFC
FCFC
FCFC
FCFC
FCFC
FCFC
FCFC
FCFC
FCFC
FCFC
FFFC
7FF8
7FF8
3FF0
7FC0
6000
E000
2000
ENDCHAR
STARTCHAR uni0200
ENCODING 512
SWIDTH 485 0
DWIDTH 16 0
BBX 15 38 0 0
BITMAP
1080
7380
F7C0
7BC0
79C0
3DE0
1CE0
1EF0
0840
0000
1FF8
1FF8
1FF8
1FF8
1FF8
1FF8
1EF8
3EF8
3EF8
3EF8
3EF8
3EFC
3E7C
3E7C
3E7C
3E7C
3E7C
7E7C
7E7C
7FFC
7FFC
7FFC
7FFE
7C7E
7C3E
7C3E
7C3E
FC3E
ENDCHAR
STARTCHAR uni0201
ENCODING 513
SWIDTH 483 0
DWIDTH 15 0
BBX 14 34 0 0
BITMAP
1080
7180
FFC0
7BC0
3DC0
3DE0
1CE0
0EF0
0C40
0000
0FE0
1FF8
3FF8
7FFC
7EFC
7C7C
7C7C
007C
007C
01FC
0FFC
3FFC
3E7C
7E7C
7C7C
7C7C
7C7C
7C7C
7C7C
7EFC
7FFC
7FFC
3F7C
1E7C
ENDCHAR
STARTCHAR uni0202
ENCODING 514
SWIDTH 485 0
DWIDTH 16 0
BBX 15 35 0 0
BITMAP
07E0
1FF0
3FF8
3C78
3C3C
0000
0000
1FF8
1FF8
1FF8
1FF8
1FF8
1FF8
1EF8
3EF8
3EF8
3EF8
3EF8
3EFC
3E7C
3E7C
3E7C
3E7C
3E7C
7E7C
7E7C
7FFC
7FFC
7FFC
7FFE
7C7E
7C3E
7C3E
7C3E
FC3E
ENDCHAR
STARTCHAR uni0203
ENCODING 515
SWIDTH 483 0
DWIDTH 15 0
BBX 13 31 1 0
BITMAP
0FC0
3FF0
7FF0
78F8
7878
0000
0000
1FC0
3FF0
7FF0
FFF8
FDF8
F8F8
F8F8
00F8
00F8
03F8
1FF8
7FF8
7CF8
FCF8
F8F8
F8F8
F8F8
F8F8
F8F8
FDF8
FFF8
FFF8
7EF8
3CF8
ENDCHAR
STARTCHAR uni0204
ENCODING 516
SWIDTH 412 0
DWIDTH 13 0
BBX 14 38 -1 0
BITMAP
1080
7180
FFC0
7BC0
3DE0
3DE0
1CE0
0EF0
0C40
0000
3FF8
3FF8
3FF8
3FF8
3FF8
3F00
3F00
3F00
3F00
3F00
3F00
3FF8
3FF8
3FF8
3FF8
3FF8
3F00
3F00
3F00
3F00
3F00
3F00
3F00
3FFC
3FFC
3FFC
3FFC
3FFC
ENDCHAR
STARTCHAR uni0205
ENCODING 517
SWIDTH 488 0
DWIDTH 16 0
BBX 15 34 0 0
BITMAP
1080
7180
FFC0
7BC0
3DE0
3DE0
1EE0
0E70
0C40
0000
07E0
1FF8
3FFC
7FFC
7EFC
7E7E
7E7E
7E7E
7E7E
7E7E
7FFE
7FFE
7FFE
7E00
7E00
7E7E
7E7E
7E7E
7E7E
7EFC
3FFC
3FFC
1FF8
07E0
ENDCHAR
STARTCHAR uni0206
ENCODING 518
SWIDTH 412 0
DWIDTH 13 0
BBX 12 35 1 0
BITMAP
1F80
7FE0
FFE0
F1F0
F0F0
0000
0000
FFE0
FFE0
FFE0
FFE0
FFE0
FC00
FC00
FC00
FC00
FC00
FC00
FFE0
FFE0
FFE0
FFE0
FFE0
FC00
FC00
FC00
FC00
FC00
FC00
FC00
FFF0
FFF0
FFF0
FFF0
FFF0
ENDCHAR
STARTCHAR uni0207
ENCODING 519
SWIDTH 488 0
DWIDTH 16 0
BBX 14 32 1 0
BITMAP
0FC0
3FE0
7FF0
7FF8
7DF8
7878
0000
0000
0FC0
3FF0
7FF8
FFF8
FDF8
FCFC
FCFC
FCFC
FCFC
FCFC
FFFC
FFFC
FFFC
FC00
FC00
FCFC
FCFC
FCFC
FCFC
FDF8
7FF8
7FF8
3FF0
0FC0
ENDCHAR
STARTCHAR uni0208
ENCODING 520
SWIDTH 227 0
DWIDTH 7 0
BBX 12 38 -4 0
BITMAP
1080
7380
F780
7BC0
7BC0
3DE0
1CE0
1EF0
0840
0000
07C0
07C0
07C0
07C0
07C0
07C0
07C0
07C0
07C0
07C0
07C0
07C0
07C0
07C0
07C0
07C0
07C0
07C0
07C0
07C0
07C0
07C0
07C0
07C0
07C0
07C0
07C0
07C0
ENDCHAR
STARTCHAR uni0209
ENCODING 521
SWIDTH 235 0
DWIDTH 8 0
BBX 12 34 -4 0
BITMAP
1080
7380
FFC0
7BC0
79C0
3DE0
1CE0
1EF0
0C40
0000
07E0
07E0
07E0
07E0
07E0
07E0
07E0
07E0
07E0
07E0
07E0
07E0
07E0
07E0
07E0
07E0
07E0
07E0
07E0
07E0
07E0
07E0
07E0
07E0
ENDCHAR
STARTCHAR uni020A
ENCODING 522
SWIDTH 227 0
DWIDTH 7 0
BBX 11 35 -2 0
BITMAP
3F80
7FC0
FFE0
F1E0
F0E0
0000
0000
1F00
1F00
1F00
1F00
1F00
1F00
1F00
1F00
1F00
1F00
1F00
1F00
1F00
1F00
1F00
1F00
1F00
1F00
1F00
1F00
1F00
1F00
1F00
1F00
1F00
1F00
1F00
1F00
ENDCHAR
STARTCHAR uni020B
ENCODING 523
SWIDTH 257 0
DWIDTH 8 0
BBX 12 31 -2 0
BITMAP
1F80
7FE0
FFF0
FFF0
F9F0
F0F0
0000
1F80
1F80
1F80
1F80
1F80
1F80
1F80
1F80
1F80
1F80
1F80
1F80
1F80
1F80
1F80
1F80
1F80
1F80
1F80
1F80
1F80
1F80
1F80
1F80
ENDCHAR
STARTCHAR uni020C
ENCODING 524
SWIDTH 486 0
DWIDTH 16 0
BBX 15 38 0 0
BITMAP
1080
7380
FFC0
7BC0
79C0
3DE0
1CE0
1EF0
0C40
0000
07E0
1FF0
3FF8
3FFC
7FFC
7E7C
7C7E
7C7E
7C7E
7C7E
7C7E
7C7E
7C7E
7C7E
7C7E
7C7E
7C7E
7C7E
7C7E
7C7E
7C7E
7C7E
7E7C
7FFC
3FFC
3FF8
1FF0
07E0
ENDCHAR
STARTCHAR uni020D
ENCODING 525
SWIDTH 497 0
DWIDTH 16 0
BBX 15 34 0 0
BITMAP
1080
7180
FFC0
7BC0
3DE0
3DE0
1CE0
0EF0
0C40
0000
07E0
1FF8
3FFC
3FFC
7EFE
7E7E
7E7E
7E7E
7E7E
7E7E
7E7E
7E7E
7E7E
7E7E
7E7E
7E7E
7E7E
7E7E
7E7E
7FFE
3FFC
3FFC
1FF8
07E0
ENDCHAR
STARTCHAR uni020E
ENCODING 526
SWIDTH 486 0
DWIDTH 16 0
BBX 14 35 1 0
BITMAP
0FC0
3FF0
7FF0
78F8
7878
0000
0000
0FC0
3FE0
7FF0
7FF8
FFF8
FCF8
F8FC
F8FC
F8FC
F8FC
F8FC
F8FC
F8FC
F8FC
F8FC
F8FC
F8FC
F8FC
F8FC
F8FC
F8FC
F8FC
FCF8
FFF8
7FF8
7FF0
3FE0
0FC0
ENDCHAR
STARTCHAR uni020F
ENCODING 527
SWIDTH 497 0
DWIDTH 16 0
BBX 14 32 1 0
BITMAP
0FC0
3FF0
7FF0
7FF8
7FF8
7878
0000
0000
0FC0
3FF0
7FF8
7FF8
FDFC
FCFC
FCFC
FCFC
FCFC
FCFC
FCFC
FCFC
FCFC
FCFC
FCFC
FCFC
FCFC
FCFC
FCFC
FFFC
7FF8
7FF8
3FF0
0FC0
ENDCHAR
STARTCHAR uni0210
ENCODING 528
SWIDTH 477 0
DWIDTH 15 0
BBX 15 38 0 0
BITMAP
1080
7380
F780
7BC0
7BC0
3DC0
1DE0
1EE0
0840
0000
7FF0
7FF8
7FFC
7FFC
7FFC
7E7E
7E7E
7E7E
7E7E
7E7E
7E7C
7FFC
7FF8
7FF0
7FFC
7E7C
7E7C
7E7C
7E7C
7E7C
7E7C
7E7C
7E7C
7E7C
7E7C
7E7C
7E7C
7E7C
ENDCHAR
STARTCHAR uni0211
ENCODING 529
SWIDTH 344 0
DWIDTH 11 0
BBX 13 34 -2 0
BITMAP
1080
7180
FFC0
7BC0
3DE0
3DE0
1EE0
0E70
0C40
0000
1FB8
1FF8
1FF8
1FF8
1FF0
1F80
1F80
1F80
1F80
1F80
1F80
1F80
1F80
1F80
1F80
1F80
1F80
1F80
1F80
1F80
1F80
1F80
1F80
1F80
ENDCHAR
STARTCHAR uni0212
ENCODING 530
SWIDTH 477 0
DWIDTH 15 0
BBX 14 35 1 0
BITMAP
1FC0
3FE0
7FF0
78F0
7070
0000
0000
FFE0
FFF0
FFF8
FFF8
FFF8
FCFC
FCFC
FCFC
FCFC
FCFC
FCF8
FFF8
FFF0
FFE0
FFF8
FCF8
FCF8
FCF8
FCF8
FCF8
FCF8
FCF8
FCF8
FCF8
FCF8
FCF8
FCF8
FCF8
ENDCHAR
STARTCHAR uni0213
ENCODING 531
SWIDTH 342 0
DWIDTH 11 0
BBX 12 31 0 0
BITMAP
1F80
7FE0
7FF0
FFF0
FDF0
F0F0
0000
7EE0
7FE0
7FE0
7FE0
7FC0
7E00
7E00
7E00
7E00
7E00
7E00
7E00
7E00
7E00
7E00
7E00
7E00
7E00
7E00
7E00
7E00
7E00
7E00
7E00
ENDCHAR
STARTCHAR uni0214
ENCODING 532
SWIDTH 474 0
DWIDTH 15 0
BBX 14 38 0 0
BITMAP
1080
7380
F780
7BC0
7BC0
3DE0
1CE0
1EF0
0840
0000
7C7C
7C7C
7C7C
7C7C
7C7C
7C7C
7C7C
7C7C
7C7C
7C7C
7C7C
7C7C
7C7C
7C7C
7C7C
7C7C
7C7C
7C7C
7C7C
7C7C
7C7C
7C7C
7E7C
7FFC
3FFC
3FF8
1FF0
07E0
ENDCHAR
STARTCHAR uni0215
ENCODING 533
SWIDTH 499 0
DWIDTH 16 0
BBX 15 34 0 0
BITMAP
1080
7180
FFC0
7BC0
3DE0
3DE0
1EE0
0E70
0C40
0000
7E7E
7E7E
7E7E
7E7E
7E7E
7E7E
7E7E
7E7E
7E7E
7E7E
7E7E
7E7E
7E7E
7E7E
7E7E
7E7E
7E7E
7E7E
7E7E
7E7E
7FFE
3FFE
3FFE
1F7E
ENDCHAR
STARTCHAR uni0216
ENCODING 534
SWIDTH 474 0
DWIDTH 15 0
BBX 13 35 1 0
BITMAP
1FC0
3FE0
7FF0
78F0
7870
0000
0000
F8F8
F8F8
F8F8
F8F8
F8F8
F8F8
F8F8
F8F8
F8F8
F8F8
F8F8
F8F8
F8F8
F8F8
F8F8
F8F8
F8F8
F8F8
F8F8
F8F8
F8F8
F8F8
FCF8
FFF8
7FF8
7FF0
3FE0
0FC0
ENDCHAR
STARTCHAR uni0217
ENCODING 535
SWIDTH 511 0
DWIDTH 16 0
BBX 14 32 1 0
BITMAP
0FC0
3FF0
3FF8
7FF8
7EF8
7878
0000
0000
FCFC
FCFC
FCFC
FCFC
FCFC
FCFC
FCFC
FCFC
FCFC
FCFC
FCFC
FCFC
FCFC
FCFC
FCFC
FCFC
FCFC
FCFC
FCFC
FCFC
FFFC
7FFC
7FFC
3EFC
ENDCHAR
STARTCHAR Scommaaccent
ENCODING 536
SWIDTH 461 0
DWIDTH 15 0
BBX 13 37 1 -9
BITMAP
1F80
3FE0
7FF0
FFF0
FFF8
F9F8
F9F8
F9F8
FC00
FE00
FF00
7F80
3FC0
1FE0
0FF0
07F0
03F8
F9F8
F9F8
F8F8
F8F8
F8F8
F9F8
FFF8
FFF0
7FF0
3FE0
1FC0
0000
0000
1F80
1F80
1F80
1F80
0780
0700
0F00
ENDCHAR
STARTCHAR scommaaccent
ENCODING 537
SWIDTH 476 0
DWIDTH 15 0
BBX 14 35 1 -11
BITMAP
0FC0
3FF0
7FF0
FFF8
FDF8
F8F8
F8F8
FC00
FF00
7F80
7FC0
3FE0
0FF0
07F8
03F8
F9F8
F8FC
F8FC
F8FC
FDF8
FFF8
7FF0
3FE0
1FC0
0000
0000
0000
0FC0
0FC0
0FC0
0FC0
0380
0780
0780
0700
ENDCHAR
STARTCHAR uni021A
ENCODING 538
SWIDTH 396 0
DWIDTH 13 0
BBX 12 37 0 -9
BITMAP
FFF0
FFF0
FFF0
FFF0
FFF0
0F80
0F80
0F80
0F80
0F80
0F80
0F80
0F80
0F80
0F80
0F80
0F80
0F80
0F80
0F80
0F80
0F80
0F80
0F80
0F80
0F80
0F80
0F80
0000
0000
1F80
1F80
1F80
1F80
0780
0700
0F00
ENDCHAR
STARTCHAR uni021B
ENCODING 539
SWIDTH 305 0
DWIDTH 10 0
BBX 8 37 1 -9
BITMAP
7E
7E
7E
7E
7E
FF
FF
FF
FF
7E
7E
7E
7E
7E
7E
7E
7E
7E
7E
7E
7E
7E
7E
7E
7F
7F
3F
3F
00
00
3F
3F
3F
3F
0E
1E
1E
ENDCHAR
STARTCHAR uni021E
ENCODING 542
SWIDTH 499 0
DWIDTH 16 0
BBX 14 35 1 0
BITMAP
FCFC
7CF8
3CF0
3FF0
1FE0
1FE0
0000
FCFC
FCFC
FCFC
FCFC
FCFC
FCFC
FCFC
FCFC
FCFC
FCFC
FFFC
FFFC
FFFC
FFFC
FFFC
FCFC
FCFC
FCFC
FCFC
FCFC
FCFC
FCFC
FCFC
FCFC
FCFC
FCFC
FCFC
FCFC
ENDCHAR
STARTCHAR uni021F
ENCODING 543
SWIDTH 505 0
DWIDTH 16 0
BBX 18 35 -3 0
BITMAP
FCFC00
7CF800
3CF000
3FF000
1FE000
1FE000
000000
0FC000
0FC000
0FC000
0FC000
0FDF00
0FFF80
0FFF80
0FFFC0
0FFFC0
0FCFC0
0FCFC0
0FCFC0
0FCFC0
0FCFC0
0FCFC0
0FCFC0
0FCFC0
0FCFC0
0FCFC0
0FCFC0
0FCFC0
0FCFC0
0FCFC0
0FCFC0
0FCFC0
0FCFC0
0FCFC0
0FCFC0
ENDCHAR
STARTCHAR uni0226
ENCODING 550
SWIDTH 485 0
DWIDTH 16 0
BBX 15 33 0 0
BITMAP
07E0
07E0
07E0
07E0
0000
1FF8
1FF8
1FF8
1FF8
1FF8
1FF8
1EF8
3EF8
3EF8
3EF8
3EF8
3EFC
3E7C
3E7C
3E7C
3E7C
3E7C
7E7C
7E7C
7FFC
7FFC
7FFC
7FFE
7C7E
7C3E
7C3E
7C3E
FC3E
ENDCHAR
STARTCHAR uni0227
ENCODING 551
SWIDTH 483 0
DWIDTH 15 0
BBX 13 29 1 0
BITMAP
0FC0
0FC0
0FC0
0FC0
0000
1FC0
3FF0
7FF0
FFF8
FDF8
F8F8
F8F8
00F8
00F8
03F8
1FF8
7FF8
7CF8
FCF8
F8F8
F8F8
F8F8
F8F8
F8F8
FDF8
FFF8
FFF8
7EF8
3CF8
ENDCHAR
STARTCHAR uni0228
ENCODING 552
SWIDTH 412 0
DWIDTH 13 0
BBX 12 38 1 -10
BITMAP
FFE0
FFE0
FFE0
FFE0
FFE0
FC00
FC00
FC00
FC00
FC00
FC00
FFE0
FFE0
FFE0
FFE0
FFE0
FC00
FC00
FC00
FC00
FC00
FC00
FC00
FFF0
FFF0
FFF0
FFF0
FFF0
0700
0380
01C0
01C0
01E0
17E0
1FE0
1FE0
1FC0
1F80
ENDCHAR
STARTCHAR uni0229
ENCODING 553
SWIDTH 488 0
DWIDTH 16 0
BBX 14 34 1 -10
BITMAP
0FC0
3FF0
7FF8
FFF8
FDF8
FCFC
FCFC
FCFC
FCFC
FCFC
FFFC
FFFC
FFFC
FC00
FC00
FCFC
FCFC
FCFC
FCFC
FCF8
7FF8
7FF8
3FF0
1FE0
0300
0380
01C0
01C0
01E0
03E0
1FE0
1FE0
1FC0
1F80
ENDCHAR
STARTCHAR uni022A
ENCODING 554
SWIDTH 486 0
DWIDTH 16 0
BBX 14 37 1 0
BITMAP
3FF0
3FF0
0000
0000
FCF8
FCF8
FCF8
FCF8
0000
0FC0
3FE0
7FF0
7FF8
FFF8
FCF8
F8FC
F8FC
F8FC
F8FC
F8FC
F8FC
F8FC
F8FC
F8FC
F8FC
F8FC
F8FC
F8FC
F8FC
F8FC
F8FC
FCF8
FFF8
7FF8
7FF0
3FE0
0FC0
ENDCHAR
STARTCHAR uni022B
ENCODING 555
SWIDTH 497 0
DWIDTH 16 0
BBX 14 33 1 0
BITMAP
3FF0
3FF0
0000
0000
FCFC
FCFC
FCFC
FCFC
0000
0FC0
3FF0
7FF8
7FF8
FDFC
FCFC
FCFC
FCFC
FCFC
FCFC
FCFC
FCFC
FCFC
FCFC
FCFC
FCFC
FCFC
FCFC
FCFC
FFFC
7FF8
7FF8
3FF0
0FC0
ENDCHAR
STARTCHAR uni022C
ENCODING 556
SWIDTH 486 0
DWIDTH 16 0
BBX 14 37 1 0
BITMAP
3FF0
3FF0
0000
3C20
7F38
FFF8
67F0
01E0
0000
0FC0
3FE0
7FF0
7FF8
FFF8
FCF8
F8FC
F8FC
F8FC
F8FC
F8FC
F8FC
F8FC
F8FC
F8FC
F8FC
F8FC
F8FC
F8FC
F8FC
F8FC
F8FC
FCF8
FFF8
7FF8
7FF0
3FE0
0FC0
ENDCHAR
STARTCHAR uni022D
ENCODING 557
SWIDTH 497 0
DWIDTH 16 0
BBX 14 33 1 0
BITMAP
3FF0
3FF0
0000
3C10
7F38
FFF8
63F0
01E0
0000
0FC0
3FF0
7FF8
7FF8
FDFC
FCFC
FCFC
FCFC
FCFC
FCFC
FCFC
FCFC
FCFC
FCFC
FCFC
FCFC
FCFC
FCFC
FCFC
FFFC
7FF8
7FF8
3FF0
0FC0
ENDCHAR
STARTCHAR uni022E
ENCODING 558
SWIDTH 486 0
DWIDTH 16 0
BBX 14 33 1 0
BITMAP
0FC0
0FC0
0FC0
0FC0
0000
0FC0
3FE0
7FF0
7FF8
FFF8
FCF8
F8FC
F8FC
F8FC
F8FC
F8FC
F8FC
F8FC
F8FC
F8FC
F8FC
F8FC
F8FC
F8FC
F8FC
F8FC
F8FC
FCF8
FFF8
7FF8
7FF0
3FE0
0FC0
ENDCHAR
STARTCHAR uni022F
ENCODING 559
SWIDTH 497 0
DWIDTH 16 0
BBX 14 29 1 0
BITMAP
0FC0
0FC0
0FC0
0FC0
0000
0FC0
3FF0
7FF8
7FF8
FDFC
FCFC
FCFC
FCFC
FCFC
FCFC
FCFC
FCFC
FCFC
FCFC
FCFC
FCFC
FCFC
FCFC
FCFC
FFFC
7FF8
7FF8
3FF0
0FC0
ENDCHAR
STARTCHAR uni0230
ENCODING 560
SWIDTH 486 0
DWIDTH 16 0
BBX 14 37 1 0
BITMAP
3FF0
3FF0
0000
0000
0FC0
0FC0
0FC0
0FC0
0000
0FC0
3FE0
7FF0
7FF8
FFF8
FCF8
F8FC
F8FC
F8FC
F8FC
F8FC
F8FC
F8FC
F8FC
F8FC
F8FC
F8FC
F8FC
F8FC
F8FC
F8FC
F8FC
FCF8
FFF8
7FF8
7FF0
3FE0
0FC0
ENDCHAR
STARTCHAR uni0231
ENCODING 561
SWIDTH 497 0
DWIDTH 16 0
BBX 14 33 1 0
BITMAP
3FF0
3FF0
0000
0000
0FC0
0FC0
0FC0
0FC0
0000
0FC0
3FF0
7FF8
7FF8
FDFC
FCFC
FCFC
FCFC
FCFC
FCFC
FCFC
FCFC
FCFC
FCFC
FCFC
FCFC
FCFC
FCFC
FCFC
FFFC
7FF8
7FF8
3FF0
0FC0
ENDCHAR
STARTCHAR uni0232
ENCODING 562
SWIDTH 446 0
DWIDTH 14 0
BBX 14 32 0 0
BITMAP
3FF0
3FF0
0000
0000
FC7C
7CFC
7CFC
7CF8
7CF8
7CF8
3EF8
3FF0
3FF0
3FF0
1FF0
1FE0
1FE0
1FE0
0FE0
0FE0
0FC0
0FC0
0FC0
07C0
07C0
07C0
07C0
07C0
07C0
07C0
07C0
07C0
ENDCHAR
STARTCHAR uni0233
ENCODING 563
SWIDTH 461 0
DWIDTH 15 0
BBX 14 32 0 -4
BITMAP
3FF0
3FF0
0000
0000
FC7C
FC7C
7C7C
7C7C
7C7C
7CF8
7CF8
7CF8
3CF8
3CF8
3EF8
3EF0
3EF0
3EF0
1FF0
1FF0
1FF0
1FE0
1FE0
1FE0
1FE0
0FE0
0FE0
0FC0
7FC0
7FC0
7FC0
7F80
ENDCHAR
STARTCHAR uni0237
ENCODING 567
SWIDTH 263 0
DWIDTH 8 0
BBX 6 26 1 -2
BITMAP
7C
7C
7C
7C
7C
7C
7C
7C
7C
7C
7C
7C
7C
7C
7C
7C
7C
7C
7C
7C
7C
7C
FC
FC
FC
F8
ENDCHAR
STARTCHAR uni0259
ENCODING 601
SWIDTH 488 0
DWIDTH 16 0
BBX 14 24 1 0
BITMAP
0FC0
3FF0
7FF0
7FF8
FDF8
FCF8
F8FC
F8FC
F8FC
00FC
00FC
FFFC
FFFC
FFFC
F8FC
F8FC
F8FC
F8FC
FCFC
FDF8
FFF8
7FF8
3FF0
1FC0
ENDCHAR
STARTCHAR uni02BC
ENCODING 700
SWIDTH 293 0
DWIDTH 9 0
BBX 6 7 2 16
BITMAP
FC
FC
FC
FC
38
78
78
ENDCHAR
STARTCHAR circumflex
ENCODING 710
SWIDTH 474 0
DWIDTH 15 0
BBX 14 6 1 25
BITMAP
1FC0
3FE0
3DE0
7DF0
7DF8
F8FC
ENDCHAR
STARTCHAR caron
ENCODING 711
SWIDTH 474 0
DWIDTH 15 0
BBX 14 6 1 25
BITMAP
F8FC
7DF8
7DF0
3DE0
3FE0
1FC0
ENDCHAR
STARTCHAR uni02C9
ENCODING 713
SWIDTH 293 0
DWIDTH 9 0
BBX 10 2 0 25
BITMAP
FFC0
FFC0
ENDCHAR
STARTCHAR breve
ENCODING 728
SWIDTH 496 0
DWIDTH 16 0
BBX 12 6 2 25
BITMAP
F0F0
F9F0
FFF0
FFE0
7FE0
1F80
ENDCHAR
STARTCHAR dotaccent
ENCODING 729
SWIDTH 240 0
DWIDTH 8 0
BBX 6 4 1 25
BITMAP
FC
FC
FC
FC
ENDCHAR
STARTCHAR ring
ENCODING 730
SWIDTH 393 0
DWIDTH 13 0
BBX 11 11 1 25
BITMAP
1F00
7F80
7FC0
F1E0
E1E0
E0E0
E1E0
F1E0
7FC0
7F80
1F00
ENDCHAR
STARTCHAR ogonek
ENCODING 731
SWIDTH 496 0
DWIDTH 16 0
BBX 8 10 5 -10
BITMAP
1E
3C
78
F8
F8
FD
FF
FF
7F
1F
ENDCHAR
STARTCHAR tilde
ENCODING 732
SWIDTH 496 0
DWIDTH 16 0
BBX 13 5 1 26
BITMAP
3F38
7FF8
7FF8
FFF0
23E0
ENDCHAR
STARTCHAR hungarumlaut
ENCODING 733
SWIDTH 635 0
DWIDTH 20 0
BBX 12 9 4 25
BITMAP
1080
3DF0
3DE0
39E0
7BC0
7380
F780
E700
2100
ENDCHAR
STARTCHAR gravecomb
ENCODING 768
SWIDTH 0 0
DWIDTH 0 0
BBX 8 7 -4 25
BITMAP
80
E0
F8
FE
FF
FF
1F
ENDCHAR
STARTCHAR acutecomb
ENCODING 769
SWIDTH 0 0
DWIDTH 0 0
BBX 8 7 -4 25
BITMAP
01
07
1F
7F
FF
FF
F8
ENDCHAR
STARTCHAR uni0302
ENCODING 770
SWIDTH 0 0
DWIDTH 0 0
BBX 14 6 -7 25
BITMAP
1FC0
1FE0
3FF0
3CF0
7CF8
FCFC
ENDCHAR
STARTCHAR tildecomb
ENCODING 771
SWIDTH 0 0
DWIDTH 0 0
BBX 12 5 -6 26
BITMAP
3E70
7FF0
FFF0
FFE0
47C0
ENDCHAR
STARTCHAR uni0304
ENCODING 772
SWIDTH 0 0
DWIDTH 0 0
BBX 10 2 -5 26
BITMAP
FFC0
FFC0
ENDCHAR
STARTCHAR uni0306
ENCODING 774
SWIDTH 0 0
DWIDTH 0 0
BBX 12 6 -6 25
BITMAP
F0F0
F9F0
FFF0
FFF0
7FE0
1F80
ENDCHAR
STARTCHAR uni0307
ENCODING 775
SWIDTH 0 0
DWIDTH 0 0
BBX 6 4 -3 25
BITMAP
FC
FC
FC
FC
ENDCHAR
STARTCHAR uni0308
ENCODING 776
SWIDTH 0 0
DWIDTH 0 0
BBX 14 4 -7 25
BITMAP
FCFC
FCFC
FCFC
FCFC
ENDCHAR
STARTCHAR hookabovecomb
ENCODING 777
SWIDTH 0 0
DWIDTH 0 0
BBX 7 9 -3 25
BITMAP
F8
FE
FE
1E
1E
1E
7C
38
10
ENDCHAR
STARTCHAR uni030A
ENCODING 778
SWIDTH 0 0
DWIDTH 0 0
BBX 12 11 -6 25
BITMAP
0F00
3FC0
7FE0
79E0
70E0
F0F0
70E0
79E0
7FE0
3FC0
1F80
ENDCHAR
STARTCHAR uni030B
ENCODING 779
SWIDTH 0 0
DWIDTH 0 0
BBX 12 9 -6 25
BITMAP
1080
3EF0
3DE0
3DE0
7BC0
7380
F780
E700
2100
ENDCHAR
STARTCHAR uni030C
ENCODING 780
SWIDTH 0 0
DWIDTH 0 0
BBX 14 6 -7 25
BITMAP
FCFC
7CF8
3CF0
3FF0
1FE0
1FE0
ENDCHAR
STARTCHAR uni030F
ENCODING 783
SWIDTH 0 0
DWIDTH 0 0
BBX 12 9 -8 25
BITMAP
1080
7180
FFC0
7BC0
3DE0
3DE0
1EE0
0E70
0C40
ENDCHAR
STARTCHAR uni0311
ENCODING 785
SWIDTH 0 0
DWIDTH 0 0
BBX 12 5 -6 26
BITMAP
1F80
7FE0
FFE0
F9F0
F0F0
ENDCHAR
STARTCHAR uni031B
ENCODING 795
SWIDTH 0 0
DWIDTH 0 0
BBX 7 8 0 25
BITMAP
1E
1E
1E
1E
3E
FE
FC
F8
ENDCHAR
STARTCHAR dotbelowcomb
ENCODING 803
SWIDTH 0 0
DWIDTH 0 0
BBX 6 4 -3 -7
BITMAP
FC
FC
FC
FC
ENDCHAR
STARTCHAR uni0324
ENCODING 804
SWIDTH 0 0
DWIDTH 0 0
BBX 14 4 -7 -6
BITMAP
FCFC
FCFC
FCFC
FCFC
ENDCHAR
STARTCHAR uni0326
ENCODING 806
SWIDTH 0 0
DWIDTH 0 0
BBX 6 7 -3 -9
BITMAP
FC
FC
FC
FC
38
78
78
ENDCHAR
STARTCHAR uni0327
ENCODING 807
SWIDTH 0 0
DWIDTH 0 0
BBX 8 10 -4 -10
BITMAP
1C
1C
0E
0F
0F
9F
FF
FF
FE
7C
ENDCHAR
STARTCHAR uni0328
ENCODING 808
SWIDTH 0 0
DWIDTH 0 0
BBX 9 10 -6 -10
BITMAP
0F00
3E00
7C00
7800
7800
FE80
7F80
7F80
3F80
1F80
ENDCHAR
STARTCHAR uni032E
ENCODING 814
SWIDTH 0 0
DWIDTH 0 0
BBX 12 6 -6 -6
BITMAP
F0F0
F9F0
FFF0
FFF0
7FE0
1F80
ENDCHAR
STARTCHAR uni0331
ENCODING 817
SWIDTH 0 0
DWIDTH 0 0
BBX 10 2 -5 -4
BITMAP
FFC0
FFC0
ENDCHAR
STARTCHAR uni0335
ENCODING 821
SWIDTH 0 0
DWIDTH 0 0
BBX 10 4 -5 10
BITMAP
FFC0
FFC0
FFC0
FFC0
ENDCHAR
STARTCHAR uni0394
ENCODING 916
SWIDTH 539 0
DWIDTH 17 0
BBX 17 28 0 0
BITMAP
07F800
0FF800
0FF800
0FF800
0FF800
0F7800
0F7800
0F7C00
1E7C00
1E7C00
1E7C00
1E7C00
1E7C00
1E7E00
1E7E00
3E3E00
3E3E00
3C3E00
3C3E00
3C3E00
3C3F00
7C3F00
7C3F00
7C3F00
7FFF00
7FFF00
7FFF80
FFFF80
ENDCHAR
STARTCHAR Sigma
ENCODING 931
SWIDTH 408 0
DWIDTH 13 0
BBX 11 30 1 -2
BITMAP
FFE0
FFE0
FFE0
FFE0
FFE0
F800
7C00
7C00
3E00
3E00
1F00
1F00
0F80
0F80
07C0
07C0
0F80
0F80
1F00
1F00
3E00
3E00
7C00
7C00
F800
FFE0
FFE0
FFE0
FFE0
FFE0
ENDCHAR
STARTCHAR pi
ENCODING 960
SWIDTH 606 0
DWIDTH 19 0
BBX 18 24 1 0
BITMAP
FFFFC0
FFFFC0
FFFFC0
FFFFC0
FFFFC0
3E3F00
3E3F00
3E3F00
3E3F00
3E3F00
3E3F00
3E3F00
3E3F00
3E3F00
3E3F00
3E3F00
3E3F00
3E3F00
3E3F00
3E3F00
3E3F00
3E3F00
3E3F00
3E3F00
ENDCHAR
STARTCHAR uni10E2
ENCODING 4322
SWIDTH 640 0
DWIDTH 20 0
BBX 21 32 -1 0
BITMAP
00FFC0
00FFC0
000000
000000
07FFF8
07FFF8
07FFF8
07FFF8
07DF00
0FDF00
0FDF00
0F9F00
0F9F00
0F9F00
1F9F00
1F9F00
1F9FF0
1F9FF0
1F1FF0
1F1FF0
3FFF00
3FFF00
3FFF00
3FFF00
3E1F00
7E1F00
7E1F00
7E1F00
7E1FF8
7E1FF8
7E1FF8
FC1FF8
ENDCHAR
STARTCHAR uni10E3
ENCODING 4323
SWIDTH 731 0
DWIDTH 23 0
BBX 22 28 1 0
BITMAP
03FF00
03FF00
000000
000000
1F8FC0
3FDFF0
7FFFF8
FFFFF8
FDFDF8
F8FCFC
F8F8FC
00F8FC
01F8FC
0FFFFC
3FFFFC
7FFFFC
FCFFFC
FCF800
F8F800
F8F8FC
F8F8FC
F8F8FC
F8FCF8
FDFDF8
FFFFF8
7FFFF8
3FDFF0
1F87C0
ENDCHAR
STARTCHAR uni1E02
ENCODING 7682
SWIDTH 479 0
DWIDTH 15 0
BBX 14 33 1 0
BITMAP
1F80
1F80
1F80
1F80
0000
FFE0
FFF0
FFF8
FFF8
FDF8
FCF8
FCF8
FCF8
FCF8
FCF8
FDF8
FFF0
FFE0
FFF0
FFF8
FCF8
FCFC
FCFC
FCFC
FCFC
FCFC
FCFC
FCF8
FDF8
FFF8
FFF8
FFF0
FFC0
ENDCHAR
STARTCHAR uni1E03
ENCODING 7683
SWIDTH 501 0
DWIDTH 16 0
BBX 14 33 1 0
BITMAP
FC00
FC00
FC00
FC00
0000
FC00
FC00
FC00
FC00
FDF0
FFF8
FFF8
FFFC
FEFC
FCFC
FCFC
FCFC
FCFC
FCFC
FCFC
FCFC
FCFC
FCFC
FCFC
FCFC
FCFC
FCFC
FCFC
FEFC
FFFC
FFF8
FFF8
FDE0
ENDCHAR
STARTCHAR uni1E0A
ENCODING 7690
SWIDTH 493 0
DWIDTH 16 0
BBX 14 33 1 0
BITMAP
0FC0
0FC0
0FC0
0FC0
0000
FFE0
FFF0
FFF8
FFF8
FDFC
FCFC
FCFC
FCFC
FCFC
FCFC
FCFC
FCFC
FCFC
FCFC
FCFC
FCFC
FCFC
FCFC
FCFC
FCFC
FCFC
FCFC
FCFC
FDF8
FFF8
FFF8
FFF0
FFC0
ENDCHAR
STARTCHAR uni1E0B
ENCODING 7691
SWIDTH 498 0
DWIDTH 16 0
BBX 14 33 1 0
BITMAP
00FC
00FC
00FC
00FC
0000
00FC
00FC
00FC
00FC
1EFC
7FFC
7FFC
FFFC
FDFC
FCFC
FCFC
FCFC
FCFC
FCFC
FCFC
FCFC
FCFC
FCFC
FCFC
FCFC
FCFC
FCFC
FCFC
FDFC
FFFC
7FFC
7FFC
3EFC
ENDCHAR
STARTCHAR uni1E1E
ENCODING 7710
SWIDTH 399 0
DWIDTH 13 0
BBX 11 33 1 0
BITMAP
1F80
1F80
1F80
1F80
0000
FFE0
FFE0
FFE0
FFE0
FFE0
FC00
FC00
FC00
FC00
FC00
FFE0
FFE0
FFE0
FFE0
FFE0
FC00
FC00
FC00
FC00
FC00
FC00
FC00
FC00
FC00
FC00
FC00
FC00
FC00
ENDCHAR
STARTCHAR uni1E1F
ENCODING 7711
SWIDTH 280 0
DWIDTH 9 0
BBX 7 33 1 0
BITMAP
7E
7E
7E
7E
00
3E
7E
7E
7E
7C
FE
FE
FE
FE
7C
7C
7C
7C
7C
7C
7C
7C
7C
7C
7C
7C
7C
7C
7C
7C
7C
7C
7C
ENDCHAR
STARTCHAR uni1E40
ENCODING 7744
SWIDTH 746 0
DWIDTH 24 0
BBX 22 33 1 0
BITMAP
00FC00
00FC00
00FC00
00FC00
000000
FF87FC
FF87FC
FF87FC
FF87FC
FF87FC
FF8FFC
FF8FFC
FFCFFC
FFCFFC
FFCF7C
FBCF7C
FBCF7C
FBCF7C
FBDF7C
FBFF7C
FBFE7C
F9FE7C
F9FE7C
F9FE7C
F9FE7C
F9FE7C
F9FE7C
F8FC7C
F8FC7C
F8FC7C
F8FC7C
F8FC7C
F8FC7C
ENDCHAR
STARTCHAR uni1E41
ENCODING 7745
SWIDTH 758 0
DWIDTH 24 0
BBX 22 29 1 0
BITMAP
00FC00
00FC00
00FC00
00FC00
000000
FDF1F0
FFFBF8
FFFFFC
FFFFFC
FEFEFC
FCFCFC
FCFCFC
FCFCFC
FCFCFC
FCFCFC
FCFCFC
FCFCFC
FCFCFC
FCFCFC
FCFCFC
FCFCFC
FCFCFC
FCFCFC
FCFCFC
FCFCFC
FCFCFC
FCFCFC
FCFCFC
FCFCFC
ENDCHAR
STARTCHAR uni1E56
ENCODING 7766
SWIDTH 472 0
DWIDTH 15 0
BBX 14 33 1 0
BITMAP
0F80
0F80
0F80
0F80
0000
FFC0
FFF0
FFF0
FFF8
FFF8
FCF8
FCF8
FCFC
FCFC
FCFC
FCFC
FDF8
FFF8
FFF8
FFF8
FFF0
FFE0
FC00
FC00
FC00
FC00
FC00
FC00
FC00
FC00
FC00
FC00
FC00
ENDCHAR
STARTCHAR uni1E57
ENCODING 7767
SWIDTH 500 0
DWIDTH 16 0
BBX 14 33 1 -4
BITMAP
0FC0
0FC0
0FC0
0FC0
0000
FDF0
FFF8
FFF8
FFFC
FEFC
FCFC
FCFC
FCFC
FCFC
FCFC
FCFC
FCFC
FCFC
FCFC
FCFC
FCFC
FCFC
FCFC
FCFC
FEFC
FFFC
FFF8
FFF8
FDF0
FC00
FC00
FC00
FC00
ENDCHAR
STARTCHAR uni1E60
ENCODING 7776
SWIDTH 461 0
DWIDTH 15 0
BBX 13 33 1 0
BITMAP
0F80
0F80
0F80
0F80
0000
1F80
3FE0
7FF0
FFF0
FFF8
F9F8
F9F8
F9F8
FC00
FE00
FF00
7F80
3FC0
1FE0
0FF0
07F0
03F8
F9F8
F9F8
F8F8
F8F8
F8F8
F9F8
FFF8
FFF0
7FF0
3FE0
1FC0
ENDCHAR
STARTCHAR uni1E61
ENCODING 7777
SWIDTH 475 0
DWIDTH 15 0
BBX 14 29 1 0
BITMAP
0F80
0F80
0F80
0F80
0000
0FC0
3FF0
7FF0
FFF8
FDF8
F8F8
F8F8
FC00
FF00
7F80
7FC0
3FE0
0FF0
07F8
03F8
F9F8
F8FC
F8FC
F8FC
FDF8
FFF8
7FF0
3FE0
1FC0
ENDCHAR
STARTCHAR uni1E6A
ENCODING 7786
SWIDTH 396 0
DWIDTH 13 0
BBX 12 33 0 0
BITMAP
0F80
0F80
0F80
0F80
0000
FFF0
FFF0
FFF0
FFF0
FFF0
0F80
0F80
0F80
0F80
0F80
0F80
0F80
0F80
0F80
0F80
0F80
0F80
0F80
0F80
0F80
0F80
0F80
0F80
0F80
0F80
0F80
0F80
0F80
ENDCHAR
STARTCHAR uni1E6B
ENCODING 7787
SWIDTH 305 0
DWIDTH 10 0
BBX 8 33 1 0
BITMAP
7E
7E
7E
7E
00
7E
7E
7E
7E
7E
FF
FF
FF
FF
7E
7E
7E
7E
7E
7E
7E
7E
7E
7E
7E
7E
7E
7E
7E
7F
7F
3F
3F
ENDCHAR
STARTCHAR Wgrave
ENCODING 7808
SWIDTH 712 0
DWIDTH 23 0
BBX 22 36 0 0
BITMAP
010000
00C000
00F000
00FE00
00FE00
00FE00
001E00
000000
FC7C7C
7C7C7C
7C7C7C
7C7C7C
7CFC7C
7CFCFC
7CFEFC
7CFEFC
7EFEF8
7EFEF8
3EFEF8
3EFEF8
3EFEF8
3EFEF8
3EFEF8
3EFEF8
3FEEF8
3FEFF8
3FEFF0
3FEFF0
1FEFF0
1FEFF0
1FEFF0
1FEFF0
1FCFF0
1FC7F0
1FC7F0
1FC7E0
ENDCHAR
STARTCHAR wgrave
ENCODING 7809
SWIDTH 696 0
DWIDTH 22 0
BBX 21 32 1 0
BITMAP
020000
018000
01E000
01F800
01FC00
01FC00
007C00
000000
F9F1F8
F9F9F0
F9F9F0
F9F9F0
F9F9F0
F9F9F0
79F9F0
79FBF0
7DFBE0
7FFFE0
7FFFE0
7FFFE0
7FDFE0
7FDFE0
7FDFE0
3FDFE0
3FDFC0
3FDFC0
3F9FC0
3F9FC0
3F9FC0
3F8FC0
3F8FC0
1F8FC0
ENDCHAR
STARTCHAR Wacute
ENCODING 7810
SWIDTH 712 0
DWIDTH 23 0
BBX 22 36 0 0
BITMAP
000100
000600
001E00
007E00
00FE00
00FE00
00F000
000000
FC7C7C
7C7C7C
7C7C7C
7C7C7C
7CFC7C
7CFCFC
7CFEFC
7CFEFC
7EFEF8
7EFEF8
3EFEF8
3EFEF8
3EFEF8
3EFEF8
3EFEF8
3EFEF8
3FEEF8
3FEFF8
3FEFF0
3FEFF0
1FEFF0
1FEFF0
1FEFF0
1FEFF0
1FCFF0
1FC7F0
1FC7F0
1FC7E0
ENDCHAR
STARTCHAR wacute
ENCODING 7811
SWIDTH 696 0
DWIDTH 22 0
BBX 21 32 1 0
BITMAP
000400
000C00
007C00
01FC00
01FC00
01FC00
01E000
000000
F9F1F8
F9F9F0
F9F9F0
F9F9F0
F9F9F0
F9F9F0
79F9F0
79FBF0
7DFBE0
7FFFE0
7FFFE0
7FFFE0
7FDFE0
7FDFE0
7FDFE0
3FDFE0
3FDFC0
3FDFC0
3F9FC0
3F9FC0
3F9FC0
3F8FC0
3F8FC0
1F8FC0
ENDCHAR
STARTCHAR Wdieresis
ENCODING 7812
SWIDTH 712 0
DWIDTH 23 0
BBX 22 33 0 0
BITMAP
07E7C0
07E7C0
07E7C0
07E7C0
000000
FC7C7C
7C7C7C
7C7C7C
7C7C7C
7CFC7C
7CFCFC
7CFEFC
7CFEFC
7EFEF8
7EFEF8
3EFEF8
3EFEF8
3EFEF8
3EFEF8
3EFEF8
3EFEF8
3FEEF8
3FEFF8
3FEFF0
3FEFF0
1FEFF0
1FEFF0
1FEFF0
1FEFF0
1FCFF0
1FC7F0
1FC7F0
1FC7E0
ENDCHAR
STARTCHAR wdieresis
ENCODING 7813
SWIDTH 696 0
DWIDTH 22 0
BBX 21 29 1 0
BITMAP
0F9F80
0F9F80
0F9F80
0F9F80
000000
F9F1F8
F9F9F0
F9F9F0
F9F9F0
F9F9F0
F9F9F0
79F9F0
79FBF0
7DFBE0
7FFFE0
7FFFE0
7FFFE0
7FDFE0
7FDFE0
7FDFE0
3FDFE0
3FDFC0
3FDFC0
3F9FC0
3F9FC0
3F9FC0
3F8FC0
3F8FC0
1F8FC0
ENDCHAR
STARTCHAR uni1E9E
ENCODING 7838
SWIDTH 498 0
DWIDTH 16 0
BBX 14 28 1 0
BITMAP
1FE0
3FF8
7FFC
FFFC
FEFC
F8FC
F8F8
F8F8
F9F8
F9F0
F9F0
FBF0
FBF8
FBF8
FBFC
F8FC
F87C
F87C
F87C
F87C
F87C
F87C
F87C
F9FC
FBFC
FBF8
FBF0
FBE0
ENDCHAR
STARTCHAR uni1EA0
ENCODING 7840
SWIDTH 485 0
DWIDTH 16 0
BBX 15 35 0 -7
BITMAP
1FF8
1FF8
1FF8
1FF8
1FF8
1FF8
1EF8
3EF8
3EF8
3EF8
3EF8
3EFC
3E7C
3E7C
3E7C
3E7C
3E7C
7E7C
7E7C
7FFC
7FFC
7FFC
7FFE
7C7E
7C3E
7C3E
7C3E
FC3E
0000
0000
0000
07E0
07E0
07E0
07E0
ENDCHAR
STARTCHAR uni1EA1
ENCODING 7841
SWIDTH 483 0
DWIDTH 15 0
BBX 13 31 1 -7
BITMAP
1FC0
3FF0
7FF0
FFF8
FDF8
F8F8
F8F8
00F8
00F8
03F8
1FF8
7FF8
7CF8
FCF8
F8F8
F8F8
F8F8
F8F8
F8F8
FDF8
FFF8
FFF8
7EF8
3CF8
0000
0000
0000
0FC0
0FC0
0FC0
0FC0
ENDCHAR
STARTCHAR uni1EA2
ENCODING 7842
SWIDTH 485 0
DWIDTH 16 0
BBX 15 37 0 0
BITMAP
07C0
07E0
07E0
01F0
00F0
01E0
03E0
0380
0100
1FF8
1FF8
1FF8
1FF8
1FF8
1FF8
1EF8
3EF8
3EF8
3EF8
3EF8
3EFC
3E7C
3E7C
3E7C
3E7C
3E7C
7E7C
7E7C
7FFC
7FFC
7FFC
7FFE
7C7E
7C3E
7C3E
7C3E
FC3E
ENDCHAR
STARTCHAR uni1EA3
ENCODING 7843
SWIDTH 483 0
DWIDTH 15 0
BBX 13 33 1 0
BITMAP
0F80
0FC0
0FE0
03E0
01E0
03C0
07C0
0380
0200
1FC0
3FF0
7FF0
FFF8
FDF8
F8F8
F8F8
00F8
00F8
03F8
1FF8
7FF8
7CF8
FCF8
F8F8
F8F8
F8F8
F8F8
F8F8
FDF8
FFF8
FFF8
7EF8
3CF8
ENDCHAR
STARTCHAR uni1EA4
ENCODING 7844
SWIDTH 485 0
DWIDTH 16 0
BBX 19 35 0 0
BITMAP
0003E0
000780
07EF00
0FF000
1EF000
3E7C00
000000
1FF800
1FF800
1FF800
1FF800
1FF800
1FF800
1EF800
3EF800
3EF800
3EF800
3EF800
3EFC00
3E7C00
3E7C00
3E7C00
3E7C00
3E7C00
7E7C00
7E7C00
7FFC00
7FFC00
7FFC00
7FFE00
7C7E00
7C3E00
7C3E00
7C3E00
FC3E00
ENDCHAR
STARTCHAR uni1EA5
ENCODING 7845
SWIDTH 483 0
DWIDTH 15 0
BBX 19 33 1 0
BITMAP
0003E0
0007C0
000780
000F00
1FE000
3FF000
7CF800
FCFC00
000000
1FC000
3FF000
7FF000
FFF800
FDF800
F8F800
F8F800
00F800
00F800
03F800
1FF800
7FF800
7CF800
FCF800
F8F800
F8F800
F8F800
F8F800
F8F800
FDF800
FFF800
FFF800
7EF800
3CF800
ENDCHAR
STARTCHAR uni1EA6
ENCODING 7846
SWIDTH 485 0
DWIDTH 16 0
BBX 17 35 0 0
BITMAP
003E00
000F00
07E780
0FF000
1E7800
200400
000000
1FF800
1FF800
1FF800
1FF800
1FF800
1FF800
1EF800
3EF800
3EF800
3EF800
3EF800
3EFC00
3E7C00
3E7C00
3E7C00
3E7C00
3E7C00
7E7C00
7E7C00
7FFC00
7FFC00
7FFC00
7FFE00
7C7E00
7C3E00
7C3E00
7C3E00
FC3E00
ENDCHAR
STARTCHAR uni1EA7
ENCODING 7847
SWIDTH 483 0
DWIDTH 15 0
BBX 16 33 1 0
BITMAP
007C
001E
001E
000F
1FE0
3FF0
7CF8
FCFC
0000
1FC0
3FF0
7FF0
FFF8
FDF8
F8F8
F8F8
00F8
00F8
03F8
1FF8
7FF8
7CF8
FCF8
F8F8
F8F8
F8F8
F8F8
F8F8
FDF8
FFF8
FFF8
7EF8
3CF8
ENDCHAR
STARTCHAR uni1EA8
ENCODING 7848
SWIDTH 485 0
DWIDTH 16 0
BBX 16 36 0 0
BITMAP
000E
000F
0003
07EF
0FF6
1EF0
3E7C
0000
1FF8
1FF8
1FF8
1FF8
1FF8
1FF8
1EF8
3EF8
3EF8
3EF8
3EF8
3EFC
3E7C
3E7C
3E7C
3E7C
3E7C
7E7C
7E7C
7FFC
7FFC
7FFC
7FFE
7C7E
7C3E
7C3E
7C3E
FC3E
ENDCHAR
STARTCHAR uni1EA9
ENCODING 7849
SWIDTH 483 0
DWIDTH 15 0
BBX 17 37 1 0
BITMAP
003E00
003F00
003F80
000F80
000780
000780
000F00
001E00
1FCC00
1FE000
3DF000
7CF800
000000
1FC000
3FF000
7FF000
FFF800
FDF800
F8F800
F8F800
00F800
00F800
03F800
1FF800
7FF800
7CF800
FCF800
F8F800
F8F800
F8F800
F8F800
F8F800
FDF800
FFF800
FFF800
7EF800
3CF800
ENDCHAR
STARTCHAR uni1EAA
ENCODING 7850
SWIDTH 485 0
DWIDTH 16 0
BBX 15 38 0 0
BITMAP
0E28
1FF0
1FF0
08E0
0000
07E0
0FF0
1EF0
3E7C
0000
1FF8
1FF8
1FF8
1FF8
1FF8
1FF8
1EF8
3EF8
3EF8
3EF8
3EF8
3EFC
3E7C
3E7C
3E7C
3E7C
3E7C
7E7C
7E7C
7FFC
7FFC
7FFC
7FFE
7C7E
7C3E
7C3E
7C3E
FC3E
ENDCHAR
STARTCHAR uni1EAB
ENCODING 7851
SWIDTH 483 0
DWIDTH 15 0
BBX 14 36 1 0
BITMAP
3E30
7FF8
FFF8
63F0
00E0
0000
0000
1FE0
3FF0
7CF8
FCFC
0000
1FC0
3FF0
7FF0
FFF8
FDF8
F8F8
F8F8
00F8
00F8
03F8
1FF8
7FF8
7CF8
FCF8
F8F8
F8F8
F8F8
F8F8
F8F8
FDF8
FFF8
FFF8
7EF8
3CF8
ENDCHAR
STARTCHAR uni1EAC
ENCODING 7852
SWIDTH 485 0
DWIDTH 16 0
BBX 15 41 0 -7
BITMAP
0FE0
1FF0
1EF8
3EFC
7E7E
0000
1FF8
1FF8
1FF8
1FF8
1FF8
1FF8
1EF8
3EF8
3EF8
3EF8
3EF8
3EFC
3E7C
3E7C
3E7C
3E7C
3E7C
7E7C
7E7C
7FFC
7FFC
7FFC
7FFE
7C7E
7C3E
7C3E
7C3E
FC3E
0000
0000
0000
07E0
07E0
07E0
07E0
ENDCHAR
STARTCHAR uni1EAD
ENCODING 7853
SWIDTH 483 0
DWIDTH 15 0
BBX 13 38 1 -7
BITMAP
1FC0
1FE0
3FF0
7DF0
7CF8
FCF8
0000
1FC0
3FF0
7FF0
FFF8
FDF8
F8F8
F8F8
00F8
00F8
03F8
1FF8
7FF8
7CF8
FCF8
F8F8
F8F8
F8F8
F8F8
F8F8
FDF8
FFF8
FFF8
7EF8
3CF8
0000
0000
0000
0FC0
0FC0
0FC0
0FC0
ENDCHAR
STARTCHAR uni1EAE
ENCODING 7854
SWIDTH 485 0
DWIDTH 16 0
BBX 15 39 0 0
BITMAP
0020
00E0
03E0
07E0
0400
1C38
1C38
1C78
0FF0
07C0
0000
1FF8
1FF8
1FF8
1FF8
1FF8
1FF8
1EF8
3EF8
3EF8
3EF8
3EF8
3EFC
3E7C
3E7C
3E7C
3E7C
3E7C
7E7C
7E7C
7FFC
7FFC
7FFC
7FFE
7C7E
7C3E
7C3E
7C3E
FC3E
ENDCHAR
STARTCHAR uni1EAF
ENCODING 7855
SWIDTH 483 0
DWIDTH 15 0
BBX 13 37 1 0
BITMAP
0060
03E0
1FE0
1FE0
1FC0
1000
0000
7878
7878
7FF8
3FF0
0FC0
0000
1FC0
3FF0
7FF0
FFF8
FDF8
F8F8
F8F8
00F8
00F8
03F8
1FF8
7FF8
7CF8
FCF8
F8F8
F8F8
F8F8
F8F8
F8F8
FDF8
FFF8
FFF8
7EF8
3CF8
ENDCHAR
STARTCHAR uni1EB0
ENCODING 7856
SWIDTH 485 0
DWIDTH 16 0
BBX 15 39 0 0
BITMAP
0400
0700
07C0
07E0
0020
1C38
1C38
1C78
0FF0
07C0
0000
1FF8
1FF8
1FF8
1FF8
1FF8
1FF8
1EF8
3EF8
3EF8
3EF8
3EF8
3EFC
3E7C
3E7C
3E7C
3E7C
3E7C
7E7C
7E7C
7FFC
7FFC
7FFC
7FFE
7C7E
7C3E
7C3E
7C3E
FC3E
ENDCHAR
STARTCHAR uni1EB1
ENCODING 7857
SWIDTH 483 0
DWIDTH 15 0
BBX 13 36 1 0
BITMAP
1C00
1F00
1FE0
1FE0
03E0
0000
7878
78F8
7FF8
3FF0
0FC0
0000
1FC0
3FF0
7FF0
FFF8
FDF8
F8F8
F8F8
00F8
00F8
03F8
1FF8
7FF8
7CF8
FCF8
F8F8
F8F8
F8F8
F8F8
F8F8
FDF8
FFF8
FFF8
7EF8
3CF8
ENDCHAR
STARTCHAR uni1EB2
ENCODING 7858
SWIDTH 485 0
DWIDTH 16 0
BBX 15 39 0 0
BITMAP
03C0
03C0
00C0
00C0
01C0
0100
1C38
1C78
0FF0
07C0
0000
1FF8
1FF8
1FF8
1FF8
1FF8
1FF8
1EF8
3EF8
3EF8
3EF8
3EF8
3EFC
3E7C
3E7C
3E7C
3E7C
3E7C
7E7C
7E7C
7FFC
7FFC
7FFC
7FFE
7C7E
7C3E
7C3E
7C3E
FC3E
ENDCHAR
STARTCHAR uni1EB3
ENCODING 7859
SWIDTH 483 0
DWIDTH 15 0
BBX 13 39 1 0
BITMAP
0F80
0FC0
0FC0
03E0
01E0
03C0
07C0
0780
0200
7878
78F8
7FF8
3FF0
0FC0
0000
1FC0
3FF0
7FF0
FFF8
FDF8
F8F8
F8F8
00F8
00F8
03F8
1FF8
7FF8
7CF8
FCF8
F8F8
F8F8
F8F8
F8F8
F8F8
FDF8
FFF8
FFF8
7EF8
3CF8
ENDCHAR
STARTCHAR uni1EB4
ENCODING 7860
SWIDTH 485 0
DWIDTH 16 0
BBX 15 38 0 0
BITMAP
0F10
0FF8
1FF0
08E0
0000
1C38
1C78
0FF0
07C0
0000
1FF8
1FF8
1FF8
1FF8
1FF8
1FF8
1EF8
3EF8
3EF8
3EF8
3EF8
3EFC
3E7C
3E7C
3E7C
3E7C
3E7C
7E7C
7E7C
7FFC
7FFC
7FFC
7FFE
7C7E
7C3E
7C3E
7C3E
FC3E
ENDCHAR
STARTCHAR uni1EB5
ENCODING 7861
SWIDTH 483 0
DWIDTH 15 0
BBX 13 36 1 0
BITMAP
3E30
7FF8
FFF8
63F0
00E0
0000
7878
78F8
7FF8
3FF0
0FC0
0000
1FC0
3FF0
7FF0
FFF8
FDF8
F8F8
F8F8
00F8
00F8
03F8
1FF8
7FF8
7CF8
FCF8
F8F8
F8F8
F8F8
F8F8
F8F8
FDF8
FFF8
FFF8
7EF8
3CF8
ENDCHAR
STARTCHAR uni1EB6
ENCODING 7862
SWIDTH 485 0
DWIDTH 16 0
BBX 15 41 0 -7
BITMAP
3C3C
3C7C
3FFC
1FF8
0FE0
0000
1FF8
1FF8
1FF8
1FF8
1FF8
1FF8
1EF8
3EF8
3EF8
3EF8
3EF8
3EFC
3E7C
3E7C
3E7C
3E7C
3E7C
7E7C
7E7C
7FFC
7FFC
7FFC
7FFE
7C7E
7C3E
7C3E
7C3E
FC3E
0000
0000
0000
07E0
07E0
07E0
07E0
ENDCHAR
STARTCHAR uni1EB7
ENCODING 7863
SWIDTH 483 0
DWIDTH 15 0
BBX 13 38 1 -7
BITMAP
7878
7CF8
7FF8
7FF8
3FF0
0FC0
0000
1FC0
3FF0
7FF0
FFF8
FDF8
F8F8
F8F8
00F8
00F8
03F8
1FF8
7FF8
7CF8
FCF8
F8F8
F8F8
F8F8
F8F8
F8F8
FDF8
FFF8
FFF8
7EF8
3CF8
0000
0000
0000
0FC0
0FC0
0FC0
0FC0
ENDCHAR
STARTCHAR uni1EB8
ENCODING 7864
SWIDTH 412 0
DWIDTH 13 0
BBX 12 35 1 -7
BITMAP
FFE0
FFE0
FFE0
FFE0
FFE0
FC00
FC00
FC00
FC00
FC00
FC00
FFE0
FFE0
FFE0
FFE0
FFE0
FC00
FC00
FC00
FC00
FC00
FC00
FC00
FFF0
FFF0
FFF0
FFF0
FFF0
0000
0000
0000
1F80
1F80
1F80
1F80
ENDCHAR
STARTCHAR uni1EB9
ENCODING 7865
SWIDTH 488 0
DWIDTH 16 0
BBX 14 31 1 -7
BITMAP
0FC0
3FF0
7FF8
FFF8
FDF8
FCFC
FCFC
FCFC
FCFC
FCFC
FFFC
FFFC
FFFC
FC00
FC00
FCFC
FCFC
FCFC
FCFC
FDF8
7FF8
7FF8
3FF0
0FC0
0000
0000
0000
0FC0
0FC0
0FC0
0FC0
ENDCHAR
STARTCHAR uni1EBA
ENCODING 7866
SWIDTH 412 0
DWIDTH 13 0
BBX 12 37 1 0
BITMAP
1F00
1F80
1F80
07C0
03C0
0780
0F80
0F00
0400
FFE0
FFE0
FFE0
FFE0
FFE0
FC00
FC00
FC00
FC00
FC00
FC00
FFE0
FFE0
FFE0
FFE0
FFE0
FC00
FC00
FC00
FC00
FC00
FC00
FC00
FFF0
FFF0
FFF0
FFF0
FFF0
ENDCHAR
STARTCHAR uni1EBB
ENCODING 7867
SWIDTH 488 0
DWIDTH 16 0
BBX 14 34 1 0
BITMAP
0F80
0FE0
0FE0
01E0
01E0
01E0
07C0
0380
0200
0000
0FC0
3FF0
7FF8
FFF8
FDF8
FCFC
FCFC
FCFC
FCFC
FCFC
FFFC
FFFC
FFFC
FC00
FC00
FCFC
FCFC
FCFC
FCFC
FDF8
7FF8
7FF8
3FF0
0FC0
ENDCHAR
STARTCHAR uni1EBC
ENCODING 7868
SWIDTH 412 0
DWIDTH 13 0
BBX 13 35 0 0
BITMAP
1F38
3FF8
7FF8
FFF0
21E0
0000
0000
7FF0
7FF0
7FF0
7FF0
7FF0
7E00
7E00
7E00
7E00
7E00
7E00
7FF0
7FF0
7FF0
7FF0
7FF0
7E00
7E00
7E00
7E00
7E00
7E00
7E00
7FF8
7FF8
7FF8
7FF8
7FF8
ENDCHAR
STARTCHAR uni1EBD
ENCODING 7869
SWIDTH 488 0
DWIDTH 16 0
BBX 14 31 1 0
BITMAP
1F38
3FF8
7FF8
FFF0
21E0
0000
0000
0FC0
3FF0
7FF8
FFF8
FDF8
FCFC
FCFC
FCFC
FCFC
FCFC
FFFC
FFFC
FFFC
FC00
FC00
FCFC
FCFC
FCFC
FCFC
FDF8
7FF8
7FF8
3FF0
0FC0
ENDCHAR
STARTCHAR uni1EBE
ENCODING 7870
SWIDTH 412 0
DWIDTH 13 0
BBX 17 35 1 0
BITMAP
000F80
001E00
1FBC00
3FC000
7BE000
F9F000
000000
FFE000
FFE000
FFE000
FFE000
FFE000
FC0000
FC0000
FC0000
FC0000
FC0000
FC0000
FFE000
FFE000
FFE000
FFE000
FFE000
FC0000
FC0000
FC0000
FC0000
FC0000
FC0000
FC0000
FFF000
FFF000
FFF000
FFF000
FFF000
ENDCHAR
STARTCHAR uni1EBF
ENCODING 7871
SWIDTH 488 0
DWIDTH 16 0
BBX 19 33 1 0
BITMAP
0003E0
0007C0
000780
000F00
1FE000
3FF000
7CF800
FCFC00
000000
0FC000
3FF000
7FF800
FFF800
FDF800
FCFC00
FCFC00
FCFC00
FCFC00
FCFC00
FFFC00
FFFC00
FFFC00
FC0000
FC0000
FCFC00
FCFC00
FCFC00
FCFC00
FDF800
7FF800
7FF800
3FF000
0FC000
ENDCHAR
STARTCHAR uni1EC0
ENCODING 7872
SWIDTH 412 0
DWIDTH 13 0
BBX 15 35 1 0
BITMAP
00FC
003C
1F9E
3FC0
79E0
8010
0000
FFE0
FFE0
FFE0
FFE0
FFE0
FC00
FC00
FC00
FC00
FC00
FC00
FFE0
FFE0
FFE0
FFE0
FFE0
FC00
FC00
FC00
FC00
FC00
FC00
FC00
FFF0
FFF0
FFF0
FFF0
FFF0
ENDCHAR
STARTCHAR uni1EC1
ENCODING 7873
SWIDTH 488 0
DWIDTH 16 0
BBX 16 33 1 0
BITMAP
007C
001E
001F
000F
1FE0
3FF0
7CF8
FCFC
0000
0FC0
3FF0
7FF8
FFF8
FDF8
FCFC
FCFC
FCFC
FCFC
FCFC
FFFC
FFFC
FFFC
FC00
FC00
FCFC
FCFC
FCFC
FCFC
FDF8
7FF8
7FF8
3FF0
0FC0
ENDCHAR
STARTCHAR uni1EC2
ENCODING 7874
SWIDTH 412 0
DWIDTH 13 0
BBX 14 36 1 0
BITMAP
0038
003C
000C
1F9C
3FD8
7BE0
F9F0
0000
FFE0
FFE0
FFE0
FFE0
FFE0
FC00
FC00
FC00
FC00
FC00
FC00
FFE0
FFE0
FFE0
FFE0
FFE0
FC00
FC00
FC00
FC00
FC00
FC00
FC00
FFF0
FFF0
FFF0
FFF0
FFF0
ENDCHAR
STARTCHAR uni1EC3
ENCODING 7875
SWIDTH 488 0
DWIDTH 16 0
BBX 17 37 1 0
BITMAP
003E00
003F00
003F80
000F80
000780
000780
000F00
001E00
0FCC00
1FE000
3CF000
7CF800
000000
0FC000
3FF000
7FF800
FFF800
FDF800
FCFC00
FCFC00
FCFC00
FCFC00
FCFC00
FFFC00
FFFC00
FFFC00
FC0000
FC0000
FCFC00
FCFC00
FCFC00
FCFC00
FDF800
7FF800
7FF800
3FF000
0FC000
ENDCHAR
STARTCHAR uni1EC4
ENCODING 7876
SWIDTH 412 0
DWIDTH 13 0
BBX 12 38 1 0
BITMAP
3880
3FE0
7FC0
2380
0000
1F80
3FC0
7BE0
F9F0
0000
FFE0
FFE0
FFE0
FFE0
FFE0
FC00
FC00
FC00
FC00
FC00
FC00
FFE0
FFE0
FFE0
FFE0
FFE0
FC00
FC00
FC00
FC00
FC00
FC00
FC00
FFF0
FFF0
FFF0
FFF0
FFF0
ENDCHAR
STARTCHAR uni1EC5
ENCODING 7877
SWIDTH 488 0
DWIDTH 16 0
BBX 14 36 1 0
BITMAP
3E30
7FF8
FFF8
63F0
00E0
0000
0000
1FE0
3FF0
7CF8
FCFC
0000
0FC0
3FF0
7FF8
FFF8
FDF8
FCFC
FCFC
FCFC
FCFC
FCFC
FFFC
FFFC
FFFC
FC00
FC00
FCFC
FCFC
FCFC
FCFC
FDF8
7FF8
7FF8
3FF0
0FC0
ENDCHAR
STARTCHAR uni1EC6
ENCODING 7878
SWIDTH 412 0
DWIDTH 13 0
BBX 14 41 0 -7
BITMAP
1FC0
3FE0
3DF0
7CF8
FCFC
0000
7FF0
7FF0
7FF0
7FF0
7FF0
7E00
7E00
7E00
7E00
7E00
7E00
7FF0
7FF0
7FF0
7FF0
7FF0
7E00
7E00
7E00
7E00
7E00
7E00
7E00
7FF8
7FF8
7FF8
7FF8
7FF8
0000
0000
0000
0FC0
0FC0
0FC0
0FC0
ENDCHAR
STARTCHAR uni1EC7
ENCODING 7879
SWIDTH 488 0
DWIDTH 16 0
BBX 14 38 1 -7
BITMAP
1FC0
1FE0
3FF0
3CF0
7CF8
FCFC
0000
0FC0
3FF0
7FF8
FFF8
FDF8
FCFC
FCFC
FCFC
FCFC
FCFC
FFFC
FFFC
FFFC
FC00
FC00
FCFC
FCFC
FCFC
FCFC
FDF8
7FF8
7FF8
3FF0
0FC0
0000
0000
0000
0FC0
0FC0
0FC0
0FC0
ENDCHAR
STARTCHAR uni1EC8
ENCODING 7880
SWIDTH 227 0
DWIDTH 7 0
BBX 7 37 0 0
BITMAP
FC
FE
FE
1E
1E
1E
7C
38
10
7C
7C
7C
7C
7C
7C
7C
7C
7C
7C
7C
7C
7C
7C
7C
7C
7C
7C
7C
7C
7C
7C
7C
7C
7C
7C
7C
7C
ENDCHAR
STARTCHAR uni1EC9
ENCODING 7881
SWIDTH 235 0
DWIDTH 8 0
BBX 7 34 1 0
BITMAP
F8
FC
FE
1E
1E
1E
7C
38
20
00
FC
FC
FC
FC
FC
FC
FC
FC
FC
FC
FC
FC
FC
FC
FC
FC
FC
FC
FC
FC
FC
FC
FC
FC
ENDCHAR
STARTCHAR uni1ECA
ENCODING 7882
SWIDTH 227 0
DWIDTH 7 0
BBX 5 35 1 -7
BITMAP
F8
F8
F8
F8
F8
F8
F8
F8
F8
F8
F8
F8
F8
F8
F8
F8
F8
F8
F8
F8
F8
F8
F8
F8
F8
F8
F8
F8
00
00
00
F8
F8
F8
F8
ENDCHAR
STARTCHAR uni1ECB
ENCODING 7883
SWIDTH 243 0
DWIDTH 8 0
BBX 6 36 1 -7
BITMAP
FC
FC
FC
FC
00
FC
FC
FC
FC
FC
FC
FC
FC
FC
FC
FC
FC
FC
FC
FC
FC
FC
FC
FC
FC
FC
FC
FC
FC
00
00
00
FC
FC
FC
FC
ENDCHAR
STARTCHAR uni1ECC
ENCODING 7884
SWIDTH 486 0
DWIDTH 16 0
BBX 14 35 1 -7
BITMAP
0FC0
3FE0
7FF0
7FF8
FFF8
FCF8
F8FC
F8FC
F8FC
F8FC
F8FC
F8FC
F8FC
F8FC
F8FC
F8FC
F8FC
F8FC
F8FC
F8FC
F8FC
F8FC
FCF8
FFF8
7FF8
7FF0
3FE0
0FC0
0000
0000
0000
0FC0
0FC0
0FC0
0FC0
ENDCHAR
STARTCHAR uni1ECD
ENCODING 7885
SWIDTH 497 0
DWIDTH 16 0
BBX 14 31 1 -7
BITMAP
0FC0
3FF0
7FF8
7FF8
FDFC
FCFC
FCFC
FCFC
FCFC
FCFC
FCFC
FCFC
FCFC
FCFC
FCFC
FCFC
FCFC
FCFC
FCFC
FFFC
7FF8
7FF8
3FF0
0FC0
0000
0000
0000
0FC0
0FC0
0FC0
0FC0
ENDCHAR
STARTCHAR uni1ECE
ENCODING 7886
SWIDTH 486 0
DWIDTH 16 0
BBX 14 37 1 0
BITMAP
0F80
0FC0
0FC0
03E0
01E0
03C0
07C0
0780
0200
0FC0
3FE0
7FF0
7FF8
FFF8
FCF8
F8FC
F8FC
F8FC
F8FC
F8FC
F8FC
F8FC
F8FC
F8FC
F8FC
F8FC
F8FC
F8FC
F8FC
F8FC
F8FC
FCF8
FFF8
7FF8
7FF0
3FE0
0FC0
ENDCHAR
STARTCHAR uni1ECF
ENCODING 7887
SWIDTH 497 0
DWIDTH 16 0
BBX 14 34 1 0
BITMAP
0F80
0FE0
0FE0
01E0
01E0
01E0
07C0
0380
0200
0000
0FC0
3FF0
7FF8
7FF8
FDFC
FCFC
FCFC
FCFC
FCFC
FCFC
FCFC
FCFC
FCFC
FCFC
FCFC
FCFC
FCFC
FCFC
FCFC
FFFC
7FF8
7FF8
3FF0
0FC0
ENDCHAR
STARTCHAR uni1ED0
ENCODING 7888
SWIDTH 486 0
DWIDTH 16 0
BBX 18 35 1 0
BITMAP
0007C0
000F00
0FDE00
1FE000
3DF000
7CF800
000000
0FC000
3FE000
7FF000
7FF800
FFF800
FCF800
F8FC00
F8FC00
F8FC00
F8FC00
F8FC00
F8FC00
F8FC00
F8FC00
F8FC00
F8FC00
F8FC00
F8FC00
F8FC00
F8FC00
F8FC00
F8FC00
FCF800
FFF800
7FF800
7FF000
3FE000
0FC000
ENDCHAR
STARTCHAR uni1ED1
ENCODING 7889
SWIDTH 497 0
DWIDTH 16 0
BBX 19 33 1 0
BITMAP
0003E0
0007C0
000780
000F00
1FE000
3FF000
7CF800
FCFC00
000000
0FC000
3FF000
7FF800
7FF800
FDFC00
FCFC00
FCFC00
FCFC00
FCFC00
FCFC00
FCFC00
FCFC00
FCFC00
FCFC00
FCFC00
FCFC00
FCFC00
FCFC00
FCFC00
FFFC00
7FF800
7FF800
3FF000
0FC000
ENDCHAR
STARTCHAR uni1ED2
ENCODING 7890
SWIDTH 486 0
DWIDTH 16 0
BBX 16 35 1 0
BITMAP
007E
001E
0FCF
1FE0
3CF0
4008
0000
0FC0
3FE0
7FF0
7FF8
FFF8
FCF8
F8FC
F8FC
F8FC
F8FC
F8FC
F8FC
F8FC
F8FC
F8FC
F8FC
F8FC
F8FC
F8FC
F8FC
F8FC
F8FC
FCF8
FFF8
7FF8
7FF0
3FE0
0FC0
ENDCHAR
STARTCHAR uni1ED3
ENCODING 7891
SWIDTH 497 0
DWIDTH 16 0
BBX 16 33 1 0
BITMAP
007C
001E
001F
000F
1FE0
3FF0
7CF8
FCFC
0000
0FC0
3FF0
7FF8
7FF8
FDFC
FCFC
FCFC
FCFC
FCFC
FCFC
FCFC
FCFC
FCFC
FCFC
FCFC
FCFC
FCFC
FCFC
FCFC
FFFC
7FF8
7FF8
3FF0
0FC0
ENDCHAR
STARTCHAR uni1ED4
ENCODING 7892
SWIDTH 486 0
DWIDTH 16 0
BBX 15 36 1 0
BITMAP
001C
001E
0006
0FCE
1FEC
3DF0
7CF8
0000
0FC0
3FE0
7FF0
7FF8
FFF8
FCF8
F8FC
F8FC
F8FC
F8FC
F8FC
F8FC
F8FC
F8FC
F8FC
F8FC
F8FC
F8FC
F8FC
F8FC
F8FC
F8FC
FCF8
FFF8
7FF8
7FF0
3FE0
0FC0
ENDCHAR
STARTCHAR uni1ED5
ENCODING 7893
SWIDTH 497 0
DWIDTH 16 0
BBX 17 37 1 0
BITMAP
003E00
003F00
003F80
000F80
000780
000780
000F00
001E00
0FCC00
1FE000
3CF000
7CF800
000000
0FC000
3FF000
7FF800
7FF800
FDFC00
FCFC00
FCFC00
FCFC00
FCFC00
FCFC00
FCFC00
FCFC00
FCFC00
FCFC00
FCFC00
FCFC00
FCFC00
FCFC00
FCFC00
FFFC00
7FF800
7FF800
3FF000
0FC000
ENDCHAR
STARTCHAR uni1ED6
ENCODING 7894
SWIDTH 486 0
DWIDTH 16 0
BBX 14 38 1 0
BITMAP
1C40
1FF0
3FE0
11C0
0000
0FC0
1FE0
3DF0
7CF8
0000
0FC0
3FE0
7FF0
7FF8
FFF8
FCF8
F8FC
F8FC
F8FC
F8FC
F8FC
F8FC
F8FC
F8FC
F8FC
F8FC
F8FC
F8FC
F8FC
F8FC
F8FC
F8FC
FCF8
FFF8
7FF8
7FF0
3FE0
0FC0
ENDCHAR
STARTCHAR uni1ED7
ENCODING 7895
SWIDTH 497 0
DWIDTH 16 0
BBX 14 36 1 0
BITMAP
3E30
7FF8
FFF8
63F0
00E0
0000
0000
1FE0
3FF0
7CF8
FCFC
0000
0FC0
3FF0
7FF8
7FF8
FDFC
FCFC
FCFC
FCFC
FCFC
FCFC
FCFC
FCFC
FCFC
FCFC
FCFC
FCFC
FCFC
FCFC
FCFC
FFFC
7FF8
7FF8
3FF0
0FC0
ENDCHAR
STARTCHAR uni1ED8
ENCODING 7896
SWIDTH 486 0
DWIDTH 16 0
BBX 14 41 1 -7
BITMAP
1FC0
3FE0
3DF0
7CF8
FCFC
0000
0FC0
3FE0
7FF0
7FF8
FFF8
FCF8
F8FC
F8FC
F8FC
F8FC
F8FC
F8FC
F8FC
F8FC
F8FC
F8FC
F8FC
F8FC
F8FC
F8FC
F8FC
F8FC
FCF8
FFF8
7FF8
7FF0
3FE0
0FC0
0000
0000
0000
0FC0
0FC0
0FC0
0FC0
ENDCHAR
STARTCHAR uni1ED9
ENCODING 7897
SWIDTH 497 0
DWIDTH 16 0
BBX 14 38 1 -7
BITMAP
1FC0
1FE0
3FF0
3DF0
7CF8
FCFC
0000
0FC0
3FF0
7FF8
7FF8
FDFC
FCFC
FCFC
FCFC
FCFC
FCFC
FCFC
FCFC
FCFC
FCFC
FCFC
FCFC
FCFC
FCFC
FCFC
FFFC
7FF8
7FF8
3FF0
0FC0
0000
0000
0000
0FC0
0FC0
0FC0
0FC0
ENDCHAR
STARTCHAR uni1EDA
ENCODING 7898
SWIDTH 490 0
DWIDTH 16 0
BBX 14 36 1 0
BITMAP
0060
03E0
1FE0
1FE0
1FC0
103C
003C
007C
0FFC
3FF8
7FF0
7FF8
FFF8
FCF8
F8FC
F8FC
F8FC
F8FC
F8FC
F8FC
F8FC
F8FC
F8FC
F8FC
F8FC
F8FC
F8FC
F8FC
F8FC
F8FC
FCF8
FFF8
7FF8
7FF0
3FE0
0FC0
ENDCHAR
STARTCHAR uni1EDB
ENCODING 7899
SWIDTH 497 0
DWIDTH 16 0
BBX 14 33 1 0
BITMAP
0020
00E0
03E0
0FE0
1FE0
1FE0
1F3C
003C
007C
0FFC
3FF8
7FF8
7FF8
FDFC
FCFC
FCFC
FCFC
FCFC
FCFC
FCFC
FCFC
FCFC
FCFC
FCFC
FCFC
FCFC
FCFC
FCFC
FFFC
7FF8
7FF8
3FF0
0FC0
ENDCHAR
STARTCHAR uni1EDC
ENCODING 7900
SWIDTH 490 0
DWIDTH 16 0
BBX 14 37 1 0
BITMAP
1800
1F00
1FC0
1FE0
1FE0
0060
003C
003C
007C
0FFC
3FF8
7FF0
7FF8
FFF8
FCF8
F8FC
F8FC
F8FC
F8FC
F8FC
F8FC
F8FC
F8FC
F8FC
F8FC
F8FC
F8FC
F8FC
F8FC
F8FC
F8FC
FCF8
FFF8
7FF8
7FF0
3FE0
0FC0
ENDCHAR
STARTCHAR uni1EDD
ENCODING 7901
SWIDTH 497 0
DWIDTH 16 0
BBX 14 34 1 0
BITMAP
1000
1C00
1F00
1FC0
1FE0
1FE0
03E0
003C
003C
007C
0FFC
3FF8
7FF8
7FF8
FDFC
FCFC
FCFC
FCFC
FCFC
FCFC
FCFC
FCFC
FCFC
FCFC
FCFC
FCFC
FCFC
FCFC
FCFC
FFFC
7FF8
7FF8
3FF0
0FC0
ENDCHAR
STARTCHAR uni1EDE
ENCODING 7902
SWIDTH 490 0
DWIDTH 16 0
BBX 14 38 1 0
BITMAP
0F80
0FC0
0FC0
03E0
01E0
03C0
07C0
03BC
023C
007C
0FFC
3FF8
7FF0
7FF8
FFF8
FCF8
F8FC
F8FC
F8FC
F8FC
F8FC
F8FC
F8FC
F8FC
F8FC
F8FC
F8FC
F8FC
F8FC
F8FC
F8FC
F8FC
FCF8
FFF8
7FF8
7FF0
3FE0
0FC0
ENDCHAR
STARTCHAR uni1EDF
ENCODING 7903
SWIDTH 497 0
DWIDTH 16 0
BBX 14 35 1 0
BITMAP
0F80
0FE0
0FE0
01E0
01E0
01E0
07C0
0380
023C
003C
007C
0FFC
3FF8
7FF8
7FF8
FDFC
FCFC
FCFC
FCFC
FCFC
FCFC
FCFC
FCFC
FCFC
FCFC
FCFC
FCFC
FCFC
FCFC
FCFC
FFFC
7FF8
7FF8
3FF0
0FC0
ENDCHAR
STARTCHAR uni1EE0
ENCODING 7904
SWIDTH 490 0
DWIDTH 16 0
BBX 14 37 1 0
BITMAP
3C20
7F38
FFF8
67F0
01E0
0000
003C
003C
007C
0FFC
3FF8
7FF0
7FF8
FFF8
FCF8
F8FC
F8FC
F8FC
F8FC
F8FC
F8FC
F8FC
F8FC
F8FC
F8FC
F8FC
F8FC
F8FC
F8FC
F8FC
F8FC
FCF8
FFF8
7FF8
7FF0
3FE0
0FC0
ENDCHAR
STARTCHAR uni1EE1
ENCODING 7905
SWIDTH 497 0
DWIDTH 16 0
BBX 14 33 1 0
BITMAP
1F38
3FF8
7FF8
FFF0
21E0
0000
003C
003C
007C
0FFC
3FF8
7FF8
7FF8
FDFC
FCFC
FCFC
FCFC
FCFC
FCFC
FCFC
FCFC
FCFC
FCFC
FCFC
FCFC
FCFC
FCFC
FCFC
FFFC
7FF8
7FF8
3FF0
0FC0
ENDCHAR
STARTCHAR uni1EE2
ENCODING 7906
SWIDTH 490 0
DWIDTH 16 0
BBX 14 38 1 -7
BITMAP
003C
003C
007C
0FFC
3FF8
7FF0
7FF8
FFF8
FCF8
F8FC
F8FC
F8FC
F8FC
F8FC
F8FC
F8FC
F8FC
F8FC
F8FC
F8FC
F8FC
F8FC
F8FC
F8FC
F8FC
FCF8
FFF8
7FF8
7FF0
3FE0
0FC0
0000
0000
0000
0FC0
0FC0
0FC0
0FC0
ENDCHAR
STARTCHAR uni1EE3
ENCODING 7907
SWIDTH 497 0
DWIDTH 16 0
BBX 14 34 1 -7
BITMAP
003C
003C
007C
0FFC
3FF8
7FF8
7FF8
FDFC
FCFC
FCFC
FCFC
FCFC
FCFC
FCFC
FCFC
FCFC
FCFC
FCFC
FCFC
FCFC
FCFC
FCFC
FFFC
7FF8
7FF8
3FF0
0FC0
0000
0000
0000
0FC0
0FC0
0FC0
0FC0
ENDCHAR
STARTCHAR uni1EE4
ENCODING 7908
SWIDTH 474 0
DWIDTH 15 0
BBX 13 35 1 -7
BITMAP
F8F8
F8F8
F8F8
F8F8
F8F8
F8F8
F8F8
F8F8
F8F8
F8F8
F8F8
F8F8
F8F8
F8F8
F8F8
F8F8
F8F8
F8F8
F8F8
F8F8
F8F8
F8F8
FCF8
FFF8
7FF8
7FF0
3FE0
0FC0
0000
0000
0000
0F80
0F80
0F80
0F80
ENDCHAR
STARTCHAR uni1EE5
ENCODING 7909
SWIDTH 499 0
DWIDTH 16 0
BBX 14 31 1 -7
BITMAP
FCFC
FCFC
FCFC
FCFC
FCFC
FCFC
FCFC
FCFC
FCFC
FCFC
FCFC
FCFC
FCFC
FCFC
FCFC
FCFC
FCFC
FCFC
FCFC
FCFC
FFFC
7FFC
7FFC
3EFC
0000
0000
0000
07C0
07C0
07C0
07C0
ENDCHAR
STARTCHAR uni1EE6
ENCODING 7910
SWIDTH 474 0
DWIDTH 15 0
BBX 13 37 1 0
BITMAP
1F80
1FC0
1FC0
03C0
03C0
03C0
0F80
0700
0200
F8F8
F8F8
F8F8
F8F8
F8F8
F8F8
F8F8
F8F8
F8F8
F8F8
F8F8
F8F8
F8F8
F8F8
F8F8
F8F8
F8F8
F8F8
F8F8
F8F8
F8F8
F8F8
FCF8
FFF8
7FF8
7FF0
3FE0
0FC0
ENDCHAR
STARTCHAR uni1EE7
ENCODING 7911
SWIDTH 499 0
DWIDTH 16 0
BBX 14 34 1 0
BITMAP
0F80
0FE0
0FE0
01E0
01E0
01E0
07C0
0380
0100
0000
FCFC
FCFC
FCFC
FCFC
FCFC
FCFC
FCFC
FCFC
FCFC
FCFC
FCFC
FCFC
FCFC
FCFC
FCFC
FCFC
FCFC
FCFC
FCFC
FCFC
FFFC
7FFC
7FFC
3EFC
ENDCHAR
STARTCHAR uni1EE8
ENCODING 7912
SWIDTH 569 0
DWIDTH 18 0
BBX 17 35 1 0
BITMAP
004000
03C000
1FC000
1FC000
1FCF80
100F80
000F80
F8FF00
F8FF00
F8FE00
F8F800
F8F800
F8F800
F8F800
F8F800
F8F800
F8F800
F8F800
F8F800
F8F800
F8F800
F8F800
F8F800
F8F800
F8F800
F8F800
F8F800
F8F800
F8F800
FCF800
FFF800
7FF800
7FF000
3FE000
0FC000
ENDCHAR
STARTCHAR uni1EE9
ENCODING 7913
SWIDTH 570 0
DWIDTH 18 0
BBX 17 32 1 0
BITMAP
002000
00E000
03E000
0FE000
1FE000
1FE780
1F0780
000F80
FCFF80
FCFF00
FCFE00
FCFC00
FCFC00
FCFC00
FCFC00
FCFC00
FCFC00
FCFC00
FCFC00
FCFC00
FCFC00
FCFC00
FCFC00
FCFC00
FCFC00
FCFC00
FCFC00
FCFC00
FFFC00
7FFC00
7FFC00
3EFC00
ENDCHAR
STARTCHAR uni1EEA
ENCODING 7914
SWIDTH 569 0
DWIDTH 18 0
BBX 17 35 1 0
BITMAP
100000
1E0000
1FC000
1FC000
1FCF80
004F80
000F80
F8FF00
F8FF00
F8FE00
F8F800
F8F800
F8F800
F8F800
F8F800
F8F800
F8F800
F8F800
F8F800
F8F800
F8F800
F8F800
F8F800
F8F800
F8F800
F8F800
F8F800
F8F800
F8F800
FCF800
FFF800
7FF800
7FF000
3FE000
0FC000
ENDCHAR
STARTCHAR uni1EEB
ENCODING 7915
SWIDTH 570 0
DWIDTH 18 0
BBX 17 32 1 0
BITMAP
100000
1C0000
1F0000
1FC000
1FE000
1FE780
03E780
000F80
FCFF80
FCFF00
FCFE00
FCFC00
FCFC00
FCFC00
FCFC00
FCFC00
FCFC00
FCFC00
FCFC00
FCFC00
FCFC00
FCFC00
FCFC00
FCFC00
FCFC00
FCFC00
FCFC00
FCFC00
FFFC00
7FFC00
7FFC00
3EFC00
ENDCHAR
STARTCHAR uni1EEC
ENCODING 7916
SWIDTH 569 0
DWIDTH 18 0
BBX 17 38 1 0
BITMAP
1F8000
1FC000
1FC000
03C000
03C000
03C000
0F8000
070F80
020F80
000F80
F8FF00
F8FF00
F8FE00
F8F800
F8F800
F8F800
F8F800
F8F800
F8F800
F8F800
F8F800
F8F800
F8F800
F8F800
F8F800
F8F800
F8F800
F8F800
F8F800
F8F800
F8F800
F8F800
FCF800
FFF800
7FF800
7FF000
3FE000
0FC000
ENDCHAR
STARTCHAR uni1EED
ENCODING 7917
SWIDTH 570 0
DWIDTH 18 0
BBX 17 34 1 0
BITMAP
0F8000
0FE000
0FE000
01E000
01E000
01E000
07C000
038780
010780
000F80
FCFF80
FCFF00
FCFE00
FCFC00
FCFC00
FCFC00
FCFC00
FCFC00
FCFC00
FCFC00
FCFC00
FCFC00
FCFC00
FCFC00
FCFC00
FCFC00
FCFC00
FCFC00
FCFC00
FCFC00
FFFC00
7FFC00
7FFC00
3EFC00
ENDCHAR
STARTCHAR uni1EEE
ENCODING 7918
SWIDTH 569 0
DWIDTH 18 0
BBX 17 35 1 0
BITMAP
3C2000
7F3800
FFF800
67F000
01EF80
000F80
000F80
F8FF00
F8FF00
F8FE00
F8F800
F8F800
F8F800
F8F800
F8F800
F8F800
F8F800
F8F800
F8F800
F8F800
F8F800
F8F800
F8F800
F8F800
F8F800
F8F800
F8F800
F8F800
F8F800
FCF800
FFF800
7FF800
7FF000
3FE000
0FC000
ENDCHAR
STARTCHAR uni1EEF
ENCODING 7919
SWIDTH 570 0
DWIDTH 18 0
BBX 17 31 1 0
BITMAP
1F3800
3FF800
7FF800
7FF000
23E780
000780
000F80
FCFF80
FCFF00
FCFE00
FCFC00
FCFC00
FCFC00
FCFC00
FCFC00
FCFC00
FCFC00
FCFC00
FCFC00
FCFC00
FCFC00
FCFC00
FCFC00
FCFC00
FCFC00
FCFC00
FCFC00
FFFC00
7FFC00
7FFC00
3EFC00
ENDCHAR
STARTCHAR uni1EF0
ENCODING 7920
SWIDTH 569 0
DWIDTH 18 0
BBX 17 38 1 -7
BITMAP
000F80
000F80
000F80
F8FF00
F8FF00
F8FE00
F8F800
F8F800
F8F800
F8F800
F8F800
F8F800
F8F800
F8F800
F8F800
F8F800
F8F800
F8F800
F8F800
F8F800
F8F800
F8F800
F8F800
F8F800
F8F800
FCF800
FFF800
7FF800
7FF000
3FE000
0FC000
000000
000000
000000
0F8000
0F8000
0F8000
0F8000
ENDCHAR
STARTCHAR uni1EF1
ENCODING 7921
SWIDTH 570 0
DWIDTH 18 0
BBX 17 34 1 -7
BITMAP
000780
000780
000F80
FCFF80
FCFF00
FCFE00
FCFC00
FCFC00
FCFC00
FCFC00
FCFC00
FCFC00
FCFC00
FCFC00
FCFC00
FCFC00
FCFC00
FCFC00
FCFC00
FCFC00
FCFC00
FCFC00
FCFC00
FFFC00
7FFC00
7FFC00
3EFC00
000000
000000
000000
07C000
07C000
07C000
07C000
ENDCHAR
STARTCHAR Ygrave
ENCODING 7922
SWIDTH 446 0
DWIDTH 14 0
BBX 14 36 0 0
BITMAP
1000
1C00
1F00
1FC0
1FE0
1FE0
03E0
0000
FC7C
7CFC
7CFC
7CF8
7CF8
7CF8
3EF8
3FF0
3FF0
3FF0
1FF0
1FE0
1FE0
1FE0
0FE0
0FE0
0FC0
0FC0
0FC0
07C0
07C0
07C0
07C0
07C0
07C0
07C0
07C0
07C0
ENDCHAR
STARTCHAR ygrave
ENCODING 7923
SWIDTH 461 0
DWIDTH 15 0
BBX 14 36 0 -4
BITMAP
1000
0C00
0F00
0FC0
0FE0
0FE0
03E0
0000
FC7C
FC7C
7C7C
7C7C
7C7C
7CF8
7CF8
7CF8
3CF8
3CF8
3EF8
3EF0
3EF0
3EF0
1FF0
1FF0
1FF0
1FE0
1FE0
1FE0
1FE0
0FE0
0FE0
0FC0
7FC0
7FC0
7FC0
7F80
ENDCHAR
STARTCHAR uni1EF4
ENCODING 7924
SWIDTH 446 0
DWIDTH 14 0
BBX 14 35 0 -7
BITMAP
FC7C
7CFC
7CFC
7CF8
7CF8
7CF8
3EF8
3FF0
3FF0
3FF0
1FF0
1FE0
1FE0
1FE0
0FE0
0FE0
0FC0
0FC0
0FC0
07C0
07C0
07C0
07C0
07C0
07C0
07C0
07C0
07C0
0000
0000
0000
0FC0
0FC0
0FC0
0FC0
ENDCHAR
STARTCHAR uni1EF5
ENCODING 7925
SWIDTH 461 0
DWIDTH 15 0
BBX 14 35 0 -11
BITMAP
FC7C
FC7C
7C7C
7C7C
7C7C
7CF8
7CF8
7CF8
3CF8
3CF8
3EF8
3EF0
3EF0
3EF0
1FF0
1FF0
1FF0
1FE0
1FE0
1FE0
1FE0
0FE0
0FE0
0FC0
7FC0
7FC0
7FC0
7F80
0000
0000
0000
0FC0
0FC0
0FC0
0FC0
ENDCHAR
STARTCHAR uni1EF6
ENCODING 7926
SWIDTH 446 0
DWIDTH 14 0
BBX 14 37 0 0
BITMAP
0F80
0FC0
0FE0
01E0
01E0
01E0
07C0
0380
0200
FC7C
7CFC
7CFC
7CF8
7CF8
7CF8
3EF8
3FF0
3FF0
3FF0
1FF0
1FE0
1FE0
1FE0
0FE0
0FE0
0FC0
0FC0
0FC0
07C0
07C0
07C0
07C0
07C0
07C0
07C0
07C0
07C0
ENDCHAR
STARTCHAR uni1EF7
ENCODING 7927
SWIDTH 461 0
DWIDTH 15 0
BBX 14 38 0 -4
BITMAP
07C0
07E0
07E0
01F0
00F0
01E0
03E0
03C0
0100
0000
FC7C
FC7C
7C7C
7C7C
7C7C
7CF8
7CF8
7CF8
3CF8
3CF8
3EF8
3EF0
3EF0
3EF0
1FF0
1FF0
1FF0
1FE0
1FE0
1FE0
1FE0
0FE0
0FE0
0FC0
7FC0
7FC0
7FC0
7F80
ENDCHAR
STARTCHAR uni1EF8
ENCODING 7928
SWIDTH 446 0
DWIDTH 14 0
BBX 14 35 0 0
BITMAP
1FBC
3FF8
7FF8
7FF0
21E0
0000
0000
FC7C
7CFC
7CFC
7CF8
7CF8
7CF8
3EF8
3FF0
3FF0
3FF0
1FF0
1FE0
1FE0
1FE0
0FE0
0FE0
0FC0
0FC0
0FC0
07C0
07C0
07C0
07C0
07C0
07C0
07C0
07C0
07C0
ENDCHAR
STARTCHAR uni1EF9
ENCODING 7929
SWIDTH 461 0
DWIDTH 15 0
BBX 14 35 0 -4
BITMAP
1F9C
3FF8
7FF8
7FF8
11F0
0000
0000
FC7C
FC7C
7C7C
7C7C
7C7C
7CF8
7CF8
7CF8
3CF8
3CF8
3EF8
3EF0
3EF0
3EF0
1FF0
1FF0
1FF0
1FE0
1FE0
1FE0
1FE0
0FE0
0FE0
0FC0
7FC0
7FC0
7FC0
7F80
ENDCHAR
STARTCHAR endash
ENCODING 8211
SWIDTH 311 0
DWIDTH 10 0
BBX 8 4 1 8
BITMAP
FF
FF
FF
FF
ENDCHAR
STARTCHAR emdash
ENCODING 8212
SWIDTH 563 0
DWIDTH 18 0
BBX 16 4 1 8
BITMAP
FFFF
FFFF
FFFF
FFFF
ENDCHAR
STARTCHAR quoteleft
ENCODING 8216
SWIDTH 235 0
DWIDTH 8 0
BBX 6 8 1 20
BITMAP
78
70
F0
F0
FC
FC
FC
FC
ENDCHAR
STARTCHAR quoteright
ENCODING 8217
SWIDTH 232 0
DWIDTH 7 0
BBX 6 8 1 20
BITMAP
FC
FC
FC
FC
3C
78
78
70
ENDCHAR
STARTCHAR quotesinglbase
ENCODING 8218
SWIDTH 236 0
DWIDTH 8 0
BBX 6 8 1 -4
BITMAP
FC
FC
FC
FC
38
78
78
70
ENDCHAR
STARTCHAR quotedblleft
ENCODING 8220
SWIDTH 464 0
DWIDTH 15 0
BBX 13 8 1 20
BITMAP
7870
70F0
F0E0
F1E0
FDF8
FDF8
FDF8
FDF8
ENDCHAR
STARTCHAR quotedblright
ENCODING 8221
SWIDTH 463 0
DWIDTH 15 0
BBX 13 8 1 20
BITMAP
FDF8
FDF8
FDF8
FDF8
3C78
7870
78F0
70F0
ENDCHAR
STARTCHAR quotedblbase
ENCODING 8222
SWIDTH 467 0
DWIDTH 15 0
BBX 13 8 1 -4
BITMAP
FDF8
FDF8
FDF8
FDF8
3878
7870
7870
70F0
ENDCHAR
STARTCHAR dagger
ENCODING 8224
SWIDTH 385 0
DWIDTH 12 0
BBX 12 25 0 0
BITMAP
1F80
1F80
1F80
1F80
1F80
FFF0
FFF0
FFF0
FFF0
1F80
1F80
1F80
1F80
1F80
1F80
1F80
1F80
1F80
1F80
1F80
1F80
1F80
1F80
1F80
1F80
ENDCHAR
STARTCHAR daggerdbl
ENCODING 8225
SWIDTH 394 0
DWIDTH 13 0
BBX 11 25 1 0
BITMAP
3F00
3F00
3F00
3F00
3F00
3F00
FFE0
FFE0
FFE0
FFE0
3F00
3F00
3F00
3F00
3F00
FFE0
FFE0
FFE0
FFE0
3F00
3F00
3F00
3F00
3F00
3F00
ENDCHAR
STARTCHAR bullet
ENCODING 8226
SWIDTH 352 0
DWIDTH 11 0
BBX 10 11 1 6
BITMAP
3E00
7F00
FF80
FF80
FF80
FFC0
FF80
FF80
FF80
7F00
3E00
ENDCHAR
STARTCHAR ellipsis
ENCODING 8230
SWIDTH 708 0
DWIDTH 23 0
BBX 21 4 1 0
BITMAP
F8F9F8
F8F9F8
F8F9F8
F8F9F8
ENDCHAR
STARTCHAR perthousand
ENCODING 8240
SWIDTH 1480 0
DWIDTH 47 0
BBX 46 28 1 0
BITMAP
1F803E000000
7FC07C000000
7FE07C000000
FFE07C000000
F9F0F8000000
F1F0F8000000
F1F0F8000000
F1F1F8000000
F1F1F0000000
F1F1F1F807C0
F1F1F3FC1FF0
F1F3E7FE3FF8
F1F3EFFF3FF8
F1F3EF9F3C78
F9F7CF9F7C7C
FFE7CF9F7C7C
7FE7CF9F7C7C
7FCFCF9F7C7C
3F8F8F9F7C7C
000F8F9F7C7C
000F8F9F7C7C
001F0F9F7C7C
001F0F9F3C7C
001F0FFF3EF8
003E0FFF3FF8
003E07FE1FF8
003E03FC1FF0
007E01F807C0
ENDCHAR
STARTCHAR guilsinglleft
ENCODING 8249
SWIDTH 296 0
DWIDTH 9 0
BBX 8 16 1 4
BITMAP
01
03
0F
3F
FF
FF
FE
F0
F0
FC
FF
FF
3F
1F
07
01
ENDCHAR
STARTCHAR guilsinglright
ENCODING 8250
SWIDTH 296 0
DWIDTH 9 0
BBX 8 16 1 4
BITMAP
80
C0
F0
F8
FE
FF
7F
1F
0F
3F
FF
FF
FC
F0
C0
80
ENDCHAR
STARTCHAR fraction
ENCODING 8260
SWIDTH 226 0
DWIDTH 7 0
BBX 13 28 -3 0
BITMAP
0078
00F8
00F0
00F0
01F0
01E0
01E0
03E0
03C0
03C0
0380
0780
0780
0700
0F00
0F00
0E00
1E00
1C00
1C00
3C00
3800
3800
7000
7000
7000
E000
E000
ENDCHAR
STARTCHAR uni2074
ENCODING 8308
SWIDTH 306 0
DWIDTH 10 0
BBX 9 15 0 13
BITMAP
1F00
1F00
1F00
3F00
3F00
3F00
3700
7700
7700
7700
FF80
FF80
FF80
0700
0700
ENDCHAR
STARTCHAR colonmonetary
ENCODING 8353
SWIDTH 509 0
DWIDTH 16 0
BBX 12 28 2 -1
BITMAP
0360
0F60
3FC0
7FE0
7FF0
FFF0
F6F0
F6F0
F4F0
F5F0
FDF0
FDF0
FD00
F900
FB00
FB00
FBF0
FAF0
F6F0
F6F0
F6F0
F6F0
FDF0
7FF0
7FE0
7FE0
6F80
7800
ENDCHAR
STARTCHAR franc
ENCODING 8355
SWIDTH 508 0
DWIDTH 16 0
BBX 12 25 2 0
BITMAP
3FF0
3FF0
3FF0
3FF0
3E00
3E00
3E00
3E00
3E00
3FF0
3FF0
3FF0
3FF0
3E00
3E00
3E00
3E00
FFC0
FFC0
FFC0
3E00
3E00
3E00
3E00
3E00
ENDCHAR
STARTCHAR lira
ENCODING 8356
SWIDTH 474 0
DWIDTH 15 0
BBX 15 25 0 0
BITMAP
07F0
1FF8
1FFC
3FFC
3F7C
3F3E
3F3E
3F00
3F00
FFF8
FFF8
FFF8
1F80
1F80
FFF8
FFF8
FFF8
1F80
1F80
3F00
7E00
7FFC
7FFC
7FFC
7FFC
ENDCHAR
STARTCHAR uni20A6
ENCODING 8358
SWIDTH 511 0
DWIDTH 16 0
BBX 15 25 1 0
BITMAP
7878
7C78
7C78
7C78
7C78
7E78
7E78
7E78
FFFE
FFFE
FFFE
7F78
7BF8
7BF8
FFFE
FFFE
FFFE
79F8
79F8
78F8
78F8
78F8
78F8
7878
7878
ENDCHAR
STARTCHAR peseta
ENCODING 8359
SWIDTH 1096 0
DWIDTH 35 0
BBX 33 26 1 0
BITMAP
FFC1E00000
FFE1E00000
FFE1E00000
FFF1E00000
F1F1E07C00
F0F3F9FF00
F0F3F9FF00
F0F3FBFF80
F0F3FBE780
F0F1E3C780
F0F1E3E780
F0F1E1E000
F3F1E1F000
FFF1E0F800
FFE1E07C00
FFC1E03E00
FF81E01F00
F001E00F80
F001E3C780
F001E3C780
F001E3C780
F001F3EF80
F001F9FF80
F001F9FF80
F001F8FF00
F000F87E00
ENDCHAR
STARTCHAR uni20A9
ENCODING 8361
SWIDTH 600 0
DWIDTH 19 0
BBX 19 25 0 0
BITMAP
F8E3E0
78E3E0
78E3C0
78F3C0
78F3C0
78F3C0
FFFFE0
FFFFE0
FFBFE0
39B3C0
3DB380
FFFFE0
FFFFE0
FFFFE0
3DBF80
3FBF80
3F9F80
1F9F80
1F9F80
1F1F00
1F1F00
1F1F00
1F1F00
1F1F00
1F1F00
ENDCHAR
STARTCHAR dong
ENCODING 8363
SWIDTH 509 0
DWIDTH 16 0
BBX 14 30 1 -5
BITMAP
00F8
1FFC
1FFC
1FFC
00F8
3EF8
7FF8
7FF8
7FF8
FCF8
F8F8
F8F8
F8F8
F8F8
F8F8
F8F8
F8F8
F8F8
F8F8
FCF8
FDF8
7FF8
7FF8
7EF8
3CF8
0000
FFF8
FFF8
FFF8
FFF8
ENDCHAR
STARTCHAR Euro
ENCODING 8364
SWIDTH 525 0
DWIDTH 17 0
BBX 15 28 1 0
BITMAP
07F0
1FF8
3FFC
3FFE
3F7E
7E3E
7E3E
7E00
7E00
FFF0
FFF0
FFF0
7E00
7E00
7E00
FFF0
FFF0
FFF0
7E00
7E00
7E00
7E3E
7F7E
3FFE
3FFC
1FFC
0FF8
07E0
ENDCHAR
STARTCHAR uni20AD
ENCODING 8365
SWIDTH 509 0
DWIDTH 16 0
BBX 14 25 1 0
BITMAP
3C7C
3C78
3CF8
3CF0
3CF0
3DF0
3DE0
3DE0
3FE0
FFF8
FFF8
FFF8
FFF8
3FE0
3DE0
3DE0
3DF0
3DF0
3CF0
3CF0
3CF8
3CF8
3C78
3C7C
3C7C
ENDCHAR
STARTCHAR uni20B1
ENCODING 8369
SWIDTH 509 0
DWIDTH 16 0
BBX 15 25 1 0
BITMAP
7FE0
7FF0
7FF0
7FF8
78F8
FFFE
FFFE
7878
7878
7878
FFFE
FFFE
78F8
7FF8
7FF0
7FF0
7FC0
7800
7800
7800
7800
7800
7800
7800
7800
ENDCHAR
STARTCHAR uni20B2
ENCODING 8370
SWIDTH 508 0
DWIDTH 16 0
BBX 12 30 2 -2
BITMAP
0600
0600
0600
1FC0
7FE0
7FE0
FFF0
F8F0
F0F0
F0F0
F0F0
F000
F000
F000
F1F0
F1F0
F1F0
F1F0
F0F0
F0F0
F0F0
F0F0
F0F0
F8F0
FFF0
7FF0
7FB0
1F30
0600
0600
ENDCHAR
STARTCHAR uni20B5
ENCODING 8373
SWIDTH 481 0
DWIDTH 15 0
BBX 14 29 1 -3
BITMAP
0300
0300
0300
1FE0
7FF0
7FF8
FFF8
FCFC
F8FC
F8FC
F8FC
F8FC
F8FC
F800
F800
F800
F800
F8FC
F8FC
F8FC
F8FC
FCFC
FFF8
7FF8
7FF0
3FE0
0780
0300
0300
ENDCHAR
STARTCHAR uni20B9
ENCODING 8377
SWIDTH 509 0
DWIDTH 16 0
BBX 12 25 2 0
BITMAP
FFF0
FFF0
FFF0
07C0
03E0
01E0
FFF0
FFF0
FFF0
01E0
03C0
FFC0
FF80
FF00
F800
7800
7C00
3E00
1E00
1F00
0F80
0780
07C0
03E0
01F0
ENDCHAR
STARTCHAR uni20BA
ENCODING 8378
SWIDTH 507 0
DWIDTH 16 0
BBX 14 25 1 0
BITMAP
3C00
3C00
3C00
3C00
3C20
3CE0
3FE0
3FE0
FF00
FC20
FCE0
3FE0
3FE0
FF00
FC00
FC3C
3C3C
3C3C
3C3C
3C3C
3C7C
3FFC
3FF8
3FF8
3FE0
ENDCHAR
STARTCHAR uni20BC
ENCODING 8380
SWIDTH 509 0
DWIDTH 16 0
BBX 15 25 1 0
BITMAP
0780
0780
0780
0780
0780
0FE0
3FF8
7FFC
FFFC
FFBC
F7BE
F79E
F79E
F79E
F79E
F79E
F79E
F79E
F79E
F79E
F79E
F79E
F79E
F79E
F79E
ENDCHAR
STARTCHAR uni20BD
ENCODING 8381
SWIDTH 293 0
DWIDTH 9 0
BBX 13 25 2 0
BITMAP
7FC0
7FE0
7FF0
7FF0
78F0
78F8
7878
7878
7878
7878
78F8
79F0
FFF0
FFF0
FFE0
FF80
7800
7800
FFC0
FFC0
FFC0
7800
7800
7800
7800
ENDCHAR
STARTCHAR uni2113
ENCODING 8467
SWIDTH 248 0
DWIDTH 8 0
BBX 6 28 1 0
BITMAP
FC
FC
FC
FC
FC
FC
FC
FC
FC
FC
FC
FC
FC
FC
FC
FC
FC
FC
FC
FC
FC
FC
FC
FC
FC
FC
FC
FC
ENDCHAR
STARTCHAR uni2116
ENCODING 8470
SWIDTH 944 0
DWIDTH 30 0
BBX 28 28 1 0
BITMAP
F8F81F00
FCF87FC0
FCF8FFE0
FCF8FFE0
FCF9FBF0
FEF9F1F0
FEF9F1F0
FEF9F1F0
FEF9F1F0
FFF9F1F0
FFF9F1F0
FFF9F1F0
FFF9F1F0
FFF8FFE0
FFF8FFE0
FFF87FC0
FBF83F80
FBF80000
FBF80000
FBF8FFE0
F9F8FFE0
F9F8FFE0
F9F8FFE0
F9F80000
F8F80000
F8F80000
F8F80000
F8F80000
ENDCHAR
STARTCHAR trademark
ENCODING 8482
SWIDTH 925 0
DWIDTH 30 0
BBX 27 19 1 9
BITMAP
FF9F8FE0
FF9F8FE0
FF9F8FE0
FF9FCFE0
3C1FCFE0
3C1FCFE0
3C1FDFE0
3C1FDFE0
3C1FDDE0
3C1FFDE0
3C1FFDE0
3C1EFDE0
3C1EFDE0
3C1EFDE0
3C1EF9E0
3C1EF9E0
3C1EF9E0
3C1E79E0
3C1E79E0
ENDCHAR
STARTCHAR uni2126
ENCODING 8486
SWIDTH 484 0
DWIDTH 15 0
BBX 14 25 1 0
BITMAP
1FE0
3FF0
7FF8
FFF8
FCF8
F8F8
F8F8
F8F8
F8F8
F8F8
F8F8
F8F8
F8F8
F8F8
F8F8
F8F8
F8F8
F8F8
78F8
7CF8
7CF0
FDFC
FDFC
FDFC
FDFC
ENDCHAR
STARTCHAR estimated
ENCODING 8494
SWIDTH 488 0
DWIDTH 16 0
BBX 14 24 1 0
BITMAP
0FC0
3CF0
7878
F878
F878
F87C
F87C
F87C
F87C
F87C
F87C
FFFC
F800
F800
F800
F87C
F87C
F87C
F87C
F878
7878
7878
3CF0
1FC0
ENDCHAR
STARTCHAR partialdiff
ENCODING 8706
SWIDTH 523 0
DWIDTH 17 0
BBX 15 27 1 0
BITMAP
01C0
1FF8
1FFC
1FFC
1FFE
007E
007E
007E
007E
007E
1FFE
3FFE
7FFE
7FFE
FEFE
FC7E
FC7E
FCFE
FCFE
FCFC
FCFC
FCFC
FFF8
FFF8
FFF0
7FE0
3FC0
ENDCHAR
STARTCHAR emptyset
ENCODING 8709
SWIDTH 677 0
DWIDTH 22 0
BBX 20 21 1 3
BITMAP
03F820
0FFE30
1E07E0
3803C0
7001C0
6003E0
E00660
C00C70
C01870
C03030
C06030
C0C070
C18070
E30070
E60060
7C00E0
7801C0
3C0380
7F1F00
E7FE00
40F000
ENDCHAR
STARTCHAR uni2206
ENCODING 8710
SWIDTH 450 0
DWIDTH 14 0
BBX 13 28 1 0
BITMAP
3FC0
3FC0
3FC0
3FC0
3FE0
3FE0
3DE0
3DE0
3DE0
7DE0
7DE0
7DE0
7DE0
79E0
79F0
79F0
79F0
79F0
F9F0
F9F0
F9F0
F9F0
F9F0
F9F0
FFF8
FFF8
FFF8
FFF8
ENDCHAR
STARTCHAR product
ENCODING 8719
SWIDTH 483 0
DWIDTH 15 0
BBX 14 28 1 0
BITMAP
FFFC
FFFC
FFFC
FFFC
FFFC
F8FC
F8FC
F8FC
F8FC
F8FC
F8FC
F8FC
F8FC
F8FC
F8FC
F8FC
F8FC
F8FC
F8FC
F8FC
F8FC
F8FC
F8FC
F8FC
F8FC
F8FC
F8FC
F8FC
ENDCHAR
STARTCHAR summation
ENCODING 8721
SWIDTH 415 0
DWIDTH 13 0
BBX 12 28 1 0
BITMAP
FFF0
FFF0
FFF0
FFF0
FFF0
FC00
FC00
7C00
7E00
7E00
3F00
3F00
3F00
1F80
1F80
3F00
3F00
3F00
7E00
7E00
7C00
FC00
FC00
FFF0
FFF0
FFF0
FFF0
FFF0
ENDCHAR
STARTCHAR minus
ENCODING 8722
SWIDTH 311 0
DWIDTH 10 0
BBX 8 4 1 8
BITMAP
FF
FF
FF
FF
ENDCHAR
STARTCHAR uni2215
ENCODING 8725
SWIDTH 392 0
DWIDTH 13 0
BBX 13 28 0 0
BITMAP
01F8
03F0
03F0
03F0
03F0
03E0
07E0
07E0
07E0
07C0
0FC0
0FC0
0FC0
0F80
0F80
1F80
1F80
1F80
1F00
3F00
3F00
3F00
3E00
7E00
7E00
7E00
7C00
FC00
ENDCHAR
STARTCHAR uni2219
ENCODING 8729
SWIDTH 293 0
DWIDTH 9 0
BBX 5 5 2 11
BITMAP
F8
F8
F8
F8
F8
ENDCHAR
STARTCHAR radical
ENCODING 8730
SWIDTH 692 0
DWIDTH 22 0
BBX 22 24 0 0
BITMAP
007FFC
00FFFC
00FFFC
00FFFC
00F800
00F800
00F800
00F800
00F800
01F800
01F000
01F000
F9F000
79F000
79F000
7DF000
3DE000
3DE000
3FE000
1FE000
1FE000
1FE000
1FC000
0FC000
ENDCHAR
STARTCHAR infinity
ENCODING 8734
SWIDTH 572 0
DWIDTH 18 0
BBX 17 9 1 7
BITMAP
7C3E00
FFFF00
FFFF00
F3C700
E18780
FFFF00
FFFF00
7E7F00
383E00
ENDCHAR
STARTCHAR integral
ENCODING 8747
SWIDTH 296 0
DWIDTH 9 0
BBX 8 26 1 -1
BITMAP
3F
7F
7F
7E
7C
7C
7C
7C
7C
7C
7C
7C
7C
7C
7C
7C
7C
7C
7C
7C
7C
7C
FC
FC
FC
70
ENDCHAR
STARTCHAR approxequal
ENCODING 8776
SWIDTH 493 0
DWIDTH 16 0
BBX 15 13 1 5
BITMAP
7F1E
7FFC
FFFC
FFF8
21F8
0000
0000
3E08
7FFE
FFFC
FFFC
63F8
0060
ENDCHAR
STARTCHAR notequal
ENCODING 8800
SWIDTH 311 0
DWIDTH 10 0
BBX 8 10 1 8
BITMAP
FF
FF
FF
FF
00
00
FF
FF
FF
FF
ENDCHAR
STARTCHAR lessequal
ENCODING 8804
SWIDTH 323 0
DWIDTH 10 0
BBX 9 22 1 0
BITMAP
0080
0380
0F80
1F80
7F80
FF80
FE00
F800
E000
F800
FC00
FF00
7F80
3F80
0F80
0780
0180
0000
FF00
FF00
FF00
FF00
ENDCHAR
STARTCHAR greaterequal
ENCODING 8805
SWIDTH 323 0
DWIDTH 10 0
BBX 9 22 1 0
BITMAP
8000
C000
F000
FC00
FE00
FF80
7F80
1F80
0780
0F80
3F80
FF80
FF00
FC00
F800
E000
8000
0000
FF00
FF00
FF00
FF00
ENDCHAR
STARTCHAR lozenge
ENCODING 9674
SWIDTH 450 0
DWIDTH 14 0
BBX 13 23 1 0
BITMAP
3FC0
3FC0
3FE0
3FE0
7DE0
79E0
79F0
79F0
F8F0
F0F0
F0F8
F0F8
F0F8
F0F0
F8F0
78F0
79F0
79E0
79E0
3DE0
3FE0
3FC0
3FC0
ENDCHAR
STARTCHAR fi
ENCODING 64257
SWIDTH 523 0
DWIDTH 17 0
BBX 15 29 1 0
BITMAP
007E
3E7E
7E7E
7E7E
7E00
7C7E
FE7E
FE7E
FE7E
FE7E
7C7E
7C7E
7C7E
7C7E
7C7E
7C7E
7C7E
7C7E
7C7E
7C7E
7C7E
7C7E
7C7E
7C7E
7C7E
7C7E
7C7E
7C7E
7C7E
ENDCHAR
STARTCHAR fl
ENCODING 64258
SWIDTH 528 0
DWIDTH 17 0
BBX 15 28 1 0
BITMAP
3E7E
7E7E
7E7E
7E7E
7C7E
FE7E
FE7E
FE7E
FE7E
7C7E
7C7E
7C7E
7C7E
7C7E
7C7E
7C7E
7C7E
7C7E
7C7E
7C7E
7C7E
7C7E
7C7E
7C7E
7C7E
7C7E
7C7E
7C7E
ENDCHAR
STARTCHAR .notdef
ENCODING -1
SWIDTH 263 0
DWIDTH 8 0
BBX 1 1 0 0
BITMAP
00
ENDCHAR
STARTCHAR Iacute_J.loclNLD
ENCODING -1
SWIDTH 693 0
DWIDTH 22 0
BBX 22 36 0 0
BITMAP
020004
06000C
1E003C
FE00FC
FE01FC
FE01FC
F001E0
000000
7C00F8
7C00F8
7C00F8
7C00F8
7C00F8
7C00F8
7C00F8
7C00F8
7C00F8
7C00F8
7C00F8
7C00F8
7C00F8
7C00F8
7C00F8
7CF8F8
7CF8F8
7CF8F8
7CF8F8
7CF8F8
7CF8F8
7CF8F8
7CFDF8
7CFFF8
7CFFF0
7C7FF0
7C3FE0
7C0F80
ENDCHAR
STARTCHAR i.loclTRK
ENCODING -1
SWIDTH 235 0
DWIDTH 8 0
BBX 6 29 1 0
BITMAP
FC
FC
FC
FC
00
FC
FC
FC
FC
FC
FC
FC
FC
FC
FC
FC
FC
FC
FC
FC
FC
FC
FC
FC
FC
FC
FC
FC
FC
ENDCHAR
STARTCHAR iacute_j.loclNLD
ENCODING -1
SWIDTH 502 0
DWIDTH 16 0
BBX 16 34 0 -2
BITMAP
0101
0603
1E1F
7E7F
FE7F
FE7F
F878
0000
7E7E
7E7E
7E7E
7E7E
7E7E
7E7E
7E7E
7E7E
7E7E
7E7E
7E7E
7E7E
7E7E
7E7E
7E7E
7E7E
7E7E
7E7E
7E7E
7E7E
7E7E
7E7E
7EFE
7EFE
00FC
00F8
ENDCHAR
STARTCHAR f_f
ENCODING -1
SWIDTH 560 0
DWIDTH 18 0
BBX 16 28 1 0
BITMAP
3E1F
7E3F
7E3F
7E3F
7C3E
FE7F
FE7F
FE7F
FE7F
7C3E
7C3E
7C3E
7C3E
7C3E
7C3E
7C3E
7C3E
7C3E
7C3E
7C3E
7C3E
7C3E
7C3E
7C3E
7C3E
7C3E
7C3E
7C3E
ENDCHAR
STARTCHAR f_f_i
ENCODING -1
SWIDTH 803 0
DWIDTH 26 0
BBX 24 29 1 0
BITMAP
00003F
3E1F3F
7E3F3F
7E3F3F
7E3F00
7C3E3F
FE7F3F
FE7F3F
FE7F3F
FE7F3F
7C3E3F
7C3E3F
7C3E3F
7C3E3F
7C3E3F
7C3E3F
7C3E3F
7C3E3F
7C3E3F
7C3E3F
7C3E3F
7C3E3F
7C3E3F
7C3E3F
7C3E3F
7C3E3F
7C3E3F
7C3E3F
7C3E3F
ENDCHAR
STARTCHAR f_f_l
ENCODING -1
SWIDTH 808 0
DWIDTH 26 0
BBX 24 28 1 0
BITMAP
3E1F3F
7E3F3F
7E3F3F
7E3F3F
7C3E3F
FE7F3F
FE7F3F
FE7F3F
FE7F3F
7C3E3F
7C3E3F
7C3E3F
7C3E3F
7C3E3F
7C3E3F
7C3E3F
7C3E3F
7C3E3F
7C3E3F
7C3E3F
7C3E3F
7C3E3F
7C3E3F
7C3E3F
7C3E3F
7C3E3F
7C3E3F
7C3E3F
ENDCHAR
STARTCHAR periodcentered.loclCAT.case
ENCODING -1
SWIDTH 0 0
DWIDTH 0 0
BBX 6 5 -3 11
BITMAP
FC
FC
FC
FC
FC
ENDCHAR
STARTCHAR periodcentered.loclCAT
ENCODING -1
SWIDTH 0 0
DWIDTH 0 0
BBX 6 5 -3 11
BITMAP
FC
FC
FC
FC
FC
ENDCHAR
STARTCHAR caroncomb.alt
ENCODING -1
SWIDTH 0 0
DWIDTH 0 0
BBX 6 8 0 20
BITMAP
FC
FC
FC
FC
3C
38
78
78
ENDCHAR
STARTCHAR uni0326.alt
ENCODING -1
SWIDTH 0 0
DWIDTH 0 0
BBX 5 9 -7 27
BITMAP
70
70
F0
F0
F0
F8
F8
F8
F8
ENDCHAR
STARTCHAR uni0308.case
ENCODING -1
SWIDTH 0 0
DWIDTH 0 0
BBX 14 4 -7 25
BITMAP
FCFC
FCFC
FCFC
FCFC
ENDCHAR
STARTCHAR uni0307.case
ENCODING -1
SWIDTH 0 0
DWIDTH 0 0
BBX 6 4 -3 25
BITMAP
FC
FC
FC
FC
ENDCHAR
STARTCHAR gravecomb.case
ENCODING -1
SWIDTH 0 0
DWIDTH 0 0
BBX 8 6 -4 24
BITMAP
C0
F8
FE
FF
FF
01
ENDCHAR
STARTCHAR acutecomb.case
ENCODING -1
SWIDTH 0 0
DWIDTH 0 0
BBX 8 6 -4 24
BITMAP
03
1F
7F
FF
FF
80
ENDCHAR
STARTCHAR uni030B.case
ENCODING -1
SWIDTH 0 0
DWIDTH 0 0
BBX 12 9 -6 25
BITMAP
1080
3EF0
3DE0
3DE0
7BC0
7380
F780
E700
2100
ENDCHAR
STARTCHAR uni0302.case
ENCODING -1
SWIDTH 0 0
DWIDTH 0 0
BBX 14 5 -7 25
BITMAP
1FE0
1FE0
3FF0
7CF8
FCFC
ENDCHAR
STARTCHAR uni030C.case
ENCODING -1
SWIDTH 0 0
DWIDTH 0 0
BBX 14 6 -7 25
BITMAP
FCFC
7CF8
3CF0
3FF0
1FE0
1FE0
ENDCHAR
STARTCHAR uni0306.case
ENCODING -1
SWIDTH 0 0
DWIDTH 0 0
BBX 12 5 -6 25
BITMAP
F0F0
F0F0
FFF0
7FE0
1F80
ENDCHAR
STARTCHAR uni030A.case
ENCODING -1
SWIDTH 0 0
DWIDTH 0 0
BBX 12 10 -6 25
BITMAP
1F80
3FC0
7FE0
70E0
F0F0
70F0
79E0
7FE0
3FC0
0F00
ENDCHAR
STARTCHAR tildecomb.case
ENCODING -1
SWIDTH 0 0
DWIDTH 0 0
BBX 12 5 -6 25
BITMAP
7820
FE70
FFF0
C7E0
01C0
ENDCHAR
STARTCHAR hookabovecomb.case
ENCODING -1
SWIDTH 0 0
DWIDTH 0 0
BBX 7 9 -3 24
BITMAP
F8
FC
FE
3E
1E
3C
7C
38
20
ENDCHAR
STARTCHAR uni030F.case
ENCODING -1
SWIDTH 0 0
DWIDTH 0 0
BBX 12 9 -8 25
BITMAP
1080
7180
FFC0
7BC0
3DE0
3DE0
1EE0
0E70
0C40
ENDCHAR
STARTCHAR uni0311.case
ENCODING -1
SWIDTH 0 0
DWIDTH 0 0
BBX 12 5 -6 26
BITMAP
1F80
7FE0
FFE0
F9F0
F0F0
ENDCHAR
STARTCHAR uni031B.case
ENCODING -1
SWIDTH 0 0
DWIDTH 0 0
BBX 7 6 0 25
BITMAP
1E
1E
1E
FE
FC
F8
ENDCHAR
STARTCHAR uni03060301
ENCODING -1
SWIDTH 0 0
DWIDTH 0 0
BBX 12 11 -6 25
BITMAP
01C0
07C0
3FC0
3FC0
3E00
0000
F0F0
F0F0
FFF0
7FE0
1F80
ENDCHAR
STARTCHAR uni03060300
ENCODING -1
SWIDTH 0 0
DWIDTH 0 0
BBX 12 11 -6 25
BITMAP
3800
3E00
3FC0
3FC0
07C0
0000
F0F0
F0F0
FFF0
7FE0
1F80
ENDCHAR
STARTCHAR uni03060309
ENCODING -1
SWIDTH 0 0
DWIDTH 0 0
BBX 12 14 -6 25
BITMAP
1F00
1F80
1FC0
07C0
03C0
03C0
0F80
0F00
0400
F0F0
F0F0
FFF0
7FE0
1F80
ENDCHAR
STARTCHAR uni03060303
ENCODING -1
SWIDTH 0 0
DWIDTH 0 0
BBX 12 11 -6 25
BITMAP
7C20
FFF0
FFF0
E7E0
01C0
0000
F0F0
F0F0
FFF0
7FE0
1F80
ENDCHAR
STARTCHAR uni03020301
ENCODING -1
SWIDTH 0 0
DWIDTH 0 0
BBX 19 8 -7 25
BITMAP
0003E0
0007C0
000780
000F00
1FE000
3FF000
7CF800
FCFC00
ENDCHAR
STARTCHAR uni03020300
ENCODING -1
SWIDTH 0 0
DWIDTH 0 0
BBX 16 8 -7 25
BITMAP
007C
001E
000F
000F
1FE0
3FF0
7CF8
FCFC
ENDCHAR
STARTCHAR uni03020309
ENCODING -1
SWIDTH 0 0
DWIDTH 0 0
BBX 16 12 -6 25
BITMAP
007C
007E
007F
001F
000F
000F
001E
003E
1F98
3FC0
79E0
F9F0
ENDCHAR
STARTCHAR uni03020303
ENCODING -1
SWIDTH 0 0
DWIDTH 0 0
BBX 14 11 -7 25
BITMAP
3E10
7FF8
7FF8
73F0
00E0
0000
0000
1FE0
3FF0
7CF8
FCFC
ENDCHAR
STARTCHAR uni03060301.case
ENCODING -1
SWIDTH 0 0
DWIDTH 0 0
BBX 10 10 -5 29
BITMAP
0100
0700
1F00
3F00
2000
E1C0
E1C0
F3C0
7F80
3F00
ENDCHAR
STARTCHAR uni03060300.case
ENCODING -1
SWIDTH 0 0
DWIDTH 0 0
BBX 10 10 -5 29
BITMAP
3000
3800
3E00
3F00
0100
E1C0
E1C0
F3C0
7F80
3F00
ENDCHAR
STARTCHAR uni03060309.case
ENCODING -1
SWIDTH 0 0
DWIDTH 0 0
BBX 10 10 -5 29
BITMAP
1E00
1F00
0700
0700
0E00
0400
E1C0
F3C0
7F80
3F00
ENDCHAR
STARTCHAR uni03060303.case
ENCODING -1
SWIDTH 0 0
DWIDTH 0 0
BBX 10 9 -5 29
BITMAP
3880
7FC0
FF80
2300
0000
E1C0
F3C0
7F80
3F00
ENDCHAR
STARTCHAR uni03020301.case
ENCODING -1
SWIDTH 0 0
DWIDTH 0 0
BBX 17 6 -6 29
BITMAP
000F80
001F00
1F9E00
3FC000
79E000
F9F000
ENDCHAR
STARTCHAR uni03020300.case
ENCODING -1
SWIDTH 0 0
DWIDTH 0 0
BBX 15 5 -6 30
BITMAP
007C
003C
1F9E
3FC0
F9F0
ENDCHAR
STARTCHAR uni03020309.case
ENCODING -1
SWIDTH 0 0
DWIDTH 0 0
BBX 14 7 -6 29
BITMAP
003C
003C
000C
1F9C
3FD8
79E0
F9F0
ENDCHAR
STARTCHAR uni03020303.case
ENCODING -1
SWIDTH 0 0
DWIDTH 0 0
BBX 12 9 -6 29
BITMAP
1840
3FE0
7FC0
2380
0000
1F80
3FC0
79E0
F9F0
ENDCHAR
ENDFONT
